<svg width="41" height="23" viewBox="0 0 41 23" fill="none" xmlns="http://www.w3.org/2000/svg">
<rect width="7.47627" height="21.2092" rx="3.73814" transform="matrix(-0.869082 0.494669 0.50535 0.862914 29.7793 0.195007)" fill="currentColor"/>
<rect width="7.47627" height="21.2092" rx="3.73814" transform="matrix(-0.869082 0.494669 0.50535 0.862914 29.8559 0.195007)" fill="url(#paint0_linear_5_4)" fill-opacity="0.4"/>
<rect width="7.47627" height="21.2092" rx="3.73814" transform="matrix(0.869082 0.494669 -0.50535 0.862914 26.4307 0.195007)" fill="currentColor"/>
<rect width="7.47627" height="21.2092" rx="3.73814" transform="matrix(-0.869082 0.494669 0.50535 0.862914 14.6408 0.195007)" fill="currentColor"/>
<rect width="7.47627" height="21.2092" rx="3.73814" transform="matrix(-0.869082 0.494669 0.50535 0.862914 14.6408 0.195007)" fill="url(#paint1_linear_5_4)" fill-opacity="0.4"/>
<rect width="7.47627" height="21.2092" rx="3.73814" transform="matrix(0.869082 0.494669 -0.50535 0.862914 11.2921 0.195007)" fill="currentColor"/>
<defs>
<linearGradient id="paint0_linear_5_4" x1="3.73814" y1="0" x2="3.73814" y2="21.2092" gradientUnits="userSpaceOnUse">
<stop/>
<stop offset="1" stop-opacity="0"/>
</linearGradient>
<linearGradient id="paint1_linear_5_4" x1="3.73814" y1="0" x2="3.73814" y2="21.2092" gradientUnits="userSpaceOnUse">
<stop/>
<stop offset="1" stop-opacity="0"/>
</linearGradient>
</defs>
</svg>
