<svg width="87" height="32" viewBox="0 0 87 32" fill="none" xmlns="http://www.w3.org/2000/svg">
<g clip-path="url(#clip0_61_735)">
<path d="M0.77657 7.77637H6.89789L11.3262 15.2484L15.6569 7.77637H21.5832L14.4196 19.147L21.7783 30.8097H15.6569L11.1632 23.0777L6.66939 30.8097H0.743164L8.03636 19.1137L0.775234 7.77637H0.77657Z" fill="white"/>
<path d="M29.2496 7.77637V30.8097H23.8779V7.77637H29.2496Z" fill="white"/>
<path d="M34.6373 28.4706C32.196 26.0986 31.3809 22.98 31.3809 19.3093C31.3809 15.6386 32.1946 12.4866 34.6373 10.1146C36.5254 8.26262 39.2607 7.32129 41.9959 7.32129C44.7312 7.32129 47.4665 8.26262 49.3546 10.1146C51.7973 12.4866 52.611 15.6373 52.611 19.3093C52.611 22.9813 51.7973 26.0986 49.3546 28.4706C47.4665 30.3226 44.7312 31.264 41.9959 31.264C39.2607 31.264 36.5267 30.3226 34.6373 28.4706ZM45.4141 25.2866C46.8144 23.8893 47.238 21.9733 47.238 19.3093C47.238 16.6453 46.8144 14.696 45.4141 13.2986C44.6324 12.5186 43.4605 12.0653 41.9959 12.0653C40.5314 12.0653 39.3595 12.52 38.5778 13.2986C37.1775 14.696 36.7539 16.6453 36.7539 19.3093C36.7539 21.9733 37.1775 23.8906 38.5778 25.2866C39.3595 26.0666 40.5314 26.52 41.9959 26.52C43.4605 26.52 44.6337 26.0653 45.4141 25.2866Z" fill="white"/>
<path d="M74.3899 7.77637V30.8097H68.3341L59.901 15.151V30.8097H54.6924V7.77637H61.2359L69.1799 22.5257V7.77637H74.3899Z" fill="white"/>
<path d="M80.6302 13.4529C79.3821 11.9996 78.8489 10.7049 78.8489 9.42361C78.8489 8.66628 78.9291 8.19161 79.0347 7.75428C78.424 9.04761 78.2129 10.0156 78.2129 10.9276C78.2129 15.7583 82.6519 16.3809 82.6519 19.7996C82.6519 20.6249 82.2136 21.7463 80.7317 23.8476C85.1961 17.9023 86.3319 15.7636 86.3319 14.2796C86.3319 10.1276 81.9103 9.43028 81.9103 4.76095C81.9103 3.69561 82.5209 2.41295 83.6634 0.738281C83.6634 0.738281 82.5771 2.26228 81.9904 3.07695C79.9019 5.97828 79.0935 9.74495 80.6275 13.4556L80.6302 13.4529Z" fill="white"/>
</g>
<defs>
<clipPath id="clip0_61_735">
<rect width="87" height="32" fill="white"/>
</clipPath>
</defs>
</svg>
