<svg fill="none" height="512" viewBox="0 0 512 512" width="512" xmlns="http://www.w3.org/2000/svg" xmlns:xlink="http://www.w3.org/1999/xlink"><linearGradient id="a" gradientUnits="userSpaceOnUse" x1="256" x2="256.28" y1="32" y2="480"><stop offset=".0479894" stop-color="#c01aea"/><stop offset="1" stop-color="#4251fa"/></linearGradient><g fill="url(#a)"><path clip-rule="evenodd" d="m255.867 118.278c-23.771 0-43.108-19.351-43.108-43.139 0-23.787 19.337-43.139 43.108-43.139s43.11 19.352 43.11 43.139c0 23.788-19.339 43.139-43.11 43.139zm0-62.7731c-10.819 0-19.62 8.808-19.62 19.6341 0 10.8262 8.801 19.6341 19.62 19.6341s19.622-8.8079 19.622-19.6341c0-10.8261-8.803-19.6341-19.622-19.6341z" fill-rule="evenodd"/><path d="m244.759 125.414c3.704.854 7.56 1.306 11.519 1.306 3.961 0 7.817-.452 11.521-1.307v80.694c-3.704-.855-7.561-1.307-11.521-1.307-3.959 0-7.815.452-11.519 1.306z"/><path d="m218.856 221.092-69.908-40.362c-1.112 3.635-2.649 7.201-4.629 10.631-1.98 3.429-4.299 6.542-6.891 9.322l69.883 40.347c2.306-7.527 6.302-14.321 11.545-19.938z"/><path d="m207.311 270.97-69.883 40.347c2.593 2.78 4.912 5.894 6.892 9.324 1.98 3.429 3.517 6.994 4.628 10.629l69.908-40.361c-5.243-5.618-9.24-12.412-11.545-19.939z"/><path d="m244.759 305.894v80.693c3.705-.855 7.561-1.307 11.522-1.307 3.959 0 7.815.452 11.518 1.306v-80.693c-3.704.855-7.561 1.307-11.521 1.307-3.959 0-7.815-.452-11.519-1.306z"/><path d="m293.702 290.908 69.909 40.362c1.112-3.635 2.649-7.201 4.629-10.631 1.98-3.429 4.299-6.542 6.891-9.322l-69.883-40.347c-2.306 7.526-6.303 14.321-11.546 19.938z"/><path d="m305.248 241.031 69.883-40.348c-2.592-2.78-4.912-5.894-6.892-9.324-1.98-3.429-3.517-6.994-4.628-10.629l-69.909 40.362c5.243 5.617 9.24 12.412 11.546 19.939z"/><g clip-rule="evenodd" fill-rule="evenodd"><path d="m136.802 187.496c-11.885 20.586-38.3117 27.657-58.9127 15.763-20.6001-11.894-27.6911-38.316-15.8058-58.902 11.8854-20.586 38.3145-27.658 58.9145-15.764 20.601 11.894 27.69 38.317 15.804 58.903zm-54.3626-31.386c-5.4097 9.369-2.182 21.395 7.1938 26.808 9.3757 5.413 21.4038 2.196 26.8138-7.174 5.409-9.37 2.183-21.397-7.193-26.81-9.3758-5.413-21.405-2.194-26.8146 7.176z"/><path d="m137.215 325.218c11.885 20.586 4.795 47.008-15.806 58.902-20.6 11.893-47.0276 4.823-58.9129-15.763s-4.7954-47.01 15.8047-58.903c20.601-11.894 47.0292-4.822 58.9142 15.764zm-54.363 31.387c5.4096 9.37 17.438 12.587 26.813 7.174 9.376-5.413 12.604-17.439 7.194-26.808-5.409-9.37-17.4386-12.589-26.8143-7.176-9.3758 5.413-12.6024 17.44-7.1927 26.81z"/><path d="m256.692 393.722c23.771 0 43.107 19.351 43.107 43.139 0 23.787-19.336 43.139-43.107 43.139s-43.11-19.352-43.11-43.139c0-23.788 19.339-43.139 43.11-43.139zm0 62.773c10.819 0 19.62-8.808 19.62-19.634s-8.801-19.634-19.62-19.634-19.622 8.808-19.622 19.634 8.803 19.634 19.622 19.634z"/><path d="m375.757 324.504c11.885-20.586 38.312-27.657 58.913-15.763 20.6 11.894 27.691 38.316 15.805 58.902-11.885 20.586-38.314 27.658-58.914 15.764-20.601-11.894-27.69-38.317-15.804-58.903zm54.363 31.386c5.409-9.369 2.182-21.395-7.194-26.808s-21.404-2.196-26.814 7.174c-5.409 9.37-2.183 21.397 7.193 26.81s21.405 2.194 26.815-7.176z"/><path d="m375.344 186.782c-11.885-20.586-4.795-47.008 15.806-58.902 20.6-11.893 47.028-4.823 58.913 15.763s4.795 47.01-15.805 58.903c-20.601 11.894-47.029 4.822-58.914-15.764zm54.363-31.387c-5.41-9.37-17.438-12.587-26.813-7.174-9.376 5.413-12.604 17.439-7.194 26.808 5.409 9.37 17.439 12.589 26.814 7.176 9.376-5.413 12.603-17.44 7.193-26.81z"/><path d="m255.867 235.985c-10.819 0-19.62 8.808-19.62 19.634s8.801 19.634 19.62 19.634 19.622-8.808 19.622-19.634-8.803-19.634-19.622-19.634zm0 62.773c-23.771 0-43.108-19.351-43.108-43.139 0-23.787 19.337-43.139 43.108-43.139s43.109 19.352 43.109 43.139c0 23.788-19.338 43.139-43.109 43.139z"/></g></g></svg>