<svg
  width="34"
  height="34"
  viewBox="0 0 34 34"
  fill="none"
  xmlns="http://www.w3.org/2000/svg"
>
  <path
    fill-rule="evenodd"
    clip-rule="evenodd"
    d="M16.9999 0C21.6942 0 25.9445 1.90288 29.0208 4.97915C32.0607 8.01904 33.9545 12.2051 33.9989 16.8328V16.8425L33.9995 16.9056L34 16.9992L33.9989 17.1558V17.1661C33.9545 21.7938 32.0607 25.9793 29.0208 29.0192C25.9445 32.0955 21.6947 33.9983 16.9999 33.9983C12.3058 33.9983 8.05556 32.0955 4.97923 29.0192C1.90291 25.9429 0 21.6927 0 16.9986C0 12.3046 1.90291 8.05488 4.97923 4.97862C8.05556 1.90235 12.3058 0 16.9999 0ZM26.7707 9.77002C27.4152 9.77002 28.0404 9.85509 28.6357 10.0129C26.8825 8.31159 24.4918 7.26389 21.8557 7.26389C19.1671 7.26389 16.7331 8.35331 14.9719 10.115C13.2102 11.8766 12.1208 14.3107 12.1208 16.9992C12.1208 19.6877 13.2102 22.1217 14.9719 23.8828C16.7337 25.6445 19.1676 26.7339 21.8557 26.7339C24.4918 26.7339 26.883 25.6862 28.6357 23.9849C28.041 24.1432 27.4158 24.2278 26.7712 24.2278C24.7753 24.2278 22.9676 23.4186 21.6599 22.1104C20.3517 20.8022 19.5426 18.9946 19.5426 16.9986C19.5426 15.0027 20.3517 13.195 21.6599 11.8869C22.9671 10.5797 24.7742 9.77002 26.7707 9.77002ZM30.1786 13.5913C29.3063 12.7195 28.1014 12.1799 26.7702 12.1799C25.439 12.1799 24.2341 12.7195 23.3618 13.5913C22.4895 14.4636 21.9503 15.6685 21.9503 16.9997C21.9503 18.3309 22.49 19.5358 23.3618 20.4081C24.2341 21.2799 25.439 21.8194 26.7702 21.8194C28.1014 21.8194 29.3063 21.2799 30.1786 20.4081C31.0504 19.5358 31.5901 18.3309 31.5901 16.9997L31.5895 16.9377C31.5735 15.6305 31.037 14.4497 30.1786 13.5913ZM21.8552 4.85454C23.3692 4.85454 24.8181 5.13157 26.1551 5.63805C23.6516 3.61858 20.4668 2.40935 16.9999 2.40935C12.9712 2.40935 9.32307 4.04269 6.68266 6.68254C4.04275 9.3224 2.40939 12.9704 2.40939 16.9992C2.40939 21.0285 4.04221 24.6759 6.68266 27.3163C9.32307 29.9562 12.9706 31.5896 16.9999 31.5896C20.4673 31.5896 23.6516 30.3803 26.1551 28.3603C24.8181 28.8668 23.3692 29.1438 21.8552 29.1438C18.5017 29.1438 15.465 27.7843 13.2679 25.5867C11.0704 23.3891 9.71085 20.353 9.71085 16.9997C9.71085 13.6464 11.0704 10.6097 13.2679 8.41214C15.465 6.21405 18.5017 4.85454 21.8552 4.85454Z"
    fill="#04D484"
  />
</svg>
