<svg xmlns="http://www.w3.org/2000/svg" version="1.1" xmlns:xlink="http://www.w3.org/1999/xlink" xmlns:svgjs="http://svgjs.dev/svgjs" width="150" height="132"><svg width="150" height="132" viewBox="0 0 748 748" fill="none" xmlns="http://www.w3.org/2000/svg">
  <circle cx="374" cy="374" r="374" fill="black"></circle>
  <path d="M330.821 404.069C298.386 365.77 284.53 331.651 284.53 297.884C284.53 277.926 286.614 265.418 289.357 253.893C273.487 287.976 268 313.485 268 337.519C268 464.822 383.363 481.231 383.363 571.323C383.363 593.073 371.972 622.624 333.46 678C449.482 521.323 479 464.962 479 425.855C479 316.437 364.089 298.06 364.089 175.009C364.089 146.935 379.959 113.132 409.651 69C409.651 69 381.418 109.162 366.173 130.631C311.895 207.09 290.885 306.353 330.751 404.14L330.821 404.069Z" fill="white"></path>
</svg><style>@media (prefers-color-scheme: light) { :root { filter: none; } }
@media (prefers-color-scheme: dark) { :root { filter: none; } }
</style></svg>