<?xml version="1.0" standalone="no"?>
<!DOCTYPE svg PUBLIC "-//W3C//DTD SVG 20010904//EN"
 "http://www.w3.org/TR/2001/REC-SVG-20010904/DTD/svg10.dtd">
<svg version="1.0" xmlns="http://www.w3.org/2000/svg"
 width="804.000000pt" height="738.000000pt" viewBox="0 0 804.000000 738.000000"
 preserveAspectRatio="xMidYMid meet">

<g transform="translate(0.000000,738.000000) scale(0.100000,-0.100000)"
fill="#000000" stroke="none">
<path d="M0 3690 l0 -3690 4020 0 4020 0 0 3690 0 3690 -4020 0 -4020 0 0
-3690z m4410 1845 l145 -145 -613 -2 -612 -3 755 -755 755 -755 0 468 0 467
-263 0 -262 0 -145 145 -145 145 843 0 842 0 0 -1667 0 -1668 -145 146 -145
145 0 1375 0 1374 -142 0 -143 0 -5 -811 -5 -811 -1255 1248 -1255 1248 825 1
825 0 145 -145z m-1780 -1537 l0 -1378 145 0 145 0 0 821 0 821 1249 -1254
1250 -1253 -817 -3 -817 -2 -137 137 c-76 76 -138 141 -138 146 0 4 271 7 601
7 331 0 603 1 605 3 2 1 -336 342 -751 757 l-755 755 0 -468 0 -467 263 0 262
0 145 -145 145 -145 -843 0 -842 0 0 1667 0 1668 145 -145 145 -145 0 -1377z
m2539 -1327 c1 -53 4 -143 7 -201 l6 -105 -1150 1149 -1149 1148 -2 122 c-1
66 -4 157 -7 201 l-5 80 1149 -1149 1150 -1148 1 -97z"/>
</g>
</svg>
