<?xml version="1.0" encoding="UTF-8"?><svg id="Layer_2" xmlns="http://www.w3.org/2000/svg" viewBox="0 0 165.79 167.16"><defs><style>.cls-1{fill:#ffea6e;}.cls-2{fill:#101414;}.cls-3{fill:#101111;}</style></defs><g id="Layer_1-2"><ellipse class="cls-1" cx="82.9" cy="83.58" rx="78.65" ry="79.34"/><path class="cls-3" d="m82.9,167.16C37.19,167.16,0,129.67,0,83.58S37.19,0,82.9,0s82.89,37.49,82.89,83.58-37.18,83.58-82.89,83.58Zm0-158.68C41.9,8.48,8.49,42.17,8.49,83.58s33.38,75.09,74.41,75.09,74.4-33.68,74.4-75.09S123.93,8.48,82.9,8.48Z"/><rect class="cls-2" x="31.69" y="97.23" width="10.27" height="10.27"/><rect class="cls-2" x="42.02" y="107.5" width="10.27" height="10.27"/><rect class="cls-2" x="52.36" y="97.23" width="10.27" height="10.27"/><rect class="cls-2" x="62.7" y="107.5" width="10.27" height="10.27"/><rect class="cls-2" x="72.97" y="97.23" width="10.27" height="10.27"/><rect class="cls-2" x="83.31" y="107.5" width="10.27" height="10.27"/><rect class="cls-2" x="93.65" y="97.23" width="10.27" height="10.27"/><rect class="cls-2" x="114.26" y="97.23" width="10.27" height="10.27"/><rect class="cls-2" x="103.99" y="107.5" width="10.27" height="10.27"/><path class="cls-2" d="m131.81,107.5h-6.88l-2.55,21.73c-.24,3,2.54,5.55,6.06,5.55s6.29-2.55,6.05-5.55l-2.68-21.73Zm-3.37,24.64c-1.91,0-3.45-1.53-3.46-3.44s1.53-3.45,3.44-3.46c1.91,0,3.45,1.53,3.46,3.44h0c0,1.91-1.53,3.45-3.43,3.46,0,0,0,0-.01,0Z"/><path class="cls-3" d="m106.39,63.26l10.71-6.07c-2-6.77-6.08-12-10.42-12.16-6.52-.31-11.58,10.71-11.5,19.41.08,9.11,5.82,20,12.05,19.31,4.57-.5,8.92-7.19,10-16.17l-10.84-4.32Z"/><path class="cls-3" d="m59.75,63.26l10.71-6.07c-2-6.77-6.08-12-10.42-12.16-6.52-.31-11.58,10.71-11.5,19.41.08,9.11,5.82,20,12,19.31,4.57-.5,8.92-7.19,10-16.17l-10.79-4.32Z"/></g></svg>