<svg width="155" height="47" viewBox="0 0 155 47" fill="none" xmlns="http://www.w3.org/2000/svg">
<path d="M61.95 39.078C60.91 39.078 60.39 38.844 60.39 38.376C60.39 38.298 60.416 38.103 60.468 37.791L67.215 12.48C67.397 11.908 67.995 11.622 69.009 11.622H70.647C71.739 11.622 72.337 11.908 72.441 12.48L79.188 37.791C79.266 38.025 79.305 38.22 79.305 38.376C79.305 38.844 78.798 39.078 77.784 39.078H76.731C75.769 39.078 75.236 38.857 75.132 38.415L73.65 32.487H65.967L64.524 38.415C64.42 38.857 63.9 39.078 62.964 39.078H61.95ZM72.87 28.977L70.374 18.993C70.27 18.577 70.127 17.732 69.945 16.458H69.75L69.594 17.394C69.542 17.836 69.438 18.369 69.282 18.993L66.825 28.977H72.87ZM86.7494 39.273C85.5274 39.273 84.4874 38.883 83.6294 38.103C82.7974 37.323 82.3814 36.023 82.3814 34.203V10.608C82.3814 9.958 82.9664 9.633 84.1364 9.633H84.5654C85.7614 9.633 86.3594 9.958 86.3594 10.608V34.008C86.3594 35.308 86.7884 35.958 87.6464 35.958C87.9064 35.958 88.1274 35.932 88.3094 35.88C88.5174 35.802 88.6734 35.763 88.7774 35.763C89.0374 35.763 89.2584 36.036 89.4404 36.582C89.6224 37.102 89.7134 37.544 89.7134 37.908C89.7134 38.376 89.3884 38.727 88.7384 38.961C88.1144 39.169 87.4514 39.273 86.7494 39.273ZM97.2611 39.273C96.0391 39.273 94.9991 38.883 94.1411 38.103C93.3091 37.323 92.8931 36.023 92.8931 34.203V10.608C92.8931 9.958 93.4781 9.633 94.6481 9.633H95.0771C96.2731 9.633 96.8711 9.958 96.8711 10.608V34.008C96.8711 35.308 97.3001 35.958 98.1581 35.958C98.4181 35.958 98.6391 35.932 98.8211 35.88C99.0291 35.802 99.1851 35.763 99.2891 35.763C99.5491 35.763 99.7701 36.036 99.9521 36.582C100.134 37.102 100.225 37.544 100.225 37.908C100.225 38.376 99.9001 38.727 99.2501 38.961C98.6261 39.169 97.9631 39.273 97.2611 39.273ZM109.654 39.273C107.158 39.273 105.26 38.389 103.96 36.621C102.66 34.827 102.01 32.24 102.01 28.86C102.01 25.48 102.66 22.88 103.96 21.06C105.286 19.24 107.184 18.33 109.654 18.33C112.15 18.33 114.035 19.24 115.309 21.06C116.609 22.854 117.259 25.454 117.259 28.86C117.259 32.24 116.609 34.827 115.309 36.621C114.035 38.389 112.15 39.273 109.654 39.273ZM109.615 35.958C110.837 35.958 111.721 35.386 112.267 34.242C112.839 33.098 113.125 31.291 113.125 28.821C113.125 26.325 112.839 24.505 112.267 23.361C111.721 22.217 110.837 21.645 109.615 21.645C108.419 21.645 107.548 22.217 107.002 23.361C106.456 24.505 106.183 26.325 106.183 28.821C106.183 31.317 106.456 33.137 107.002 34.281C107.548 35.399 108.419 35.958 109.615 35.958ZM123.638 39.078C122.442 39.078 121.844 38.753 121.844 38.103V24.726C121.844 23.01 121.766 21.762 121.61 20.982C121.454 20.202 121.376 19.76 121.376 19.656C121.376 19.292 121.701 19.032 122.351 18.876C123.001 18.72 123.599 18.642 124.145 18.642C124.535 18.642 124.808 18.837 124.964 19.227C125.146 19.591 125.276 19.994 125.354 20.436C125.458 20.852 125.523 21.138 125.549 21.294C126.693 19.318 127.98 18.33 129.41 18.33C130.736 18.33 131.399 18.902 131.399 20.046C131.399 20.514 131.308 21.047 131.126 21.645C130.97 22.243 130.775 22.542 130.541 22.542C130.411 22.542 130.164 22.477 129.8 22.347C129.462 22.217 129.085 22.152 128.669 22.152C128.045 22.152 127.46 22.412 126.914 22.932C126.368 23.452 126.004 23.946 125.822 24.414V38.103C125.822 38.753 125.237 39.078 124.067 39.078H123.638ZM138.746 39.273C137.004 39.273 135.626 38.74 134.612 37.674C133.624 36.608 133.13 35.113 133.13 33.189C133.13 30.667 134.04 28.847 135.86 27.729C137.68 26.611 140.137 26.039 143.231 26.013V24.531C143.231 23.673 142.984 22.984 142.49 22.464C141.996 21.918 141.203 21.645 140.111 21.645C139.305 21.645 138.59 21.749 137.966 21.957C137.368 22.139 136.822 22.36 136.328 22.62C135.834 22.854 135.535 22.971 135.431 22.971C135.145 22.971 134.807 22.672 134.417 22.074C134.053 21.476 133.871 21.021 133.871 20.709C133.871 20.345 134.17 19.981 134.768 19.617C135.392 19.253 136.198 18.954 137.186 18.72C138.174 18.46 139.201 18.33 140.267 18.33C142.529 18.33 144.245 18.876 145.415 19.968C146.611 21.06 147.209 22.568 147.209 24.492V32.916C147.209 34.658 147.287 35.919 147.443 36.699C147.599 37.479 147.677 37.921 147.677 38.025C147.677 38.389 147.352 38.649 146.702 38.805C146.078 38.961 145.493 39.039 144.947 39.039C144.557 39.039 144.271 38.87 144.089 38.532C143.907 38.168 143.725 37.596 143.543 36.816C142.269 38.454 140.67 39.273 138.746 39.273ZM139.721 35.841C141.177 35.841 142.347 35.191 143.231 33.891V29.016C141.333 29.042 139.825 29.341 138.707 29.913C137.615 30.459 137.069 31.499 137.069 33.033C137.069 34.905 137.953 35.841 139.721 35.841Z" fill="#004328"/>
<path d="M9.04199 16.1272C13.0293 19.1108 22.9877 22.8258 30.9233 13.8174" stroke="#004328" stroke-width="0.5" stroke-linecap="round" stroke-dasharray="1 1"/>
<path d="M25.3804 8.33105C27.131 12.5658 28.0646 22.5367 17.7949 28.5423" stroke="#004328" stroke-width="0.5" stroke-linecap="round" stroke-dasharray="1 1"/>
<path d="M28.0091 29.4085C27.3284 25.9437 27.8341 17.3973 35.3029 10.9297" stroke="#004328" stroke-width="0.5" stroke-linecap="round" stroke-dasharray="1 1"/>
<ellipse cx="3.80953" cy="24.5001" rx="3.80953" ry="3.77011" fill="#004328"/>
<ellipse cx="26.1914" cy="37.9312" rx="3.80953" ry="3.77011" fill="#004328"/>
<ellipse cx="3.33097" cy="16.4889" rx="2.61905" ry="2.59195" fill="#0DAB6B"/>
<ellipse cx="25.5938" cy="6.70949" rx="2.5" ry="2.47413" fill="#004328"/>
<ellipse cx="7.61924" cy="11.3046" rx="2.38096" ry="2.35632" fill="#004328"/>
<path d="M8.93231 15.8847C8.93231 16.4266 8.48695 16.8748 7.9266 16.8748C7.36625 16.8748 6.9209 16.4266 6.9209 15.8847C6.9209 15.3427 7.36625 14.8945 7.9266 14.8945C8.48695 14.8945 8.93231 15.3427 8.93231 15.8847Z" fill="#004328" stroke="#004328"/>
<path d="M29.3527 25.9898C29.3527 26.6912 28.7767 27.2686 28.0553 27.2686C27.3338 27.2686 26.7578 26.6912 26.7578 25.9898C26.7578 25.2884 27.3338 24.7109 28.0553 24.7109C28.7767 24.7109 29.3527 25.2884 29.3527 25.9898Z" fill="#004328" stroke="#004328"/>
<path d="M35.1886 32.9197C35.1886 33.3021 34.8739 33.621 34.4747 33.621C34.0755 33.621 33.7607 33.3021 33.7607 32.9197C33.7607 32.5372 34.0755 32.2183 34.4747 32.2183C34.8739 32.2183 35.1886 32.5372 35.1886 32.9197Z" fill="#004328" stroke="#004328"/>
<path d="M28.7697 10.9763C28.7697 11.3588 28.455 11.6777 28.0557 11.6777C27.6565 11.6777 27.3418 11.3588 27.3418 10.9763C27.3418 10.5938 27.6565 10.2749 28.0557 10.2749C28.455 10.2749 28.7697 10.5938 28.7697 10.9763Z" fill="#0DAB6B" stroke="#0DAB6B"/>
<path d="M15.9348 24.2574C15.9348 24.9588 15.3588 25.5362 14.6373 25.5362C13.9158 25.5362 13.3398 24.9588 13.3398 24.2574C13.3398 23.556 13.9158 22.9785 14.6373 22.9785C15.3588 22.9785 15.9348 23.556 15.9348 24.2574Z" fill="#0DAB6B" stroke="#0DAB6B"/>
<path d="M28.7668 31.1871C28.7668 31.8885 28.1908 32.4659 27.4693 32.4659C26.7478 32.4659 26.1719 31.8885 26.1719 31.1871C26.1719 30.4857 26.7478 29.9082 27.4693 29.9082C28.1908 29.9082 28.7668 30.4857 28.7668 31.1871Z" fill="#004328" stroke="#004328"/>
<path d="M15.0177 11.5539C15.0177 12.0769 14.5886 12.5053 14.0538 12.5053C13.519 12.5053 13.0898 12.0769 13.0898 11.5539C13.0898 11.0309 13.519 10.6025 14.0538 10.6025C14.5886 10.6025 15.0177 11.0309 15.0177 11.5539Z" fill="#004328" stroke="#004328" stroke-width="0.5"/>
<path d="M38.1056 17.3283C38.1056 17.7108 37.7909 18.0297 37.3917 18.0297C36.9925 18.0297 36.6777 17.7108 36.6777 17.3283C36.6777 16.9459 36.9925 16.627 37.3917 16.627C37.7909 16.627 38.1056 16.9459 38.1056 17.3283Z" fill="#004328" stroke="#004328"/>
<path d="M33.4387 12.7085C33.4387 13.4099 32.8627 13.9874 32.1412 13.9874C31.4197 13.9874 30.8438 13.4099 30.8438 12.7085C30.8438 12.0071 31.4197 11.4297 32.1412 11.4297C32.8627 11.4297 33.4387 12.0071 33.4387 12.7085Z" fill="#004328" stroke="#004328"/>
<path d="M10.3459 24.2575C10.3459 24.7805 9.91675 25.2089 9.38192 25.2089C8.84709 25.2089 8.41797 24.7805 8.41797 24.2575C8.41797 23.7345 8.84709 23.3062 9.38192 23.3062C9.91675 23.3062 10.3459 23.7345 10.3459 24.2575Z" fill="#0DAB6B" stroke="#0DAB6B" stroke-width="0.5"/>
<path d="M32.5202 30.8985C32.5202 31.262 32.2217 31.5612 31.848 31.5612C31.4743 31.5612 31.1758 31.262 31.1758 30.8985C31.1758 30.535 31.4743 30.2358 31.848 30.2358C32.2217 30.2358 32.5202 30.535 32.5202 30.8985Z" fill="#004328" stroke="#004328" stroke-width="0.5"/>
<ellipse cx="41.4288" cy="30.3905" rx="2.38096" ry="2.35632" fill="#004328"/>
<ellipse cx="10.9503" cy="27.7987" rx="2.38096" ry="2.35632" fill="#004328"/>
<ellipse cx="17.0248" cy="28.5057" rx="2.02381" ry="1.88505" fill="#004328"/>
<ellipse cx="22.2637" cy="31.4512" rx="2.5" ry="2.47413" fill="#004328"/>
<ellipse cx="30.2374" cy="33.9257" rx="1.19048" ry="1.17816" fill="#0DAB6B"/>
<ellipse cx="16.9034" cy="9.65521" rx="1.19048" ry="1.17816" fill="#004328"/>
<ellipse cx="11.5452" cy="10.7153" rx="0.833335" ry="0.824711" fill="#004328"/>
<ellipse cx="14.1644" cy="31.2153" rx="0.833335" ry="0.824711" fill="#004328"/>
<ellipse cx="28.6875" cy="43.7042" rx="1.30953" ry="1.29597" fill="#004328"/>
<ellipse cx="12.8542" cy="7.77003" rx="1.66667" ry="1.64942" fill="#004328"/>
<ellipse cx="19.2856" cy="5.88505" rx="1.90476" ry="1.88505" fill="#004328"/>
<ellipse cx="31.1909" cy="8.2415" rx="1.90476" ry="1.88505" fill="#004328"/>
<ellipse cx="38.3325" cy="34.1614" rx="1.90476" ry="1.88505" fill="#004328"/>
<ellipse cx="32.9726" cy="36.1641" rx="1.30953" ry="1.29597" fill="#004328"/>
<ellipse cx="32.3821" cy="39.109" rx="0.952382" ry="0.942527" fill="#004328"/>
<ellipse cx="30.7164" cy="41.4659" rx="0.476191" ry="0.471263" fill="#004328"/>
<ellipse cx="43.0952" cy="22.3792" rx="1.90476" ry="1.88505" fill="#004328"/>
<ellipse cx="39.4041" cy="24.3822" rx="1.54762" ry="1.53161" fill="#004328"/>
<ellipse cx="42.6192" cy="26.1493" rx="1.19048" ry="1.17816" fill="#004328"/>
<ellipse cx="38.3325" cy="13.6609" rx="1.90476" ry="1.88505" fill="#0DAB6B"/>
<ellipse cx="35.2362" cy="10.362" rx="1.42857" ry="1.41379" fill="#004328"/>
<ellipse cx="40.951" cy="17.6667" rx="1.42857" ry="1.41379" fill="#004328"/>
</svg>