<?xml version="1.0" encoding="utf-8"?>
<!-- Generator: Adobe Illustrator 26.3.1, SVG Export Plug-In . SVG Version: 6.00 Build 0)  -->
<svg version="1.1" id="Слой_1" xmlns="http://www.w3.org/2000/svg" xmlns:xlink="http://www.w3.org/1999/xlink" x="0px" y="0px"
	 viewBox="0 0 1432 328" style="enable-background:new 0 0 1432 328;" xml:space="preserve">
<style type="text/css">
	.st0{fill:url(#SVGID_1_);}
	.st1{fill:#333333;}
	.st2{fill:url(#SVGID_00000066499589881915917190000003300492093550232757_);}
</style>
<linearGradient id="SVGID_1_" gradientUnits="userSpaceOnUse" x1="237.6407" y1="15.4381" x2="-0.3011" y2="325.1138">
	<stop  offset="0" style="stop-color:#00FFA3"/>
	<stop  offset="1" style="stop-color:#DC1FFF"/>
</linearGradient>
<path class="st0" d="M91.15,208.55c-14.19-11.11-34.72-8.62-45.83,5.57c-0.44,0.56-0.86,1.13-1.24,1.71
	c-0.06,0.09-0.14,0.18-0.18,0.27l-5.12,13.06L2.43,321.91l81.3-57.59l11.44-8.11c0.08-0.07,0.16-0.16,0.22-0.24
	c0.48-0.5,0.93-1.05,1.37-1.61C107.86,240.17,105.35,219.67,91.15,208.55z M241.76,11.88C196.93,6.72,150.58,24.47,121,62.81
	c-17.96,23.3-27,50.65-27.67,77.97c-16.04-3-39.61,8.08-59.02,20.12c-6.87,4.25-4.44,14.71,3.59,15.63
	c42.74,4.91,84.18,33.95,97.07,71.1c2.7,7.78,13.87,7.45,16.13-0.47c5.99-21.07,9.74-44.94,3.3-58.88
	c26.4-7.53,50.71-23.27,68.75-46.68C252.73,103.28,258.14,53.92,241.76,11.88z M180.94,122.61c-16.64,1.05-30.98-11.59-32.03-28.23
	c-1.05-16.66,11.59-31,28.23-32.04c16.66-1.05,30.99,11.59,32.04,28.24C210.23,107.22,197.59,121.56,180.94,122.61z"/>
<g>
	<path class="st1" d="M375.93,94.29v97.83c0,6.3-5.12,11.4-11.42,11.4c-6.3,0-11.23-5-11.23-11.4V94.29c0-6.28,5.04-11.4,11.23-11.4
		C370.81,82.9,375.93,88.02,375.93,94.29z"/>
	<path class="st1" d="M517.99,94.29c0,6.2-5.04,11.24-11.24,11.24H465.9v86.59c0,6.39-4.93,11.4-11.23,11.4
		c-6.3,0-11.4-5.1-11.4-11.4v-86.59h-40.7c-6.28,0-11.4-5.04-11.4-11.24c0-6.28,5.12-11.4,11.4-11.4h104.17
		C512.95,82.9,517.99,88.02,517.99,94.29z"/>
</g>
<g>
	<path class="st1" d="M850.81,120.07c-2.83-7.31-7.15-13.91-12.86-19.6c-11.81-11.51-28.56-17.58-48.4-17.58h-8.35
		c-19.84,0-36.59,6.07-48.42,17.58c-5.59,5.61-9.97,12.2-13.01,19.62c-2.76,7.25-4.22,15.24-4.22,23.12
		c0,7.93,1.43,15.77,4.24,23.31c3.06,7.52,7.44,14.04,13.01,19.44c11.83,11.49,28.56,17.56,48.4,17.56h8.35
		c19.84,0,36.59-6.07,48.4-17.56c5.67-5.5,9.99-12.02,12.86-19.44c2.91-7.36,4.39-15.22,4.39-23.31
		C855.2,135.18,853.68,127.19,850.81,120.07z M789.55,180.9h-8.35c-26.54,0-43.02-14.44-43.02-37.69
		c0-23.23,16.48-37.67,43.02-37.67h8.35c26.54,0,43.02,14.44,43.02,37.67C832.56,166.46,816.09,180.9,789.55,180.9z"/>
</g>
<g>
	<path class="st1" d="M1140.69,184.84c3.98,4.89,3.37,11.93-1.43,16.02c-2.11,1.75-4.62,2.66-7.31,2.66c-3.31,0-6.53-1.52-8.58-4.11
		l-37.99-44.81h-46.21v37.52c0,6.3-5.1,11.4-11.4,11.4s-11.23-5-11.23-11.4V94.29c0-6.28,5.04-11.4,11.23-11.4
		c6.3,0,11.4,5.12,11.4,11.4v37.69h40.35c10.1,0,19.52-3.96,26.54-11.13c7.08-6.93,10.98-16.36,10.98-26.56
		c0-6.28,5.12-11.4,11.4-11.4c6.3,0,11.4,5.12,11.4,11.4c0,8.07-1.64,15.96-4.89,23.5c-3.12,7.25-7.44,13.68-12.84,19.08
		c-4,4-8.5,7.44-13.41,10.22L1140.69,184.84z"/>
	<path class="st1" d="M1287.09,143.21c0,6.3-5.12,11.4-11.4,11.4h-104.18c-6.18,0-11.23-5.1-11.23-11.4
		c0-6.18,5.04-11.23,11.23-11.23h104.18C1281.97,131.98,1287.09,137.03,1287.09,143.21z"/>
	<path class="st1" d="M1287.09,94.29c0,6.2-5.12,11.24-11.4,11.24h-104.18c-6.18,0-11.23-5.04-11.23-11.24
		c0-6.28,5.04-11.4,11.23-11.4h104.18C1281.97,82.9,1287.09,88.02,1287.09,94.29z"/>
	<path class="st1" d="M1287.09,192.12c0,6.3-5.12,11.4-11.4,11.4h-104.18c-6.3,0-11.23-5-11.23-11.4c0-6.18,5.04-11.23,11.23-11.23
		h104.18C1281.97,180.9,1287.09,185.94,1287.09,192.12z"/>
	<path class="st1" d="M1429.15,94.29c0,6.2-5.04,11.24-11.23,11.24h-40.87v86.59c0,6.39-4.93,11.4-11.23,11.4
		c-6.28,0-11.4-5.1-11.4-11.4v-86.59h-40.7c-6.28,0-11.4-5.04-11.4-11.24c0-6.28,5.12-11.4,11.4-11.4h104.18
		C1424.11,82.9,1429.15,88.02,1429.15,94.29z"/>
	<path class="st1" d="M703.61,192.12c0,6.3-5.1,11.4-11.4,11.4h-17.03c-3.27,0-6.24-1.26-8.37-3.56l-32.17-34.84h-44.71v27
		c0,6.3-5.12,11.4-11.4,11.4c-6.3,0-11.24-5-11.24-11.4v-38.39c0-6.28,5.04-11.4,11.24-11.4h74.45c10.2,0,18.49-8.22,18.49-18.32
		c0-10.18-8.3-18.47-18.49-18.47h-74.45c-6.2,0-11.24-5.04-11.24-11.24c0-6.28,5.04-11.4,11.24-11.4h74.45
		c10.79,0,21.1,4.28,29.05,12.06c7.78,7.78,12.06,18.09,12.06,29.05s-4.28,21.27-12.06,29.05c-5,5.02-11.17,8.6-17.87,10.41
		l16,17.43h12.04C698.51,180.9,703.61,185.94,703.61,192.12z"/>
	<path class="st1" d="M893.1,143.21c0,23.25,16.48,37.69,43.02,37.69h8.35c13.68,0,24.89-3.81,32.38-10.98
		c4.68-4.34,11.87-4.17,16.06,0.36c4.3,4.49,4.15,11.68-0.38,16.02c-11.76,11.26-28.39,17.22-48.06,17.22h-8.35
		c-19.84,0-36.59-6.07-48.4-17.56c-5.67-5.5-10.01-12.04-12.86-19.44c-2.91-7.36-4.39-15.2-4.39-23.31c0-8.03,1.52-16.04,4.39-23.14
		c2.82-7.31,7.15-13.91,12.84-19.6c11.83-11.51,28.58-17.58,48.42-17.58h8.35c19.84,0,36.59,6.07,48.4,17.58
		c4.39,4.38,4.47,11.57,0.19,16.02c-2.07,2.15-4.98,3.41-8.01,3.44c-3.03,0-5.9-1.14-8.03-3.27c-7.63-7.29-18.87-11.13-32.55-11.13
		h-8.35C909.58,105.54,893.1,119.98,893.1,143.21z"/>
</g>
<linearGradient id="SVGID_00000153684800837055191710000002924194218915713160_" gradientUnits="userSpaceOnUse" x1="974.439" y1="52.4483" x2="748.8386" y2="443.1996">
	<stop  offset="0" style="stop-color:#00FFA3"/>
	<stop  offset="1" style="stop-color:#DC1FFF"/>
</linearGradient>
<path style="fill:url(#SVGID_00000153684800837055191710000002924194218915713160_);" d="M529.52,237.87l-19.97,42.19h-3.13
	l-18.56-38.62l-18.66,38.62h-2.93l-20.07-42.19h3.23l18.26,39.11l18.66-39.11h3.03l18.56,39.11l18.36-39.11H529.52z M583.48,259.33
	h-45.89c0.2,10.98,9.99,18.54,23.3,18.54c6.86,0,13.31-2.03,17.35-6.26l2.12,1.79c-4.74,4.55-11.8,6.91-19.47,6.91
	c-15.43,0-26.53-8.86-26.53-21.38c0-12.52,10.49-21.38,24.61-21.38c13.92,0,24.51,8.7,24.51,21.06V259.33z M537.69,257.14h42.67
	c-0.81-9.92-9.58-17.15-21.38-17.15C547.07,239.98,538.4,247.22,537.69,257.14z M599.92,219.74h3.33v60.32h-3.33V219.74z
	 M619.69,258.93c0-12.6,10.99-21.38,26.02-21.38c7.87,0,14.93,2.44,19.37,7.24l-2.52,1.71c-3.93-4.39-10.09-6.42-16.84-6.42
	c-13.01,0-22.69,7.64-22.69,18.86c0,11.3,9.68,18.94,22.69,18.94c6.76,0,12.91-2.03,16.84-6.42l2.52,1.63
	c-4.44,4.8-11.5,7.24-19.37,7.24C630.69,280.31,619.69,271.53,619.69,258.93z M674.06,258.93c0-12.52,10.99-21.38,25.72-21.38
	c14.83,0,25.72,8.86,25.72,21.38c0,12.52-10.89,21.38-25.72,21.38C685.05,280.31,674.06,271.45,674.06,258.93z M722.17,258.93
	c0-11.22-9.58-18.86-22.39-18.86c-12.81,0-22.39,7.64-22.39,18.86c0,11.22,9.58,18.94,22.39,18.94
	C712.59,277.87,722.17,270.15,722.17,258.93z M827.67,255.27v24.8h-3.33v-24.63c0-10.08-6.46-15.37-17.45-15.37
	c-12.61,0-20.48,6.83-20.48,17.24v22.76h-3.33v-24.63c0-10.08-6.46-15.37-17.35-15.37c-12.71,0-20.48,6.83-20.48,17.24v22.76h-3.33
	v-42.19h3.23v10.16c3.23-6.42,10.59-10.49,20.78-10.49c9.99,0,17.25,3.9,19.57,11.46c3.03-6.83,10.79-11.46,21.58-11.46
	C819.7,237.55,827.67,243.64,827.67,255.27z M892.73,259.33h-45.89c0.2,10.98,9.99,18.54,23.3,18.54c6.86,0,13.31-2.03,17.35-6.26
	l2.12,1.79c-4.74,4.55-11.8,6.91-19.47,6.91c-15.43,0-26.53-8.86-26.53-21.38c0-12.52,10.49-21.38,24.61-21.38
	c13.92,0,24.51,8.7,24.51,21.06V259.33z M846.93,257.14h42.67c-0.81-9.92-9.58-17.15-21.38-17.15
	C856.31,239.98,847.64,247.22,846.93,257.14z M971.2,252.75v27.32h-3.23v-8.46c-3.23,5.28-9.88,8.7-19.47,8.7
	c-11.8,0-18.76-4.8-18.76-11.87c0-6.18,4.84-11.54,19.06-11.54h19.06v-4.15c0-8.37-5.55-12.76-16.14-12.76
	c-7.57,0-14.22,2.28-18.66,5.69l-1.82-1.95c5.04-3.82,12.61-6.18,20.58-6.18C964.34,237.55,971.2,242.83,971.2,252.75z
	 M967.87,267.87v-8.78H948.8c-11.4,0-15.73,3.9-15.73,9.19c0,6.02,5.85,9.76,15.63,9.76C958.39,278.03,964.64,274.37,967.87,267.87z
	 M1044.42,258.93c0,12.6-11.1,21.38-25.62,21.38c-10.29,0-18.66-4.47-22.59-11.79v11.54h-3.23v-60.32h3.33v29.43
	c3.93-7.24,12.41-11.63,22.49-11.63C1033.33,237.55,1044.42,246.33,1044.42,258.93z M1041.09,258.93c0-11.22-9.58-18.86-22.39-18.86
	c-12.81,0-22.39,7.64-22.39,18.86c0,11.22,9.58,18.94,22.39,18.94C1031.51,277.87,1041.09,270.15,1041.09,258.93z M1054.91,258.93
	c0-12.52,10.99-21.38,25.72-21.38c14.83,0,25.72,8.86,25.72,21.38c0,12.52-10.89,21.38-25.72,21.38
	C1065.9,280.31,1054.91,271.45,1054.91,258.93z M1103.02,258.93c0-11.22-9.58-18.86-22.39-18.86c-12.81,0-22.39,7.64-22.39,18.86
	c0,11.22,9.58,18.94,22.39,18.94C1093.44,277.87,1103.02,270.15,1103.02,258.93z M1159.2,252.75v27.32h-3.23v-8.46
	c-3.23,5.28-9.88,8.7-19.47,8.7c-11.8,0-18.76-4.8-18.76-11.87c0-6.18,4.84-11.54,19.06-11.54h19.06v-4.15
	c0-8.37-5.55-12.76-16.14-12.76c-7.57,0-14.22,2.28-18.66,5.69l-1.82-1.95c5.04-3.82,12.61-6.18,20.58-6.18
	C1152.34,237.55,1159.2,242.83,1159.2,252.75z M1155.87,267.87v-8.78h-19.06c-11.4,0-15.73,3.9-15.73,9.19
	c0,6.02,5.85,9.76,15.63,9.76C1146.39,278.03,1152.65,274.37,1155.87,267.87z M1204.59,237.55v2.68h-0.91
	c-12.2,0-19.37,6.59-19.37,17.4v22.44h-3.33v-42.19h3.23v10.16C1187.24,241.37,1194.3,237.55,1204.59,237.55z M1264.2,219.74v60.32
	h-3.23v-11.54c-3.93,7.32-12.31,11.79-22.59,11.79c-14.53,0-25.62-8.78-25.62-21.38c0-12.6,11.09-21.38,25.62-21.38
	c10.09,0,18.56,4.39,22.49,11.63v-29.43H1264.2z M1260.87,258.93c0-11.22-9.58-18.86-22.39-18.86s-22.39,7.64-22.39,18.86
	c0,11.22,9.58,18.94,22.39,18.94S1260.87,270.15,1260.87,258.93z"/>
</svg>
