<?xml version="1.0" encoding="UTF-8" standalone="no"?>
<!-- Created with Inkscape (http://www.inkscape.org/) -->

<svg
   width="51.221153mm"
   height="51.221558mm"
   viewBox="0 0 51.221153 51.221558"
   version="1.1"
   id="svg46743"
   inkscape:version="1.2 (dc2aeda, 2022-05-15)"
   sodipodi:docname="brobadge.svg"
   inkscape:export-filename="brobadge.png"
   inkscape:export-xdpi="96"
   inkscape:export-ydpi="96"
   xmlns:inkscape="http://www.inkscape.org/namespaces/inkscape"
   xmlns:sodipodi="http://sodipodi.sourceforge.net/DTD/sodipodi-0.dtd"
   xmlns="http://www.w3.org/2000/svg"
   xmlns:svg="http://www.w3.org/2000/svg">
  <sodipodi:namedview
     id="namedview46745"
     pagecolor="#ffffff"
     bordercolor="#666666"
     borderopacity="1.0"
     inkscape:pageshadow="2"
     inkscape:pageopacity="0.0"
     inkscape:pagecheckerboard="0"
     inkscape:document-units="mm"
     showgrid="false"
     inkscape:zoom="3.1617317"
     inkscape:cx="-10.279177"
     inkscape:cy="82.075275"
     inkscape:window-width="1720"
     inkscape:window-height="1387"
     inkscape:window-x="1512"
     inkscape:window-y="25"
     inkscape:window-maximized="0"
     inkscape:current-layer="layer1"
     inkscape:showpageshadow="2"
     inkscape:deskcolor="#d1d1d1" />
  <defs
     id="defs46740" />
  <g
     inkscape:label="Layer 1"
     inkscape:groupmode="layer"
     id="layer1"
     transform="translate(-8.2831676e-8,-0.41307369)">
    <rect
       style="font-variation-settings:normal;vector-effect:none;fill:#4f286c;fill-opacity:0.00024073;stroke:none;stroke-width:0.46632;stroke-linecap:butt;stroke-linejoin:miter;stroke-miterlimit:4;stroke-dasharray:none;stroke-dashoffset:0;stroke-opacity:1;-inkscape-stroke:none;stop-color:#000000"
       id="rect56428-3-8-9-5-7-8-7"
       width="50"
       height="50"
       x="0"
       y="0"
       inkscape:export-filename="/home/joo/Projects/brochain/exports/light on transparency/3x/brobadge_3x.png"
       inkscape:export-xdpi="101.6"
       inkscape:export-ydpi="101.6" />
    <path
       style="fill:#4f239e;fill-opacity:1;stroke:none;stroke-width:0.698699;stroke-linecap:square;paint-order:markers fill stroke;stop-color:#000000"
       d="m 30.80317,25.879421 c 0.05869,0.256005 0.07027,0.520507 0.03409,0.779787 -0.01795,0.128917 -0.04773,0.256464 -0.08915,0.381049 -0.08284,0.24918 -0.212495,0.486332 -0.389106,0.698031 -0.04112,0.04958 -0.0848,0.09749 -0.131137,0.143985 l -0.979605,0.982598 c -0.390969,0.392157 -0.892985,0.601881 -1.402605,0.629055 l 2.872016,2.880773 c 0.147457,-0.117065 0.289965,-0.243694 0.42632,-0.380462 l 1.729006,-1.734282 0.474719,-0.476163 c 0.05784,-0.05798 0.113933,-0.117055 0.167584,-0.177778 0.0028,-0.0029 0.0055,-0.0059 0.0082,-0.0088 0.05245,-0.05808 0.103212,-0.117358 0.152235,-0.177455 0.0014,-0.002 0.0026,-0.0029 0.004,-0.0049 9.75e-4,-9.78e-4 0.0019,-0.0029 0.0029,-0.0039 0.01521,-0.01799 0.02962,-0.03667 0.04405,-0.05525 l -6.89e-4,-6.84e-4 c 1.395436,-1.769435 1.384725,-4.274929 -0.03351,-6.03216 l -2.053647,2.059917 c -0.240916,0.241651 -0.52966,0.406815 -0.836,0.496208 z"
       id="path81669-5-4"
       inkscape:export-filename="/home/joo/Projects/brochain/exports/light on transparency/3x/brobadge_3x.png"
       inkscape:export-xdpi="101.6"
       inkscape:export-ydpi="101.6" />
    <path
       style="fill:#4f239e;fill-opacity:1;stroke:none;stroke-width:0.698699;stroke-linecap:square;paint-order:markers fill stroke;stop-color:#000000"
       d="m 28.599842,19.386041 -4e-6,3.010276 c 0.01006,-0.01046 0.01976,-0.02122 0.03006,-0.03158 l 2.044635,-2.050872 C 30.050709,19.830496 29.3378,19.521473 28.599922,19.386093 Z"
       id="path15139-53-5-4"
       inkscape:export-filename="/home/joo/Projects/brochain/exports/light on transparency/3x/brobadge_3x.png"
       inkscape:export-xdpi="101.6"
       inkscape:export-ydpi="101.6" />
    <path
       id="rect887-9-6-3-6-3"
       style="fill:#b553ff;fill-opacity:1;stroke:none;stroke-width:0.698698;stroke-linecap:square;paint-order:markers fill stroke;stop-color:#000000"
       d="m 31.645638,13.403603 c -1.736625,1.741919 -1.87777,4.460217 -0.423581,6.360934 l 2.055019,-2.061296 c 0.255061,-0.255838 0.563741,-0.425882 0.890264,-0.510943 -0.114466,-0.66458 0.08446,-1.37192 0.598147,-1.887175 l 0.892619,-0.895347 0.08699,-0.08722 c 0.02376,-0.02386 0.04793,-0.04674 0.07279,-0.06884 0.0047,-0.0039 0.0093,-0.0088 0.01392,-0.01281 0.02499,-0.02229 0.05068,-0.0439 0.07605,-0.06522 3.5e-4,-2.93e-4 6.24e-4,-6.94e-4 9.65e-4,-9.68e-4 9.1e-4,-7.43e-4 0.002,-9.78e-4 0.0029,-0.002 0.02352,-0.01946 0.04751,-0.03794 0.07193,-0.05593 0.006,-0.0049 0.01197,-0.0088 0.01794,-0.01389 0.02474,-0.01789 0.04946,-0.03569 0.07464,-0.05251 0.0049,-0.0039 0.01042,-0.0059 0.0153,-0.0098 0.02454,-0.01633 0.04947,-0.03188 0.07466,-0.04694 0.0021,-9.78e-4 0.0042,-0.0029 0.0067,-0.0039 8.75e-4,-4.99e-4 0.0019,-9.78e-4 0.0027,-0.002 0.02601,-0.01506 0.05196,-0.02973 0.07816,-0.04381 0.01082,-0.0049 0.02091,-0.01125 0.03175,-0.01653 0.01324,-0.0059 0.02569,-0.0133 0.03898,-0.01946 0.02424,-0.01183 0.04873,-0.02327 0.07326,-0.03422 0.01057,-0.0049 0.02177,-0.0098 0.03255,-0.01408 0.01425,-0.0059 0.02837,-0.01203 0.04272,-0.0177 0.02324,-0.0088 0.04668,-0.01829 0.0701,-0.02679 4.61e-4,-1.76e-4 9.06e-4,-4.3e-4 0.0014,-5.87e-4 0.0134,-0.0049 0.02737,-0.0088 0.04115,-0.01379 0.01041,-0.0039 0.02082,-0.0068 0.03138,-0.01017 0.01751,-0.0049 0.03442,-0.01076 0.0517,-0.01574 0.0211,-0.0059 0.04227,-0.01183 0.06345,-0.01731 0.01708,-0.0049 0.03472,-0.0088 0.05212,-0.01261 0.0089,-0.002 0.01767,-0.0039 0.02648,-0.0059 0.03579,-0.0078 0.07194,-0.01477 0.107969,-0.02063 0.0019,-5.57e-4 0.0046,-4.2e-4 0.0064,-9.68e-4 5.85e-4,-9.8e-5 0.0012,-1.08e-4 0.0017,-2.84e-4 0.01802,-0.0029 0.03602,-0.0059 0.05405,-0.0078 0.0084,-0.002 0.01751,-0.002 0.02628,-0.0029 0.03472,-0.0039 0.06939,-0.0078 0.10422,-0.01027 0.0029,-1.37e-4 0.0058,-2.74e-4 0.0086,-3.42e-4 0.0014,-1.17e-4 0.0028,-6.9e-5 0.0042,-6.9e-5 0.06233,-0.0039 0.124886,-0.0049 0.187304,-0.0039 0.0015,-6.8e-5 0.0028,-6.8e-5 0.0042,-6.8e-5 0.0011,2.9e-5 0.0024,3.42e-4 0.0036,4.79e-4 0.06418,0.002 0.128304,0.0068 0.192198,0.01398 0.04331,0.0049 0.08669,0.01154 0.129703,0.01926 0.02151,0.0039 0.04286,0.0078 0.06426,0.01261 0.392611,0.08331 0.766734,0.277771 1.072863,0.584838 l 0.979606,0.982588 c 0.306129,0.307066 0.500023,0.682327 0.583059,1.076136 0.0045,0.02151 0.0087,0.04293 0.01254,0.06444 0.0077,0.04312 0.01412,0.08664 0.0192,0.1301 0.0075,0.06405 0.01217,0.128388 0.01391,0.192788 2.6e-5,9.78e-4 3.45e-4,0.002 4.82e-4,0.0039 -6.8e-5,9.78e-4 -6.8e-5,0.0029 -6.8e-5,0.0039 0.0015,0.06268 8.2e-5,0.125337 -0.0039,0.187869 -1.17e-4,9.78e-4 -6.9e-5,0.0029 -6.9e-5,0.0039 -1.38e-4,0.0029 -2.76e-4,0.0059 -3.45e-4,0.0088 -0.0024,0.03491 -0.006,0.06972 -0.0102,0.104539 -7.58e-4,0.0088 -0.0019,0.0176 -0.0031,0.0263 -0.0023,0.01819 -0.005,0.03618 -0.0079,0.05417 -9e-5,5.97e-4 -1.03e-4,9.78e-4 -2.75e-4,0.002 -5.52e-4,0.002 -4.14e-4,0.0049 -9.66e-4,0.0068 -0.0058,0.03618 -0.01289,0.07236 -0.02056,0.108294 -0.002,0.0088 -0.0037,0.0177 -0.0057,0.0266 -0.0038,0.0176 -0.0082,0.03491 -0.01255,0.05231 -0.0054,0.02132 -0.01119,0.04244 -0.01726,0.06366 -0.005,0.01741 -0.01026,0.03462 -0.0157,0.05183 -0.0034,0.01037 -0.0067,0.02093 -0.01023,0.03139 -0.0043,0.01398 -0.0089,0.02758 -0.01371,0.04126 -1.66e-4,4.7e-4 -4.21e-4,9e-4 -5.72e-4,9.78e-4 -0.0084,0.02347 -0.01743,0.04703 -0.02667,0.07031 -0.0058,0.01418 -0.01165,0.02855 -0.01762,0.04283 -0.0043,0.01125 -0.0093,0.02181 -0.01414,0.03256 -0.01081,0.02464 -0.02228,0.04918 -0.03411,0.07353 -0.0062,0.0132 -0.01251,0.0264 -0.01941,0.03911 -0.0053,0.01076 -0.01052,0.02161 -0.01645,0.03188 -0.01394,0.0264 -0.02851,0.05251 -0.04369,0.07842 -5.03e-4,8.7e-4 -0.0011,0.002 -0.0016,0.0029 -0.0013,0.002 -0.0028,0.0039 -0.0039,0.0068 -0.01526,0.02503 -0.03068,0.05016 -0.04681,0.0749 -0.0035,0.0049 -0.0062,0.01046 -0.0098,0.01535 -0.01685,0.02523 -0.03432,0.05016 -0.05231,0.0749 -0.0046,0.0059 -0.0092,0.01203 -0.0138,0.01799 -0.01841,0.02405 -0.0369,0.04811 -0.05581,0.07216 -7.38e-4,9.19e-4 -0.0014,0.002 -0.0021,0.0029 -2.89e-4,3.52e-4 -6.84e-4,6.26e-4 -9.65e-4,9.68e-4 -0.02122,0.02542 -0.0428,0.05124 -0.06501,0.07627 -0.0042,0.0049 -0.0085,0.0088 -0.01274,0.01398 -0.0221,0.02493 -0.0449,0.04919 -0.06866,0.07304 l -0.08699,0.08722 -0.892619,0.895346 c -0.545338,0.546996 -1.306646,0.738513 -2.003494,0.575402 -0.09053,0.299068 -0.252895,0.580682 -0.488037,0.816543 l -2.066774,2.073079 c 1.898837,1.552993 4.682717,1.441071 6.454045,-0.335658 l 1.504675,-1.509265 0.699048,-0.701179 c 0.02925,-0.02933 0.05786,-0.05896 0.086,-0.08898 3.21e-4,-3.33e-4 6.59e-4,-6.46e-4 9.65e-4,-9.68e-4 0.0017,-0.002 0.0032,-0.0039 0.0049,-0.0049 0.02696,-0.02846 0.05315,-0.0575 0.07924,-0.08634 0.02505,-0.02787 0.05013,-0.05583 0.07432,-0.08419 0.0082,-0.0098 0.01625,-0.01907 0.02438,-0.02855 0.01953,-0.02239 0.03825,-0.04527 0.05699,-0.06825 0.0018,-0.002 0.0034,-0.0039 0.0051,-0.0059 0.0045,-0.0059 0.0086,-0.01134 0.01351,-0.01633 0.01651,-0.02073 0.03302,-0.04146 0.04943,-0.06199 0.01086,-0.01369 0.02168,-0.02728 0.03181,-0.04156 0.01462,-0.01878 0.02852,-0.03833 0.04293,-0.0572 0.0097,-0.01242 0.01865,-0.02562 0.02828,-0.03804 0.01247,-0.01662 0.02421,-0.03393 0.03625,-0.05085 0.01029,-0.01447 0.02059,-0.02894 0.03083,-0.04342 0.01389,-0.02083 0.02848,-0.04097 0.04213,-0.0619 0.0081,-0.01222 0.01611,-0.02445 0.02416,-0.03667 0.0099,-0.01545 0.01972,-0.0308 0.02975,-0.04606 0.01249,-0.01946 0.02473,-0.03892 0.03686,-0.05857 0.0069,-0.01105 0.01376,-0.0221 0.02064,-0.03315 0.01335,-0.02171 0.02632,-0.04371 0.03922,-0.06561 9.75e-4,-0.002 0.0021,-0.0029 0.0034,-0.0049 0.0058,-0.01007 0.01165,-0.01995 0.0175,-0.03002 0.01148,-0.01985 0.02296,-0.0398 0.03407,-0.05974 0.0012,-0.002 0.0025,-0.0039 0.0035,-0.0059 0.01649,-0.03041 0.03299,-0.06033 0.049,-0.09074 0.0012,-0.002 0.0019,-0.0049 0.0035,-0.0059 0.01726,-0.03295 0.03412,-0.0662 0.05058,-0.09942 0.01609,-0.03256 0.03169,-0.06542 0.04706,-0.09822 0.01003,-0.02112 0.01962,-0.04253 0.0292,-0.06385 0.0071,-0.01545 0.01418,-0.031 0.02095,-0.04664 8.83e-4,-0.002 0.0016,-0.0039 0.0022,-0.0068 0.0046,-0.01017 0.0084,-0.02083 0.01291,-0.0311 0.009,-0.02141 0.01826,-0.04263 0.02705,-0.06405 0.0064,-0.01477 0.01201,-0.03012 0.01803,-0.04518 0.0094,-0.02347 0.01869,-0.04694 0.02762,-0.0706 0.0011,-0.0029 0.0021,-0.0049 0.0032,-0.0078 0.0027,-0.0068 0.0047,-0.01437 0.0074,-0.02132 0.0078,-0.02171 0.01602,-0.04302 0.02368,-0.06463 0.0077,-0.02171 0.0151,-0.04361 0.02252,-0.06542 0.0043,-0.01398 0.0094,-0.02738 0.01392,-0.04107 0.0063,-0.02024 0.01307,-0.03999 0.01938,-0.05994 0.0052,-0.01486 0.0095,-0.03041 0.01413,-0.04557 0.0067,-0.02229 0.01319,-0.04449 0.01959,-0.06679 0.004,-0.01369 0.0079,-0.02757 0.01177,-0.04126 0.0059,-0.02102 0.01183,-0.04205 0.01742,-0.06307 0.0038,-0.01486 0.0076,-0.02963 0.01135,-0.04439 0.0055,-0.02171 0.01105,-0.04332 0.01629,-0.06502 0.0033,-0.01437 0.0067,-0.02865 0.01,-0.04303 0.0054,-0.02357 0.01084,-0.04694 0.01587,-0.0705 2.06e-4,-9.78e-4 4.82e-4,-0.002 4.13e-4,-0.0029 3.45e-4,-0.0029 0.0013,-0.0059 0.0017,-0.0088 0.0069,-0.03237 0.01337,-0.06502 0.01957,-0.09749 0.0067,-0.0354 0.01302,-0.07089 0.019,-0.106319 0.0061,-0.03628 0.01202,-0.07246 0.01726,-0.108852 0.0051,-0.03481 0.0095,-0.06962 0.01369,-0.104578 0.0044,-0.03569 0.0084,-0.07138 0.01194,-0.107121 0.0036,-0.03569 0.0066,-0.07148 0.0094,-0.107307 0.0022,-0.02933 0.0041,-0.05867 0.0058,-0.088 6.89e-4,-0.0059 7.58e-4,-0.0132 0.0014,-0.01946 0,-0.0039 6.89e-4,-0.0078 6.89e-4,-0.01173 0.0011,-0.02112 0.002,-0.04234 0.0029,-0.06346 6.21e-4,-0.01613 0.0011,-0.03217 0.0016,-0.0483 7.58e-4,-0.02581 0.0014,-0.05143 0.0018,-0.07725 6.89e-4,-0.0049 0,-0.0098 2.06e-4,-0.01428 0,-0.0039 0,-0.0098 0,-0.01408 2.08e-4,-0.02562 2.08e-4,-0.05134 0,-0.07705 0,-0.0059 0,-0.01105 0,-0.01643 0,-0.0039 0,-0.0098 -3.44e-4,-0.01418 -3.45e-4,-0.02748 -9.65e-4,-0.05486 -0.0018,-0.08233 0,-0.0039 0,-0.0068 0,-0.01105 0,-0.0068 -1.38e-4,-0.01398 -7.59e-4,-0.02044 -9.65e-4,-0.0263 -0.0023,-0.05251 -0.0037,-0.07881 0,-0.0029 0,-0.0059 0,-0.0078 -6.89e-4,-0.0049 -6.89e-4,-0.0088 -0.0013,-0.01369 -0.0019,-0.03119 -0.0039,-0.06239 -0.0062,-0.09358 -0.0028,-0.03579 -0.0058,-0.07168 -0.0094,-0.107307 -0.0036,-0.03569 -0.0076,-0.07148 -0.01192,-0.107101 -0.0042,-0.03413 -0.0086,-0.06796 -0.01351,-0.102056 -1.5e-5,-9.77e-4 -6.9e-4,-0.0039 -6.9e-4,-0.0049 -0.0052,-0.03559 -0.01089,-0.07109 -0.01682,-0.106475 -0.005,-0.02963 -0.01034,-0.05906 -0.01585,-0.08869 -0.0014,-0.0059 -0.002,-0.01173 -0.0032,-0.0177 -1.45e-4,-7.72e-4 -2e-5,-9.77e-4 -6.89e-4,-0.002 -0.0058,-0.02992 -0.01192,-0.05994 -0.01827,-0.08976 -6.89e-4,-0.0049 -0.002,-0.0088 -0.0029,-0.01398 -1.18e-4,-5.37e-4 -2.83e-4,-9.77e-4 -1.03e-4,-9.77e-4 -0.0074,-0.03471 -0.01531,-0.06923 -0.0235,-0.103787 -0.0077,-0.03246 -0.01606,-0.06493 -0.02447,-0.09729 -6.89e-4,-0.002 -0.0014,-0.0059 -0.002,-0.0078 -1.86e-4,-9.78e-4 -6.89e-4,-0.002 -0.0014,-0.0039 -0.0077,-0.02933 -0.01578,-0.05857 -0.02413,-0.08781 -0.0014,-0.0039 -0.0027,-0.0078 -0.0032,-0.01291 -6.89e-4,-0.002 -0.002,-0.0049 -0.002,-0.0078 -0.0076,-0.0263 -0.0153,-0.05251 -0.0233,-0.07881 -0.0036,-0.01193 -0.0074,-0.02376 -0.01116,-0.03549 -0.0079,-0.02513 -0.016,-0.05007 -0.02426,-0.0751 -0.0014,-0.0039 -0.002,-0.0078 -0.0038,-0.01076 -0.0014,-0.0029 -0.002,-0.0059 -0.0034,-0.0088 -0.01062,-0.03139 -0.02144,-0.06287 -0.03274,-0.09407 -2.7e-5,-7.9e-5 -1.65e-4,-1.28e-4 -1.93e-4,-1.96e-4 -0.01103,-0.03051 -0.0224,-0.06121 -0.03412,-0.09162 -6.89e-4,-0.0039 -0.0027,-0.0068 -0.0036,-0.01056 -0.002,-0.0049 -0.0042,-0.0098 -0.0062,-0.01457 -0.02454,-0.06288 -0.05034,-0.125446 -0.07758,-0.187479 -0.07355,-0.167394 -0.156925,-0.331356 -0.250389,-0.491299 -0.03737,-0.06385 -0.07641,-0.127117 -0.116958,-0.189639 -0.0162,-0.02591 -0.03344,-0.05095 -0.05053,-0.07627 -0.0064,-0.0088 -0.01289,-0.01848 -0.01868,-0.02846 -0.01634,-0.02327 -0.03239,-0.04703 -0.04901,-0.0703 -0.0029,-0.0039 -0.0049,-0.0078 -0.008,-0.01076 -0.0023,-0.0029 -0.0048,-0.0059 -0.0068,-0.0098 -0.01868,-0.02562 -0.03729,-0.05153 -0.05638,-0.07705 -0.0012,-0.002 -0.0023,-0.0029 -0.0035,-0.0049 -0.0012,-0.002 -0.0023,-0.0029 -0.0035,-0.0049 -0.02081,-0.02777 -0.0424,-0.05495 -0.06384,-0.08263 -6e-4,-7.82e-4 -0.0011,-0.002 -0.0017,-0.0029 -0.11671,-0.147906 -0.242953,-0.290855 -0.379308,-0.427623 l -2.203906,-2.210182 c -0.136356,-0.136769 -0.278867,-0.263397 -0.426321,-0.380462 -7.86e-4,-5.97e-4 -0.0017,-9.78e-4 -0.0024,-0.002 -0.02723,-0.02181 -0.05432,-0.04342 -0.08232,-0.06405 -0.0016,-9.78e-4 -0.0031,-0.002 -0.0047,-0.0039 -0.0016,-9.78e-4 -0.0031,-0.002 -0.0048,-0.0039 -0.02572,-0.01887 -0.05136,-0.03765 -0.07679,-0.05652 -0.0032,-0.002 -0.0062,-0.0049 -0.0096,-0.0068 -0.004,-0.0029 -0.0069,-0.0059 -0.01075,-0.0078 -0.02337,-0.01652 -0.04667,-0.03295 -0.0701,-0.04918 -0.0093,-0.0068 -0.01841,-0.01291 -0.02833,-0.01877 -0.0253,-0.01711 -0.05053,-0.03413 -0.07603,-0.05065 -0.06231,-0.04068 -0.125361,-0.07979 -0.18906,-0.11732 -0.159483,-0.09377 -0.32295,-0.177348 -0.489807,-0.251155 -0.06184,-0.02728 -0.12421,-0.05319 -0.186911,-0.07783 -0.0049,-0.002 -0.0097,-0.0039 -0.01454,-0.0059 -0.0041,-9.77e-4 -0.0069,-0.0029 -0.01048,-0.0039 -0.03033,-0.01173 -0.0608,-0.02308 -0.09127,-0.03413 -7.6e-5,-3.9e-5 -1.17e-4,-1.76e-4 -1.93e-4,-1.95e-4 -0.03116,-0.01134 -0.06252,-0.0222 -0.09382,-0.03285 -0.0027,-9.78e-4 -0.0062,-0.002 -0.0083,-0.0029 -0.0041,-9.78e-4 -0.0076,-0.002 -0.01068,-0.0039 -0.02489,-0.0088 -0.04984,-0.01652 -0.07486,-0.024348 -0.01192,-0.00391 -0.02364,-0.00782 -0.03543,-0.011245 -0.02613,-0.00782 -0.05232,-0.015841 -0.07858,-0.02337 -0.002,-6.943e-4 -0.0048,-0.00196 -0.0076,-0.00196 -0.0041,-9.778e-4 -0.0083,-0.00293 -0.01289,-0.00293 -0.02923,-0.00782 -0.05832,-0.016427 -0.08754,-0.024152 -0.0012,-1.858e-4 -0.002,-6.844e-4 -0.0041,-9.778e-4 -0.002,-6.943e-4 -0.0056,-9.778e-4 -0.0076,-0.00196 -0.03226,-0.0088 -0.06459,-0.016819 -0.09699,-0.024544 -0.0344,-0.00782 -0.06886,-0.016134 -0.103468,-0.023566 -5.24e-4,-1.173e-4 -0.0011,-2.836e-4 -0.0013,-9.78e-5 -0.0048,-6.942e-4 -0.009,-0.00196 -0.01392,-0.00293 -0.02978,-0.00684 -0.05977,-0.012516 -0.08954,-0.018285 -7.85e-4,-1.564e-4 -0.0014,-2.93e-5 -0.002,-6.943e-4 -0.0056,-9.778e-4 -0.01172,-0.00196 -0.01765,-0.00293 -0.02943,-0.00587 -0.05887,-0.010952 -0.08837,-0.015939 -0.03695,-0.00587 -0.07389,-0.012321 -0.110844,-0.017699 -0.03385,-0.00489 -0.06776,-0.00978 -0.101744,-0.013592 -0.0355,-0.00391 -0.0712,-0.0088 -0.106777,-0.01193 -0.03557,-0.00391 -0.07128,-0.00684 -0.106983,-0.00978 -0.03109,-0.00196 -0.06218,-0.00489 -0.09326,-0.00587 -0.0048,-6.943e-4 -0.009,-6.943e-4 -0.01365,-9.778e-4 -0.0027,0 -0.0056,0 -0.0083,0 -0.02619,-9.779e-4 -0.05239,-0.00293 -0.07858,-0.00391 -0.0069,0 -0.01331,-8.996e-4 -0.0204,-8.312e-4 -0.0041,0 -0.0069,0 -0.01103,0 -0.02736,-8.996e-4 -0.05473,-9.778e-4 -0.0821,-0.00196 -0.0049,-6.844e-4 -0.0097,0 -0.01414,-3.422e-4 -0.0056,0 -0.01102,0 -0.01641,0 -0.02557,-2.053e-4 -0.05122,-2.053e-4 -0.07679,0 -0.0041,0 -0.0097,0 -0.01406,0 -0.0048,6.943e-4 -0.0097,0 -0.01427,2.054e-4 -0.02572,3.52e-4 -0.05136,9.778e-4 -0.07699,0.00196 -0.01607,4.889e-4 -0.03212,9.681e-4 -0.04819,0.00196 -0.02109,8.311e-4 -0.04218,0.00196 -0.06328,0.00293 -0.0041,0 -0.0076,6.845e-4 -0.01172,6.845e-4 -0.0062,6.943e-4 -0.01317,7.627e-4 -0.01944,9.778e-4 -0.0293,0.00196 -0.05852,0.00391 -0.08775,0.00587 -0.03571,0.00293 -0.07134,0.00587 -0.106983,0.00978 -0.03557,0.00391 -0.07127,0.00782 -0.10679,0.012027 -0.03474,0.00391 -0.06952,0.0088 -0.10426,0.01369 -7.88e-4,1.075e-4 -0.0016,2.444e-4 -0.002,6.942e-4 -0.03547,0.00489 -0.07084,0.010854 -0.106191,0.016916 -0.03384,0.00587 -0.06752,0.011832 -0.101323,0.018285 -0.0016,2.64e-4 -0.0032,4.204e-4 -0.0049,6.942e-4 -2.03e-4,3.91e-5 -3.89e-4,1.565e-4 -5.92e-4,1.956e-4 -0.02681,0.00489 -0.05378,0.010658 -0.08051,0.01633 -0.0084,9.778e-4 -0.01665,0.00293 -0.02449,0.00489 -0.0017,3.716e-4 -0.0034,6.943e-4 -0.0052,9.778e-4 -0.02272,0.00489 -0.04549,0.010072 -0.0682,0.015352 -0.01432,0.00293 -0.02861,0.00684 -0.04292,0.00997 -0.02164,0.00489 -0.04326,0.010756 -0.06482,0.01633 -0.01479,0.00391 -0.02953,0.00782 -0.0443,0.011343 -0.02103,0.00587 -0.04191,0.011636 -0.06292,0.017503 -0.01362,0.00391 -0.02747,0.00782 -0.04113,0.011832 -0.0222,0.00684 -0.04449,0.012809 -0.06661,0.019654 -0.01541,0.00489 -0.0303,0.00978 -0.04543,0.014179 -0.02003,0.0059 -0.03985,0.01291 -0.05977,0.01946 -0.01393,0.0039 -0.0273,0.0088 -0.04094,0.01398 -0.02176,0.0078 -0.04359,0.01486 -0.06526,0.02259 -0.02158,0.0078 -0.04299,0.01574 -0.06449,0.02376 -0.0068,0.0029 -0.01433,0.0049 -0.02119,0.0078 -0.0024,9.78e-4 -0.0049,0.002 -0.0074,0.0029 -0.02354,0.0088 -0.04695,0.01828 -0.07035,0.02767 -0.01533,0.0059 -0.03008,0.01193 -0.04506,0.01809 -0.02126,0.0088 -0.04262,0.01799 -0.06386,0.02709 -0.01009,0.0049 -0.02078,0.0088 -0.03097,0.01291 -0.002,8.8e-4 -0.0043,0.002 -0.0064,0.002 -0.01532,0.0068 -0.03094,0.01408 -0.04645,0.02102 -0.02095,0.01 -0.04247,0.01936 -0.06367,0.02924 -0.03273,0.01545 -0.0655,0.031 -0.09793,0.04723 -3.37e-4,1.76e-4 -6.4e-4,4.21e-4 -9.52e-4,5.67e-4 -0.02419,0.01183 -0.048,0.02435 -0.07191,0.03677 -0.0087,0.0049 -0.01729,0.0088 -0.026,0.01359 -0.0021,9.78e-4 -0.0046,0.002 -0.0062,0.0039 -0.03029,0.01604 -0.06048,0.03246 -0.09049,0.04918 -0.0021,9.78e-4 -0.0039,0.0029 -0.0062,0.0039 -0.01966,0.01144 -0.03975,0.02269 -0.05958,0.03422 -0.01,0.0059 -0.01992,0.01164 -0.02991,0.0176 -0.0018,9.78e-4 -0.0034,0.002 -0.0048,0.0039 -0.0222,0.01261 -0.04372,0.02601 -0.06541,0.03931 -0.01101,0.0068 -0.02201,0.01379 -0.03305,0.02073 -0.01929,0.01242 -0.03898,0.02445 -0.05836,0.03696 -0.01534,0.0099 -0.03071,0.01975 -0.04589,0.02982 -0.01219,0.0078 -0.02435,0.01613 -0.03657,0.02425 -0.02069,0.01389 -0.04148,0.02777 -0.06171,0.04224 -0.01437,0.01027 -0.02882,0.02063 -0.04323,0.0309 -0.01723,0.01173 -0.03379,0.02425 -0.05073,0.03638 -0.01239,0.0098 -0.0255,0.01868 -0.03793,0.02836 -0.01937,0.01389 -0.03809,0.02855 -0.05699,0.04302 -0.01358,0.01085 -0.02784,0.02102 -0.04146,0.03188 -0.02056,0.01653 -0.0412,0.03305 -0.06184,0.04958 -0.0055,0.0049 -0.0113,0.0088 -0.01627,0.01359 -0.002,0.002 -0.0042,0.0029 -0.0062,0.0049 -0.02286,0.01877 -0.04573,0.03755 -0.06802,0.0572 -0.0096,0.0078 -0.019,0.01633 -0.02851,0.02445 -0.02834,0.02425 -0.05616,0.04938 -0.08397,0.07451 -0.02885,0.02621 -0.0578,0.05241 -0.08613,0.0795 -0.0018,0.002 -0.0035,0.0029 -0.0053,0.0049 -3.33e-4,3.13e-4 -6.41e-4,6.65e-4 -9.65e-4,9.68e-4 -0.02976,0.02845 -0.05951,0.05691 -0.08876,0.08624 l -0.699048,0.701179 z"
       inkscape:export-filename="/home/joo/Projects/brochain/exports/light on transparency/3x/brobadge_3x.png"
       inkscape:export-xdpi="101.6"
       inkscape:export-ydpi="101.6" />
    <path
       style="fill:#b553ff;fill-opacity:1;stroke:none;stroke-width:0.698699;stroke-linecap:square;paint-order:markers fill stroke;stop-color:#000000"
       d="m 12.598163,32.509189 c -1.890355,1.896112 -1.890345,4.949042 -9e-6,6.845154 l 2.203722,2.210444 c 1.890355,1.896112 4.93399,1.896102 6.824336,-1e-5 l 2.203716,-2.210444 c 1.753997,-1.759344 1.880267,-4.514505 0.379315,-6.417521 l -2.049133,2.0554 c -0.248383,0.249131 -0.547653,0.416974 -0.864811,0.504265 0.141022,0.684283 -0.05372,1.423196 -0.585214,1.956346 l -0.97961,0.982588 c -0.840157,0.84272 -2.192706,0.84272 -3.032863,0 l -0.979609,-0.982588 c -0.840147,-0.84271 -0.840147,-2.199404 0,-3.042114 l 0.979609,-0.982598 c 0.531529,-0.53315 1.268205,-0.728441 1.950407,-0.586999 0.08705,-0.318106 0.254349,-0.618309 0.502731,-0.867439 l 2.04914,-2.05539 c -1.897229,-1.505539 -4.644011,-1.378882 -6.398005,0.380462 z"
       id="rect887-9-58-0-0"
       inkscape:export-filename="/home/joo/Projects/brochain/exports/light on transparency/3x/brobadge_3x.png"
       inkscape:export-xdpi="101.6"
       inkscape:export-ydpi="101.6" />
    <path
       style="fill:#b553ff;fill-opacity:1;stroke:none;stroke-width:0.698699;stroke-linecap:square;paint-order:markers fill stroke;stop-color:#000000"
       d="m 27.170783,29.82316 c -0.09161,0.183293 -0.211879,0.355606 -0.364013,0.508205 l -2.047771,2.054022 c 1.557097,1.226868 3.681407,1.358611 5.360405,0.395384 l -2.228801,-2.235594 z"
       id="path80566-4-6-7"
       inkscape:export-filename="/home/joo/Projects/brochain/exports/light on transparency/3x/brobadge_3x.png"
       inkscape:export-xdpi="101.6"
       inkscape:export-ydpi="101.6" />
    <path
       style="fill:#b553ff;fill-opacity:1;stroke:none;stroke-width:0.698699;stroke-linecap:square;paint-order:markers fill stroke;stop-color:#000000"
       d="m 19.889172,25.034775 c -0.694661,0.696779 -0.746679,1.766482 -0.116564,2.398519 l 1.952357,1.958312 2.072448,-2.07878 c 0.246189,-0.24694 0.54251,-0.41321 0.856571,-0.501116 -0.0013,-0.0039 -0.0018,-0.0078 -0.0029,-0.01242 -0.0012,-0.0059 -0.0024,-0.01134 -0.0033,-0.01672 -0.0055,-0.02758 -0.01031,-0.05505 -0.0147,-0.08272 -8.28e-4,-0.0059 -0.002,-0.01222 -0.0029,-0.01829 -0.0041,-0.02767 -0.0077,-0.05534 -0.01075,-0.08311 -8.26e-4,-0.0059 -0.0016,-0.01222 -0.0021,-0.01828 -0.0031,-0.0307 -0.0055,-0.06131 -0.0072,-0.09221 -2.76e-4,-0.0029 -4.83e-4,-0.0049 -3.44e-4,-0.0078 -0.0015,-0.0264 -0.002,-0.0527 -0.0025,-0.0792 -4.13e-4,-0.0088 -5.57e-4,-0.01799 -5.99e-4,-0.02689 -1.73e-4,-0.03217 3.16e-4,-0.06444 0.0016,-0.09671 0.0012,-0.03031 0.003,-0.06053 0.0055,-0.09084 5.5e-4,-0.0049 8.26e-4,-0.0088 0.0013,-0.01369 0.0028,-0.03246 0.0066,-0.06473 0.01101,-0.0971 0,-6.16e-4 3.79e-4,-9.78e-4 4.83e-4,-0.002 0.004,-0.02953 0.0088,-0.05887 0.01392,-0.0882 9.66e-4,-0.0049 0.002,-0.01027 0.003,-0.01545 0.0058,-0.03158 0.01235,-0.06327 0.01958,-0.09475 3.79e-4,-9.78e-4 4.14e-4,-0.002 4.83e-4,-0.0029 0.0077,-0.03305 0.01618,-0.0659 0.02545,-0.09868 0.0087,-0.0307 0.0183,-0.06141 0.02838,-0.09182 4.83e-4,-0.0029 0.0018,-0.0059 0.0031,-0.0088 0.0096,-0.02826 0.02002,-0.05632 0.03073,-0.08439 0.0017,-0.0049 0.0036,-0.0088 0.0055,-0.01379 0.01133,-0.02865 0.02327,-0.0572 0.03587,-0.08546 0.0016,-0.0029 0.0021,-0.0059 0.0035,-0.0088 0.01385,-0.0309 0.0286,-0.06151 0.04407,-0.09182 0.0151,-0.02982 0.03121,-0.05926 0.04779,-0.08849 0.0012,-0.002 0.0013,-0.0039 0.0027,-0.0059 0.01727,-0.02973 0.0352,-0.05936 0.05388,-0.08859 0.01807,-0.02777 0.0363,-0.05564 0.05566,-0.08292 0.0019,-0.0029 0.0034,-0.0049 0.0049,-0.0078 0.01775,-0.02474 0.03657,-0.04909 0.05523,-0.07353 0.004,-0.0049 0.0073,-0.01017 0.01105,-0.01525 0.02086,-0.0265 0.04254,-0.05231 0.06511,-0.07774 1.88e-4,-2.15e-4 3.93e-4,-3.61e-4 7.59e-4,-7.62e-4 0.02247,-0.02533 0.04501,-0.05065 0.06915,-0.0749 0.0015,-0.002 0.0032,-0.0039 0.0047,-0.0049 0.0089,-0.0088 0.01729,-0.01868 0.02635,-0.02777 l 0.979606,-0.982588 c 0.46066,-0.462072 1.075303,-0.670359 1.675127,-0.625721 l 2e-6,-3.921737 c -1.285867,-0.04244 -2.585146,0.429353 -3.570868,1.418082 l -1.618705,1.623641 -0.585018,0.586803 c -0.02954,0.02963 -0.05859,0.05955 -0.08696,0.09006 -0.02866,0.03022 -0.05654,0.06082 -0.08432,0.09153 -0.02759,0.03041 -0.0544,0.06151 -0.08111,0.0924 -1.75e-4,2.15e-4 -3.89e-4,3.62e-4 -7.6e-4,7.63e-4 -0.0039,0.0039 -0.0068,0.0088 -0.01033,0.0132 -0.02028,0.02445 -0.04114,0.04821 -0.06132,0.07255 -0.01686,0.02102 -0.03344,0.04185 -0.0502,0.06278 -0.0068,0.0099 -0.01492,0.01917 -0.02271,0.02836 -0.02232,0.02787 -0.04309,0.05701 -0.06463,0.08527 -0.002,0.002 -0.0029,0.0039 -0.0049,0.0059 -0.01911,0.02601 -0.03812,0.05202 -0.05683,0.07813 -0.0049,0.0068 -0.0097,0.01388 -0.01492,0.02044 -0.0156,0.02249 -0.031,0.04498 -0.0464,0.06737 -0.0078,0.01173 -0.01579,0.02278 -0.0233,0.03442 -0.01774,0.02611 -0.03451,0.05261 -0.05157,0.0792 -0.0019,0.0029 -0.0039,0.0068 -0.0058,0.01017 -0.0195,0.03061 -0.0386,0.0616 -0.05742,0.0926 -9.75e-4,0.002 -0.002,0.0039 -0.0029,0.0059 -0.01969,0.03217 -0.03841,0.06493 -0.05703,0.09768 -0.01911,0.03344 -0.03763,0.06708 -0.05586,0.100814 -0.01609,0.03002 -0.03197,0.06014 -0.04738,0.09045 -0.0039,0.0078 -0.0078,0.01662 -0.01306,0.02425 -0.01219,0.02474 -0.02447,0.04918 -0.03646,0.07392 -0.0049,0.0088 -0.0088,0.01877 -0.01355,0.02806 -0.01336,0.02816 -0.02642,0.05652 -0.03919,0.08488 -0.0019,0.0049 -0.0039,0.0088 -0.0058,0.01291 -0.01452,0.03246 -0.02866,0.06503 -0.0425,0.09768 -0.422335,0.02826 -0.850101,0.214389 -1.189242,0.554564 z"
       id="rect887-9-73-80-1-8"
       inkscape:export-filename="/home/joo/Projects/brochain/exports/light on transparency/3x/brobadge_3x.png"
       inkscape:export-xdpi="101.6"
       inkscape:export-ydpi="101.6" />
    <path
       style="fill:#b553ff;fill-opacity:1;stroke:none;stroke-width:0.368246;stroke-linecap:square;paint-order:markers fill stroke;stop-color:#000000"
       d="m 5.9258549,30.146243 c -0.6946602,0.696779 -0.7466881,1.766472 -0.1165728,2.39851 l 4.7753919,4.789959 c -0.3923,-1.45438 -0.16279,-3.039113 0.687876,-4.340903 L 8.3170701,30.029315 C 7.6869646,29.397277 6.6205152,29.449464 5.9258549,30.146243 Z"
       id="rect887-9-7-0-3-3-6"
       inkscape:export-filename="/home/joo/Projects/brochain/exports/light on transparency/3x/brobadge_3x.png"
       inkscape:export-xdpi="101.6"
       inkscape:export-ydpi="101.6" />
    <path
       id="path80417-0-2-8"
       style="color:#000000;fill:#b553ff;fill-opacity:1;stroke-width:0.710437;stroke-linecap:square;-inkscape-stroke:none;paint-order:markers fill stroke"
       d="m 19.652117,32.476569 c -0.495518,0.497019 -0.494738,1.281861 7.8e-4,1.77888 l 0.232365,0.233075 c 0.495508,0.497029 1.277954,0.497811 1.773471,7.82e-4 l 4.646664,-4.660846 c 0.495513,-0.49702 0.49552,-1.282644 6e-6,-1.779663 l -0.232365,-0.233075 c -0.495514,-0.497029 -1.278746,-0.497019 -1.774259,0 z"
       inkscape:export-filename="/home/joo/Projects/brochain/exports/light on transparency/3x/brobadge_3x.png"
       inkscape:export-xdpi="101.6"
       inkscape:export-ydpi="101.6" />
    <path
       id="path81420-4-0-8"
       style="color:#000000;fill:#b553ff;fill-opacity:1;stroke-width:0.710437;stroke-linecap:square;-inkscape-stroke:none;paint-order:markers fill stroke"
       d="m 29.131957,22.868353 c -0.495513,0.497019 -0.495515,1.281069 0,1.778098 l 0.233149,0.233867 c 0.495515,0.497019 1.277184,0.497019 1.772696,-10e-6 l 4.647256,-4.661424 c 0.495512,-0.497029 0.495514,-1.281079 10e-7,-1.778108 l -0.233151,-0.233857 c -0.495514,-0.497029 -1.277183,-0.497029 -1.772696,0 z"
       inkscape:export-filename="/home/joo/Projects/brochain/exports/light on transparency/3x/brobadge_3x.png"
       inkscape:export-xdpi="101.6"
       inkscape:export-ydpi="101.6" />
  </g>
</svg>
