<?xml version="1.0" ?>
<svg xmlns="http://www.w3.org/2000/svg" width="360" height="360" version="1.1">
  <path d="M255,207 L242,212  M242,212 L231,222  M231,222 L226,231  M226,231 L224,248  M224,248 L228,261  M228,261 L238,273  M238,273 L252,280  M252,280 L265,281  M265,281 L280,276  M280,276 L291,266  M291,266 L297,254  M297,254 L298,238  M298,238 L294,226  M294,226 L282,213  M282,213 L267,207 " fill="#008000"/>
  <path d="M217,193 L203,198  M203,198 L191,210  M191,210 L186,222  M186,222 L186,237  M186,237 L197,257  M197,257 L208,264  M208,264 L226,267  M226,267 L221,252  M221,252 L223,229  M223,229 L237,211  M237,211 L250,205  M250,205 L236,195  M236,195 L236,195 " fill="#008000"/>
  <path d="M161,158 L154,166  M154,166 L160,174  M160,174 L153,196  M153,196 L161,199  M161,199 L169,194  M169,194 L167,211  M167,211 L181,212  M181,212 L191,203  M191,203 L207,165  M207,165 L197,165  M197,165 L184,192  M184,192 L180,188  M180,188 L187,167  M187,167 L176,165  M176,165 L172,187  M172,187 L164,192  M164,192 L171,168  M171,168 L165,168  M165,168 L166,160 " fill="#008000"/>
  <path d="M142,158 L137,159  M137,159 L132,167  M132,167 L134,171  M134,171 L139,172  M139,172 L131,190  M131,190 L131,196  M131,196 L135,199  M135,199 L144,197  M144,197 L151,190  M151,190 L150,187  M150,187 L145,192  M145,192 L140,190  M140,190 L149,168  M149,168 L142,167  M142,167 L144,164  M144,164 L144,159  M144,159 L144,159 " fill="#008000"/>
  <path d="M65,154 L49,155  M49,155 L37,167  M37,167 L32,180  M32,180 L32,192  M32,192 L36,198  M36,198 L48,199  M48,199 L60,192  M60,192 L60,187  M60,187 L47,195  M47,195 L40,186  M40,186 L46,167  M46,167 L55,157  M55,157 L62,156  M62,156 L65,159  M65,159 L56,165  M56,165 L55,172  M55,172 L59,174  M59,174 L68,163  M68,163 L68,163 " fill="#008000"/>
  <path d="M74,151 L64,198  M64,198 L74,197  M74,197 L71,192  M71,192 L82,171  M82,171 L86,174  M86,174 L81,198  M81,198 L98,192  M98,192 L113,199  M113,199 L129,190  M129,190 L118,194  M118,194 L107,190  M107,190 L127,175  M127,175 L127,168  M127,168 L119,164  M119,164 L110,167  M110,167 L90,192  M90,192 L96,169  M96,169 L82,165  M82,165 L83,150 " fill="#008000"/>
  <path d="M236,111 L241,128  M241,128 L253,148  M253,148 L272,164  M272,164 L296,171  M296,171 L288,147  M288,147 L275,128  M275,128 L259,116 " fill="#008000"/>
  <path d="M151,114 L97,99  M97,99 L64,108  M64,108 L42,124  M42,124 L18,172  M18,172 L19,202  M19,202 L31,231  M31,231 L22,202  M22,202 L23,174  M23,174 L34,146  M34,146 L55,122  M55,122 L97,104 " fill="#008000"/>
  <path d="M294,103 L249,97  M249,97 L265,71  M265,71 L199,118  M199,118 L49,141  M49,141 L195,127  M195,127 L224,189  M224,189 L203,124  M203,124 L278,206  M278,206 L211,121  M211,121 L241,104  M241,104 L277,113 " fill="#008000"/>
  <path d="M227,57 L225,76  M225,76 L228,87  M228,87 L233,94  M233,94 L220,86  M220,86 L212,86  M212,86 L212,88  M212,88 L221,97  M221,97 L234,100  M234,100 L232,95  M232,95 L238,98  M238,98 L240,93  M240,93 L240,75  M240,75 L235,64 " fill="#008000"/>
</svg>
