<?xml version="1.0" standalone="no"?>
<!DOCTYPE svg PUBLIC "-//W3C//DTD SVG 20010904//EN"
 "http://www.w3.org/TR/2001/REC-SVG-20010904/DTD/svg10.dtd">
<svg version="1.0" xmlns="http://www.w3.org/2000/svg"
 width="233.000000pt" height="130.000000pt" viewBox="0 0 233.000000 130.000000"
 preserveAspectRatio="xMidYMid meet">

<g transform="translate(0.000000,130.000000) scale(0.100000,-0.100000)"
fill="#000000" stroke="none">
<path d="M77 1128 c-6 -4 -15 -4 -19 -2 -5 3 21 -43 57 -101 36 -59 65 -110
65 -115 0 -5 6 -13 14 -17 8 -4 14 -10 14 -13 -2 -12 44 -90 53 -90 6 0 8 -4
5 -9 -3 -5 3 -20 15 -34 11 -15 19 -29 19 -32 -2 -12 54 -105 63 -105 6 0 8
-3 5 -6 -3 -3 23 -56 59 -117 36 -62 79 -136 95 -166 74 -135 140 -221 190
-247 36 -19 106 -17 144 4 42 23 94 68 94 81 0 6 5 11 11 11 5 0 7 5 4 10 -4
6 -1 9 5 8 12 -3 36 32 80 115 23 43 19 63 -10 47 -43 -23 -127 -5 -160 34
-10 13 -16 14 -29 4 -14 -11 -14 -11 -4 3 10 12 6 25 -22 70 -19 29 -41 68
-49 84 -23 46 -52 93 -67 111 -7 9 -14 23 -15 31 -2 8 -13 31 -27 51 -13 21
-41 69 -62 107 -21 39 -50 88 -64 110 -14 22 -32 52 -41 66 -54 93 -75 101
-258 108 -85 3 -159 3 -165 -1z"/>
<path d="M710 1116 c0 -8 7 -21 15 -30 9 -8 16 -19 16 -23 2 -18 79 -154 99
-173 3 -3 6 -12 8 -20 2 -8 9 -22 15 -30 13 -16 14 -17 72 -125 21 -38 43 -76
49 -84 13 -17 29 -45 57 -98 11 -24 26 -43 32 -43 6 0 7 -3 4 -6 -4 -4 2 -19
13 -34 11 -16 20 -30 20 -33 0 -10 75 -132 82 -135 5 -2 6 -8 2 -13 -3 -5 0
-9 5 -9 6 0 10 -4 8 -9 -4 -16 103 -151 136 -171 36 -22 116 -27 150 -8 28 14
94 70 98 83 2 5 15 21 27 35 30 31 92 136 92 154 0 10 -8 11 -38 3 -49 -13
-104 -2 -140 28 -16 13 -33 21 -37 17 -5 -4 -5 -1 -1 6 9 14 -28 65 -39 54 -5
-4 -5 -2 -1 5 4 7 -18 55 -49 108 -30 53 -55 100 -55 105 0 6 -4 10 -8 10 -4
0 -13 12 -20 28 -7 15 -23 45 -37 67 -14 22 -32 55 -42 73 -9 17 -20 32 -23
32 -4 0 -7 6 -7 13 0 8 -14 35 -32 60 -17 26 -29 47 -26 47 3 0 -10 20 -29 46
-19 25 -37 44 -39 42 -3 -2 -15 6 -27 17 -20 18 -38 20 -186 23 -137 2 -164 0
-164 -12z"/>
<path d="M1376 1121 c-3 -5 5 -25 19 -45 14 -20 25 -40 25 -44 0 -5 14 -30 32
-58 17 -27 33 -55 34 -62 1 -7 8 -20 15 -28 6 -8 19 -29 29 -47 l17 -32 184
-3 c216 -3 246 4 307 73 49 56 139 235 124 249 -9 10 -780 7 -786 -3z"/>
<path d="M1821 541 l-31 -30 0 -174 c0 -96 3 -176 6 -179 8 -8 61 20 67 36 11
29 11 370 0 373 -6 2 -25 -10 -42 -26z"/>
<path d="M1985 554 c-8 -9 -15 -12 -15 -7 -1 4 -7 -3 -15 -17 -11 -19 -15 -64
-14 -197 0 -95 4 -175 9 -178 4 -3 19 4 31 14 22 17 24 29 29 127 4 88 8 109
21 112 9 1 20 -8 27 -23 11 -23 108 -154 122 -165 4 -3 15 -21 25 -40 10 -19
20 -29 22 -22 3 6 8 10 13 7 4 -2 16 5 26 16 17 19 19 41 22 200 4 196 2 200
-52 158 -25 -19 -26 -25 -26 -114 0 -62 -4 -96 -12 -101 -6 -4 -14 -2 -16 5
-3 8 -13 22 -23 32 -11 11 -16 19 -13 19 3 0 -8 18 -25 39 -17 21 -31 44 -31
50 0 6 -3 11 -7 11 -5 0 -19 18 -32 40 -29 46 -45 55 -66 34z"/>
</g>
</svg>
