<?xml version="1.0" standalone="no"?>
<!DOCTYPE svg PUBLIC "-//W3C//DTD SVG 20010904//EN"
 "http://www.w3.org/TR/2001/REC-SVG-20010904/DTD/svg10.dtd">
<svg version="1.0" xmlns="http://www.w3.org/2000/svg"
 width="1080.000000pt" height="1080.000000pt" viewBox="0 0 1080.000000 1080.000000"
 preserveAspectRatio="xMidYMid meet">

<g transform="translate(0.000000,1080.000000) scale(0.100000,-0.100000)"
fill="#000000" stroke="none">
<path d="M5115 10494 c-55 -2 -109 -8 -120 -13 -11 -5 -83 -14 -160 -20 -77
-6 -180 -18 -230 -25 -49 -8 -139 -22 -200 -31 -60 -9 -118 -20 -128 -26 -9
-5 -44 -12 -77 -16 -33 -3 -60 -9 -60 -13 0 -4 -28 -12 -62 -18 -78 -14 -144
-31 -183 -47 -16 -7 -51 -16 -77 -19 -27 -4 -48 -11 -48 -16 0 -5 -20 -12 -45
-16 -25 -3 -45 -10 -45 -15 0 -5 -7 -9 -15 -9 -17 0 -125 -35 -170 -55 -16 -7
-43 -17 -59 -21 -16 -4 -41 -13 -55 -20 -14 -8 -34 -14 -43 -14 -10 0 -18 -4
-18 -9 0 -5 -14 -12 -30 -16 -17 -4 -54 -19 -83 -35 -28 -15 -67 -31 -84 -35
-18 -3 -33 -10 -33 -15 0 -4 -12 -11 -27 -15 -15 -3 -30 -10 -33 -13 -8 -11
-114 -62 -128 -62 -6 0 -12 -4 -12 -9 0 -5 -13 -12 -29 -16 -16 -3 -32 -13
-35 -21 -3 -8 -12 -14 -21 -14 -8 0 -15 -4 -15 -9 0 -5 -12 -12 -27 -16 -14
-3 -38 -15 -51 -26 -14 -10 -31 -19 -38 -19 -8 0 -14 -3 -14 -8 0 -4 -20 -18
-45 -32 -25 -14 -45 -28 -45 -31 0 -4 -8 -10 -18 -13 -40 -15 -134 -76 -145
-93 -4 -7 -13 -13 -19 -13 -5 0 -27 -13 -48 -30 -21 -16 -41 -30 -46 -30 -4 0
-14 -7 -23 -15 -15 -14 -76 -63 -129 -103 -12 -9 -39 -32 -60 -49 -20 -18 -40
-33 -44 -33 -4 0 -27 -20 -51 -45 -24 -25 -48 -45 -53 -45 -5 0 -45 -36 -88
-80 -43 -44 -82 -80 -86 -80 -11 0 -150 -140 -183 -184 -16 -20 -58 -65 -93
-99 -35 -34 -64 -66 -64 -71 0 -5 -20 -28 -45 -52 -25 -23 -45 -46 -45 -51 0
-5 -16 -24 -35 -43 -19 -19 -35 -38 -35 -42 0 -4 -8 -17 -17 -27 -10 -11 -31
-38 -48 -61 -16 -22 -41 -53 -55 -68 -14 -15 -32 -40 -40 -56 -8 -15 -25 -38
-37 -50 -13 -11 -23 -27 -23 -34 0 -7 -7 -15 -15 -18 -8 -4 -15 -12 -15 -19 0
-6 -9 -20 -20 -30 -11 -10 -20 -24 -20 -31 0 -7 -13 -28 -28 -46 -15 -18 -33
-44 -40 -58 -13 -27 -34 -62 -42 -70 -6 -6 -29 -46 -48 -82 -7 -16 -17 -28
-22 -28 -5 0 -11 -13 -15 -30 -4 -16 -11 -30 -16 -30 -5 0 -9 -6 -9 -14 0 -7
-7 -19 -14 -26 -8 -6 -20 -28 -27 -48 -7 -20 -15 -39 -18 -42 -7 -6 -99 -194
-132 -270 -13 -30 -27 -56 -31 -58 -5 -2 -8 -14 -8 -26 0 -12 -6 -30 -14 -41
-7 -11 -17 -35 -21 -52 -3 -18 -10 -33 -15 -33 -4 0 -11 -17 -15 -37 -3 -21
-12 -47 -19 -58 -8 -11 -17 -39 -21 -63 -4 -23 -10 -42 -15 -42 -5 0 -11 -18
-15 -40 -4 -22 -10 -42 -15 -45 -4 -3 -11 -26 -15 -52 -4 -27 -10 -50 -15 -53
-7 -5 -28 -90 -52 -212 -7 -32 -15 -58 -19 -58 -4 0 -10 -32 -14 -70 -4 -39
-11 -72 -15 -75 -4 -3 -11 -38 -15 -77 -3 -40 -12 -107 -20 -148 -31 -171 -40
-328 -40 -700 0 -358 13 -615 36 -700 5 -19 14 -88 21 -152 6 -65 15 -118 19
-118 4 0 11 -36 15 -80 3 -44 10 -80 14 -80 5 0 11 -24 15 -52 4 -29 13 -69
20 -88 7 -19 16 -59 20 -88 4 -28 10 -54 15 -57 4 -3 11 -25 14 -50 4 -24 11
-47 16 -50 5 -3 12 -28 16 -55 4 -28 10 -50 14 -50 4 0 10 -15 14 -32 3 -18
13 -46 21 -63 8 -16 17 -47 20 -67 3 -21 10 -38 14 -38 5 0 12 -16 15 -35 4
-19 11 -35 15 -35 5 0 12 -16 15 -35 4 -19 11 -35 16 -35 6 0 10 -8 10 -19 0
-10 9 -40 21 -67 25 -58 116 -253 129 -274 5 -8 21 -40 37 -70 15 -30 31 -56
36 -58 4 -2 7 -8 7 -13 0 -6 23 -48 50 -95 28 -47 50 -88 50 -93 0 -4 16 -28
35 -52 19 -24 35 -48 35 -52 0 -11 43 -71 57 -80 7 -4 13 -14 13 -22 0 -7 3
-15 8 -17 8 -3 52 -64 52 -73 0 -3 8 -14 17 -24 10 -11 32 -38 48 -61 17 -23
38 -49 48 -58 9 -9 17 -20 17 -25 0 -4 13 -22 30 -40 16 -18 30 -35 30 -39 0
-4 16 -22 35 -41 19 -19 35 -38 35 -43 0 -5 30 -38 65 -73 36 -36 65 -68 65
-72 0 -9 306 -316 319 -321 5 -1 39 -31 74 -66 36 -34 69 -62 74 -62 4 0 23
-16 40 -35 18 -19 36 -35 41 -35 4 0 21 -13 37 -30 16 -16 33 -30 38 -30 5 0
24 -16 43 -35 18 -19 35 -35 39 -35 10 0 69 -44 78 -57 4 -7 14 -13 22 -13 7
0 15 -4 17 -8 2 -5 31 -28 65 -52 35 -24 63 -47 63 -51 0 -4 13 -10 29 -14 16
-3 31 -12 34 -18 2 -7 25 -23 51 -35 25 -13 46 -27 46 -30 0 -7 10 -14 66 -42
16 -8 31 -17 34 -20 3 -4 20 -12 38 -19 17 -8 32 -17 32 -21 0 -5 13 -11 30
-15 16 -4 30 -10 30 -14 0 -3 21 -18 48 -31 26 -14 49 -28 52 -31 3 -4 16 -10
30 -14 14 -4 36 -16 49 -26 13 -11 34 -19 47 -19 12 0 24 -3 26 -7 5 -13 236
-123 256 -123 5 0 29 -11 53 -23 24 -13 58 -27 74 -31 17 -4 44 -14 60 -21 45
-20 153 -55 170 -55 8 0 15 -4 15 -9 0 -5 20 -12 45 -15 25 -4 45 -11 45 -15
0 -5 28 -14 63 -21 34 -6 67 -15 72 -20 6 -4 29 -11 52 -15 24 -4 45 -10 48
-15 3 -4 32 -11 65 -15 33 -4 60 -11 60 -15 0 -5 29 -12 65 -15 36 -4 65 -11
65 -15 0 -4 46 -12 103 -19 56 -7 109 -15 117 -19 27 -10 182 -31 325 -44 77
-6 143 -16 147 -22 10 -15 886 -15 896 0 4 6 70 16 147 22 77 6 181 18 230 26
50 8 140 23 200 32 61 10 112 21 115 25 3 4 31 10 63 14 31 4 57 11 57 15 0 4
26 12 58 18 31 5 82 18 112 27 30 9 84 24 120 33 36 9 67 19 70 23 3 4 21 10
40 14 19 4 40 11 45 15 6 4 26 11 45 15 19 4 41 11 50 16 33 18 144 59 162 59
10 0 18 4 18 10 0 5 16 12 35 16 19 3 35 10 35 14 0 5 14 11 30 15 17 4 54 19
83 35 28 15 67 31 85 35 17 3 32 10 32 15 0 5 14 11 30 15 17 4 30 10 30 15 0
5 13 11 29 15 16 3 35 12 41 20 6 8 25 17 41 20 16 4 29 10 29 15 0 5 14 11
30 15 17 4 30 10 30 15 0 5 14 11 30 15 17 4 30 11 30 16 0 4 24 20 53 34 64
33 110 58 117 66 3 3 23 16 45 29 22 13 42 26 45 29 3 4 19 13 35 21 17 8 34
21 38 27 4 7 15 13 22 13 8 0 15 4 15 10 0 5 11 12 24 16 14 3 27 12 30 20 3
8 12 14 21 14 8 0 15 4 15 9 0 5 14 14 30 21 17 7 30 17 30 22 0 5 8 12 18 15
20 8 25 12 78 57 23 20 45 36 50 36 5 0 20 14 34 30 14 17 29 30 35 30 9 0 39
24 122 101 18 16 36 29 40 29 5 0 38 31 75 68 37 38 92 92 123 120 30 28 55
53 55 55 0 2 50 53 110 114 61 60 110 114 110 118 0 5 20 28 45 52 25 23 45
46 45 51 0 5 11 19 25 32 14 13 25 28 25 34 0 6 14 22 30 36 17 14 30 28 30
32 0 11 70 102 81 106 5 2 9 10 9 18 0 8 6 17 14 20 8 3 20 19 26 35 7 16 16
29 21 29 5 0 9 7 9 15 0 9 6 18 14 21 8 3 17 16 20 30 4 13 11 24 16 24 6 0
10 7 10 15 0 9 7 18 15 21 8 4 15 10 15 14 0 12 83 144 92 148 5 2 8 10 8 18
0 8 6 17 14 20 8 3 18 19 21 35 4 16 12 32 18 36 20 13 200 365 212 416 4 15
10 27 15 27 4 0 12 18 19 40 6 22 16 40 21 40 6 0 10 10 10 23 0 12 6 32 14
43 8 11 17 37 21 57 4 20 11 37 15 37 5 0 11 13 15 30 4 16 10 30 14 30 5 0
14 27 20 60 7 33 16 62 21 65 5 3 12 26 16 50 3 25 10 45 15 45 4 0 11 23 15
50 4 28 10 50 15 50 5 0 11 23 15 50 4 27 10 50 15 50 5 0 9 10 9 23 0 12 9
54 19 92 11 39 23 94 27 122 3 29 10 53 14 53 4 0 11 32 14 71 4 40 11 79 16
88 9 16 35 218 50 391 5 52 14 131 20 175 15 102 9 593 -8 690 -21 119 -31
199 -43 327 -6 68 -15 128 -19 133 -4 6 -11 42 -15 80 -4 39 -10 75 -14 80 -3
6 -11 37 -18 70 -27 134 -48 224 -55 231 -4 4 -11 29 -14 56 -4 26 -10 48 -14
48 -4 0 -11 16 -15 36 -3 20 -10 44 -15 53 -4 9 -21 59 -36 111 -16 52 -32 97
-36 100 -4 3 -10 25 -14 48 -4 23 -10 42 -15 42 -4 0 -11 16 -15 35 -3 19 -10
35 -14 35 -5 0 -12 15 -16 32 -3 18 -12 42 -19 53 -7 11 -16 35 -20 53 -4 17
-10 32 -15 32 -5 0 -11 14 -15 30 -4 17 -10 30 -15 30 -4 0 -11 12 -15 28 -10
41 -105 232 -116 232 -5 0 -9 7 -9 16 0 17 -38 90 -57 112 -7 7 -13 20 -13 27
0 7 -6 20 -13 27 -7 7 -18 24 -25 38 -16 34 -35 64 -45 71 -5 3 -14 17 -21 30
-23 44 -41 73 -53 87 -7 7 -13 19 -13 27 0 7 -7 15 -15 19 -8 3 -15 11 -15 18
0 7 -10 23 -23 34 -12 12 -29 35 -37 50 -8 16 -25 39 -37 51 -13 12 -23 26
-23 31 0 5 -9 17 -20 27 -11 10 -20 22 -20 27 0 5 -13 22 -30 38 -16 16 -30
32 -30 36 0 7 -53 71 -100 121 -16 17 -30 35 -30 40 0 4 -38 46 -85 91 -47 46
-85 90 -85 98 0 8 -6 14 -14 14 -8 0 -18 9 -21 20 -3 11 -17 23 -31 26 -13 3
-24 12 -24 19 0 7 -4 15 -9 17 -6 2 -48 39 -94 83 -80 76 -112 105 -237 210
-63 53 -92 76 -112 90 -58 40 -108 80 -108 87 0 4 -5 8 -10 8 -14 0 -72 41
-83 58 -4 6 -14 12 -22 12 -8 0 -18 6 -22 13 -9 14 -37 32 -70 47 -13 5 -23
14 -23 19 0 5 -8 11 -17 15 -10 3 -38 19 -63 36 -25 17 -53 33 -62 36 -10 4
-18 10 -18 15 0 5 -5 9 -10 9 -9 0 -65 35 -80 50 -3 3 -21 13 -40 22 -64 32
-185 100 -190 108 -3 4 -22 13 -42 19 -21 7 -38 16 -38 21 0 5 -13 11 -30 15
-16 4 -30 10 -30 15 0 5 -13 11 -30 15 -16 4 -30 10 -30 15 0 5 -14 12 -32 15
-17 4 -61 23 -97 41 -36 19 -74 34 -83 34 -10 0 -18 4 -18 9 0 5 -13 12 -30
16 -16 4 -30 10 -30 15 0 4 -18 11 -39 15 -22 3 -47 13 -58 20 -10 8 -27 15
-38 15 -11 0 -30 6 -41 14 -11 8 -37 17 -57 21 -20 4 -37 11 -37 15 0 4 -19
10 -42 14 -23 4 -45 10 -48 15 -4 7 -31 15 -175 52 -21 5 -44 14 -50 18 -5 5
-32 11 -59 15 -27 3 -54 10 -60 15 -6 4 -36 11 -66 15 -30 4 -59 11 -65 15 -5
5 -35 11 -65 15 -30 3 -84 13 -120 21 -114 25 -263 46 -376 52 -60 3 -112 10
-115 15 -6 9 -594 18 -764 12z m735 -339 c129 -10 237 -22 240 -26 3 -3 42
-10 88 -14 45 -4 84 -11 87 -15 3 -4 36 -11 75 -15 38 -4 70 -10 70 -15 0 -4
27 -10 60 -14 33 -4 75 -13 92 -21 18 -7 59 -16 91 -20 31 -4 57 -11 57 -15 0
-4 23 -10 50 -14 28 -4 50 -11 50 -16 0 -5 23 -12 50 -16 28 -4 50 -10 50 -14
0 -4 17 -10 39 -14 21 -3 51 -13 67 -21 16 -8 36 -15 44 -15 8 0 28 -7 43 -15
15 -8 43 -17 62 -21 19 -3 35 -10 35 -14 0 -4 12 -11 28 -14 15 -4 41 -13 57
-21 59 -27 103 -45 111 -45 4 0 67 -29 140 -65 73 -35 144 -67 158 -71 14 -3
26 -10 26 -15 0 -4 37 -27 83 -49 92 -47 140 -73 147 -80 3 -3 14 -10 25 -17
76 -46 132 -80 154 -95 14 -10 36 -23 49 -29 12 -7 22 -16 22 -21 0 -4 5 -8
11 -8 7 0 31 -16 55 -35 23 -19 47 -35 53 -35 7 0 14 -7 17 -15 4 -8 12 -15
19 -15 6 0 20 -9 30 -20 10 -11 22 -20 27 -20 5 0 22 -13 38 -30 16 -16 32
-30 36 -30 8 0 137 -111 147 -127 4 -7 12 -13 18 -13 22 0 499 -472 499 -495
0 -3 13 -21 29 -38 92 -103 111 -125 111 -136 0 -6 4 -11 8 -11 7 0 54 -59 87
-109 6 -8 20 -25 33 -37 12 -11 22 -24 22 -27 0 -3 11 -23 25 -44 14 -21 31
-46 38 -57 6 -10 20 -29 30 -41 9 -13 17 -28 17 -34 0 -6 4 -11 8 -11 5 0 14
-10 21 -22 6 -13 22 -41 36 -63 13 -22 27 -48 31 -57 3 -10 9 -18 13 -18 4 0
26 -38 50 -85 24 -47 47 -85 52 -85 4 0 10 -13 14 -30 4 -16 11 -30 16 -30 5
0 9 -5 9 -11 0 -15 50 -118 60 -124 5 -3 11 -19 15 -35 4 -17 10 -30 15 -30 5
0 12 -15 15 -32 4 -18 11 -37 15 -43 13 -17 90 -214 90 -230 0 -8 5 -15 10
-15 6 0 10 -8 10 -17 0 -10 6 -30 14 -45 8 -15 17 -42 21 -60 8 -42 46 -160
55 -173 4 -5 10 -30 14 -55 4 -24 11 -49 15 -55 5 -5 11 -32 15 -59 3 -28 10
-52 14 -55 4 -4 16 -53 26 -111 10 -58 24 -136 32 -175 8 -38 19 -115 24 -170
6 -55 15 -108 20 -117 5 -10 13 -108 16 -218 4 -110 11 -203 16 -206 11 -7 11
-201 0 -208 -5 -3 -12 -96 -15 -206 -3 -110 -10 -206 -14 -213 -4 -7 -13 -57
-19 -112 -7 -55 -19 -136 -29 -180 -9 -44 -24 -120 -33 -170 -10 -49 -20 -94
-23 -100 -4 -5 -10 -29 -14 -52 -4 -24 -11 -45 -16 -49 -5 -3 -9 -15 -9 -28 0
-24 -32 -138 -55 -196 -8 -19 -17 -52 -21 -72 -3 -21 -10 -38 -14 -38 -5 0
-11 -18 -15 -40 -4 -22 -11 -42 -16 -46 -5 -3 -9 -12 -9 -20 0 -8 -8 -34 -19
-57 -10 -23 -29 -69 -42 -102 -13 -33 -27 -61 -31 -63 -5 -2 -8 -11 -8 -19 0
-9 -25 -66 -55 -128 -30 -62 -55 -120 -55 -129 0 -9 -4 -16 -9 -16 -5 0 -27
-35 -48 -77 -21 -43 -43 -81 -49 -85 -7 -4 -15 -20 -19 -35 -3 -15 -10 -30
-14 -33 -10 -8 -91 -140 -91 -150 0 -4 -7 -10 -15 -14 -8 -3 -15 -12 -15 -21
0 -8 -4 -15 -10 -15 -5 0 -10 -6 -10 -13 0 -8 -9 -22 -20 -32 -11 -10 -20 -22
-20 -27 0 -10 -59 -92 -85 -119 -8 -9 -15 -19 -15 -24 0 -7 -41 -58 -85 -106
-8 -9 -15 -19 -15 -23 0 -9 -75 -96 -142 -167 -27 -27 -48 -52 -48 -56 0 -10
-366 -373 -376 -373 -5 0 -31 -23 -57 -50 -27 -28 -52 -50 -55 -50 -4 0 -21
-14 -39 -30 -18 -17 -36 -30 -40 -30 -5 0 -20 -13 -33 -30 -14 -16 -30 -29
-36 -30 -6 0 -21 -11 -34 -25 -13 -14 -29 -25 -37 -25 -7 0 -13 -4 -13 -10 0
-23 -33 -7 -76 35 -24 25 -48 45 -52 45 -4 0 -29 23 -56 50 -27 28 -52 50 -56
50 -4 0 -28 20 -52 45 -25 25 -50 45 -56 45 -6 0 -17 8 -24 18 -7 9 -29 28
-48 42 -42 29 -55 39 -81 62 -10 10 -21 18 -24 18 -6 0 -65 40 -75 50 -3 3
-14 10 -25 17 -11 7 -44 27 -74 45 -29 18 -70 43 -90 55 -20 13 -44 25 -53 29
-10 3 -18 10 -18 15 0 5 -5 9 -12 9 -6 0 -50 19 -97 41 -142 69 -185 88 -215
95 -16 4 -41 13 -55 20 -14 8 -33 14 -42 14 -9 0 -29 6 -45 14 -16 8 -53 17
-81 21 -29 4 -55 10 -58 15 -3 4 -36 11 -75 15 -38 4 -70 11 -70 16 0 5 -19 9
-42 9 -24 0 -67 3 -95 6 l-53 7 0 38 c0 48 -6 46 210 53 298 10 615 28 625 36
6 4 54 11 108 15 53 4 97 10 97 15 0 4 34 10 76 14 42 4 95 14 118 21 23 8 52
15 66 15 14 0 37 6 52 14 14 8 49 17 77 21 28 4 53 11 56 15 3 5 23 11 45 15
22 4 42 10 45 15 3 4 22 11 42 15 21 4 56 15 78 24 22 10 60 26 85 35 68 28
356 172 370 186 15 15 71 50 80 50 6 0 13 7 16 15 4 8 12 15 19 15 6 0 20 9
30 20 10 11 22 20 26 20 8 0 31 19 128 103 100 88 186 178 259 273 12 16 38
49 57 72 19 24 35 50 35 56 0 7 9 21 19 30 11 10 27 33 36 52 9 19 20 34 25
34 4 0 11 13 15 30 4 16 11 30 16 30 5 0 9 5 9 12 0 6 18 48 39 92 54 112 71
152 71 169 0 9 4 17 8 19 9 3 37 79 52 138 5 19 16 60 24 90 9 30 16 65 16 77
0 13 4 23 9 23 5 0 13 36 17 80 3 44 10 80 14 80 4 0 12 51 19 113 7 61 17
146 21 187 11 96 11 481 0 585 -4 44 -13 132 -19 195 -7 63 -16 122 -20 131
-5 9 -13 53 -16 98 -4 44 -11 81 -15 81 -4 0 -11 28 -14 62 -4 34 -14 80 -22
102 -7 23 -14 51 -14 62 0 12 -7 45 -17 73 -12 37 -21 51 -35 51 -18 0 -98
-74 -98 -91 0 -5 -5 -9 -11 -9 -7 0 -18 -8 -25 -17 -12 -16 -13 -16 -14 9 0
15 -4 29 -9 32 -4 3 -11 20 -15 38 -9 45 -45 170 -55 188 -5 9 -12 35 -16 58
-4 23 -11 44 -15 47 -5 3 -12 27 -16 53 -6 43 -17 61 -36 62 -5 0 -8 -5 -8
-10 0 -6 -40 -51 -88 -100 l-88 -90 -22 23 c-12 13 -22 28 -22 34 0 6 -4 13
-8 15 -4 2 -21 21 -37 43 -17 22 -36 44 -42 48 -7 4 -13 14 -13 22 0 7 -10 22
-23 32 -31 24 -37 43 -48 138 -12 111 -28 198 -38 205 -5 3 -12 24 -16 48 -4
23 -11 42 -16 42 -5 0 -9 5 -9 12 0 12 -34 91 -51 118 -5 8 -15 26 -21 40 -7
14 -15 27 -18 30 -3 3 -21 30 -39 60 -46 75 -100 139 -203 240 -103 101 -173
160 -186 160 -6 0 -12 3 -14 8 -5 11 -66 52 -77 52 -6 0 -14 6 -18 13 -8 11
-20 20 -70 45 -13 7 -33 18 -45 24 -15 8 -80 14 -183 16 -88 2 -165 8 -170 12
-6 5 -34 12 -63 16 -29 4 -55 11 -58 15 -7 12 -101 12 -108 0 -3 -5 -21 -12
-40 -15 -19 -4 -36 -12 -39 -19 -5 -15 -276 -14 -286 1 -3 6 -44 15 -91 20
-47 6 -125 16 -175 22 -49 6 -109 15 -133 20 -54 13 -300 13 -338 1 -16 -5
-45 -12 -64 -16 -65 -11 -75 -26 -75 -116 0 -47 5 -83 11 -87 6 -4 14 -18 17
-32 7 -28 63 -93 90 -103 9 -3 17 -11 17 -16 0 -5 14 -12 30 -16 17 -4 30 -11
30 -16 0 -5 8 -9 18 -9 9 0 53 -18 97 -40 44 -22 88 -40 97 -40 10 0 18 -4 18
-9 0 -5 14 -12 30 -16 17 -4 30 -10 30 -15 0 -5 15 -12 32 -16 37 -8 78 -32
78 -45 0 -5 -9 -17 -20 -26 -11 -10 -20 -23 -20 -30 0 -6 -6 -16 -12 -20 -17
-10 -58 -69 -58 -82 0 -5 -6 -11 -12 -14 -9 -2 -12 -27 -11 -85 l2 -82 -39 0
c-22 0 -40 -4 -40 -10 0 -5 -7 -10 -15 -10 -8 0 -15 4 -15 9 0 5 -9 13 -20 16
-11 3 -20 10 -20 15 0 5 -22 43 -50 84 -27 42 -50 78 -50 81 0 6 -41 67 -51
75 -3 3 -12 17 -20 32 -58 110 -74 138 -80 138 -4 0 -10 14 -14 30 -4 17 -10
30 -15 30 -5 0 -11 13 -15 30 -3 16 -19 54 -35 85 -16 31 -32 70 -35 86 -4 17
-13 42 -21 57 -8 15 -14 37 -14 49 0 12 -4 23 -8 25 -9 4 -39 101 -54 176 -5
28 -13 52 -18 52 -4 0 -10 23 -14 50 -4 28 -10 50 -15 50 -5 0 -11 23 -15 51
-4 28 -11 58 -16 67 -10 17 -33 125 -53 245 -6 37 -14 67 -18 67 -4 0 -10 33
-14 73 -3 39 -10 81 -15 92 -9 22 -37 224 -51 373 -10 107 -27 142 -70 142
-15 0 -30 4 -34 9 -3 5 -36 13 -73 16 -37 4 -72 11 -78 16 -6 5 -54 14 -107
20 -53 7 -97 15 -97 19 0 4 -35 11 -77 15 -43 4 -83 11 -89 16 -6 5 -81 12
-168 15 -86 4 -159 11 -162 16 -7 11 -211 11 -218 -1 -3 -4 -74 -11 -158 -15
-84 -4 -157 -11 -163 -15 -5 -5 -44 -12 -85 -16 -41 -4 -79 -10 -85 -14 -10
-6 -127 -33 -227 -53 -32 -6 -58 -15 -58 -19 0 -5 -10 -9 -23 -9 -12 0 -31 -6
-42 -14 -11 -7 -36 -17 -55 -21 -19 -4 -39 -11 -45 -15 -5 -4 -23 -10 -40 -14
-25 -6 -95 -38 -235 -105 -14 -6 -56 -29 -95 -51 -38 -22 -78 -42 -87 -46 -10
-3 -18 -10 -18 -15 0 -5 -5 -9 -11 -9 -13 0 -173 -109 -177 -121 -2 -5 -8 -9
-14 -9 -6 0 -32 -18 -58 -40 -26 -22 -51 -40 -55 -40 -4 0 -27 -20 -52 -45
-24 -25 -47 -45 -51 -45 -9 0 -242 -233 -242 -242 0 -4 -21 -29 -47 -56 -67
-70 -213 -259 -213 -276 0 -4 -5 -12 -11 -19 -36 -42 -99 -134 -99 -146 0 -13
41 -75 64 -96 14 -13 56 -72 56 -79 0 -3 11 -17 25 -32 13 -14 30 -39 37 -55
7 -16 16 -29 21 -29 4 0 12 -10 17 -22 10 -23 15 -31 62 -105 14 -22 29 -52
33 -65 4 -12 11 -25 14 -28 12 -10 91 -177 91 -193 0 -9 4 -17 9 -17 5 0 12
-13 16 -30 4 -16 11 -30 16 -30 5 0 9 -8 9 -17 0 -10 6 -30 14 -45 8 -15 17
-42 21 -60 4 -18 13 -42 19 -53 7 -11 16 -33 20 -50 6 -26 16 -52 46 -115 4
-9 11 -31 15 -50 4 -19 11 -39 15 -45 4 -5 13 -34 20 -63 6 -28 16 -55 21 -58
5 -3 9 -20 9 -37 0 -25 -11 -42 -49 -79 -27 -27 -53 -48 -58 -48 -10 0 -183
-176 -183 -187 0 -3 -15 -24 -33 -47 -18 -23 -41 -59 -52 -81 -11 -22 -23 -41
-27 -43 -3 -2 -12 -25 -19 -53 -7 -27 -16 -49 -20 -49 -4 0 -11 -32 -15 -70
-4 -39 -11 -73 -15 -76 -12 -7 -11 -40 1 -62 5 -9 12 -43 15 -74 4 -32 10 -58
14 -58 5 0 11 -14 15 -31 12 -62 136 -204 239 -273 31 -22 57 -43 57 -48 0 -4
4 -8 9 -8 21 0 81 -47 95 -75 8 -16 20 -75 25 -130 6 -55 15 -101 21 -103 5
-2 10 -14 10 -26 0 -12 7 -31 15 -42 25 -34 16 -37 -22 -7 -21 16 -49 34 -63
41 -27 13 -62 34 -70 42 -10 10 -66 41 -155 85 -49 25 -97 49 -105 54 -40 25
-167 81 -183 81 -9 0 -17 4 -17 9 0 5 -12 12 -27 16 -15 3 -30 10 -33 13 -5 8
-64 30 -180 69 -41 14 -87 31 -102 39 -14 8 -37 14 -51 14 -14 0 -27 3 -29 8
-4 9 -131 48 -185 57 -24 4 -43 10 -43 15 0 4 -22 10 -50 14 -27 4 -52 10 -54
15 -3 5 -32 12 -63 16 -32 4 -62 11 -68 15 -5 4 -37 13 -70 19 -163 29 -175
33 -198 80 -44 86 -157 116 -251 66 -27 -14 -55 -32 -63 -40 -8 -8 -19 -15
-25 -15 -6 0 -42 35 -81 78 -39 42 -96 102 -127 132 -126 125 -135 149 -106
268 24 93 46 198 52 246 4 25 10 46 14 46 4 0 10 23 14 50 4 28 10 50 14 50 4
0 13 24 19 53 6 28 18 75 26 102 9 28 24 77 34 110 9 33 21 62 25 63 4 2 8 13
8 24 0 11 6 32 14 46 21 41 77 182 89 225 6 20 15 37 19 37 4 0 8 6 8 13 0 7
9 29 20 50 11 20 20 41 20 47 0 5 14 32 31 61 16 28 33 65 36 80 3 16 9 29 14
29 4 0 18 21 31 48 20 41 33 64 86 147 6 11 18 31 24 45 7 14 15 27 18 30 4 3
21 30 38 60 43 72 55 92 67 106 6 7 26 35 45 63 33 49 86 119 113 151 6 8 17
22 22 31 17 29 109 141 148 181 20 21 37 42 37 47 0 10 430 441 440 441 4 0
29 21 57 48 46 45 80 73 148 124 17 12 36 27 42 33 7 5 23 18 35 27 13 10 42
32 65 50 23 18 65 49 94 68 28 19 57 41 64 48 8 6 16 12 19 12 3 0 42 25 86
55 44 30 85 55 90 55 6 0 10 4 10 9 0 5 8 12 18 15 9 4 35 17 57 30 22 13 77
43 123 67 45 23 82 46 82 50 0 5 16 11 35 15 19 3 35 10 35 14 0 11 103 60
124 60 9 0 16 4 16 9 0 5 12 12 27 16 15 3 30 10 33 13 7 10 138 62 155 62 8
0 15 4 15 9 0 5 15 13 33 16 17 4 37 11 42 15 6 4 23 10 40 14 16 4 32 11 35
15 5 7 79 30 168 53 23 6 42 15 42 19 0 4 22 10 50 14 27 4 52 11 55 15 3 5
24 11 48 15 23 4 47 10 52 14 10 6 129 34 225 52 30 6 64 14 75 19 11 5 49 12
85 16 36 3 70 10 75 14 6 4 48 11 95 15 47 4 90 10 95 15 6 4 129 15 275 25
146 9 267 19 270 22 9 9 341 -4 580 -22z m-746 -931 c12 -11 16 -35 16 -85 0
-38 4 -69 9 -69 4 0 11 -42 15 -92 3 -51 11 -111 17 -133 10 -40 27 -114 49
-210 6 -27 15 -57 20 -66 4 -9 11 -37 15 -63 4 -25 11 -46 15 -46 4 0 13 -27
20 -60 7 -33 17 -63 21 -66 5 -3 9 -13 9 -22 0 -9 6 -29 14 -44 8 -14 17 -45
21 -67 4 -23 11 -41 15 -41 5 0 12 -16 16 -35 3 -19 10 -35 14 -35 4 0 13 -22
20 -50 7 -27 16 -50 21 -50 5 0 9 -10 9 -22 0 -13 7 -32 15 -42 26 -35 19 -46
-30 -46 -25 0 -45 -4 -45 -8 0 -4 -66 -13 -147 -20 -82 -6 -161 -16 -178 -21
-29 -9 -86 -20 -225 -42 -36 -5 -72 -14 -80 -18 -9 -5 -35 -12 -58 -16 -23 -4
-44 -11 -48 -16 -3 -5 -14 -9 -24 -9 -27 0 -184 -52 -188 -62 -2 -4 -10 -8
-18 -8 -8 0 -36 -9 -61 -21 -48 -22 -73 -20 -73 6 0 8 -4 15 -10 15 -5 0 -10
5 -10 11 0 18 -53 129 -62 129 -4 0 -8 5 -8 11 0 13 -41 101 -51 109 -4 3 -10
16 -14 30 -4 14 -16 37 -26 52 -11 14 -19 31 -19 37 0 6 -4 11 -8 11 -4 0 -13
12 -19 28 -12 27 -17 35 -62 106 -33 50 -48 76 -60 104 -6 12 -15 22 -21 22
-5 0 -10 5 -10 11 0 6 -25 47 -55 91 -30 44 -55 82 -55 85 0 2 -6 10 -12 18
-7 7 -31 38 -53 69 -22 31 -43 56 -47 56 -4 0 -8 5 -8 11 0 6 -12 26 -27 44
-54 63 -68 80 -91 114 -28 41 -32 37 128 118 63 32 117 61 120 64 3 4 24 12
47 18 23 6 45 16 48 21 3 6 16 10 28 10 13 0 32 6 43 14 11 8 37 17 57 21 20
4 37 11 37 15 0 4 20 10 45 13 24 4 53 11 62 17 25 14 134 39 218 51 38 5 72
14 75 18 3 5 53 12 113 16 59 4 107 11 107 16 0 8 77 12 307 17 81 2 105 -1
117 -14z m-2336 -1009 c14 -22 43 -61 64 -86 21 -25 38 -50 38 -56 0 -6 3 -13
8 -15 11 -5 52 -66 52 -78 0 -6 7 -13 15 -16 8 -4 15 -12 15 -18 0 -7 5 -17
12 -24 12 -12 64 -101 90 -152 7 -14 15 -27 18 -30 11 -10 150 -296 150 -308
0 -7 5 -12 10 -12 6 0 10 -8 10 -17 0 -15 13 -48 55 -138 8 -16 17 -42 21 -57
3 -16 10 -28 14 -28 13 0 28 -97 17 -115 -13 -24 -45 -55 -57 -55 -5 0 -10 -7
-10 -15 0 -8 -6 -15 -13 -15 -7 0 -32 -20 -56 -45 -47 -49 -63 -47 -77 11 -4
16 -10 34 -14 39 -4 6 -11 26 -15 45 -4 19 -13 44 -20 55 -7 11 -16 35 -19 53
-4 17 -12 32 -17 32 -5 0 -9 7 -9 16 0 15 -25 74 -76 179 -13 28 -24 56 -24
62 0 6 -6 18 -12 25 -7 7 -39 65 -72 128 -65 129 -89 173 -96 180 -15 15 -50
71 -50 80 0 6 -7 13 -15 16 -8 4 -15 10 -15 15 0 12 -42 73 -52 77 -5 2 -8 9
-8 16 0 7 -9 21 -20 31 -11 10 -20 24 -20 32 0 7 -5 13 -10 13 -6 0 -15 12
-21 27 -8 23 -5 34 28 82 21 31 40 60 42 66 2 5 8 14 13 20 4 5 18 23 29 38
l21 28 25 -23 c14 -13 37 -41 51 -63z m4000 -297 c2 -4 25 -8 50 -8 68 -1 243
-44 250 -62 2 -4 10 -8 17 -8 7 0 15 -9 18 -20 6 -24 -2 -60 -13 -60 -5 0 -18
-15 -29 -32 -12 -18 -30 -44 -41 -57 l-21 -24 -22 20 c-27 24 -107 63 -130 63
-9 0 -17 4 -17 9 0 5 -22 11 -50 15 -27 4 -50 11 -50 15 0 5 -18 12 -41 16
-22 4 -53 13 -67 21 -15 8 -32 14 -37 14 -13 0 -81 34 -100 50 -19 16 -19 35
1 54 13 14 35 15 147 9 73 -3 134 -10 135 -15z m1035 -67 c7 -5 56 -12 110
-16 53 -4 97 -11 97 -15 0 -4 13 -10 30 -13 32 -7 140 -75 140 -88 0 -5 6 -9
13 -9 7 0 60 -48 116 -107 127 -132 131 -137 131 -150 0 -5 9 -18 20 -28 11
-10 20 -24 20 -32 0 -7 5 -13 10 -13 6 0 10 -5 10 -10 0 -9 35 -65 50 -80 10
-10 60 -117 60 -128 0 -7 5 -12 10 -12 6 0 10 -7 10 -16 0 -9 10 -38 21 -63
38 -82 66 -163 82 -238 5 -29 14 -53 18 -53 4 0 10 -27 14 -60 4 -33 10 -60
15 -60 4 0 10 -28 14 -62 4 -35 12 -78 17 -96 9 -27 13 -31 25 -21 8 6 14 17
14 24 0 8 3 15 8 17 4 2 17 18 29 37 l21 35 32 -68 c24 -50 31 -76 26 -98 -6
-31 -43 -78 -62 -78 -6 0 -19 -9 -28 -19 -10 -11 -38 -30 -63 -43 -77 -39 -83
-42 -83 -50 0 -5 -5 -8 -10 -8 -6 0 -45 -16 -87 -36 -41 -19 -89 -38 -104 -41
-16 -3 -29 -9 -29 -13 0 -5 -19 -11 -42 -15 -24 -4 -45 -11 -48 -15 -3 -4 -28
-11 -57 -15 l-51 -7 -7 34 c-4 18 -22 65 -41 105 -19 39 -34 75 -34 80 0 5
-14 17 -31 27 -26 15 -43 17 -122 11 -101 -8 -200 5 -257 33 -19 9 -37 20 -40
23 -3 3 -12 8 -20 12 -8 4 -33 18 -55 31 -22 13 -64 37 -92 52 -29 15 -53 31
-53 36 0 4 -5 8 -12 8 -13 0 -120 52 -128 62 -3 3 -18 10 -33 13 -15 4 -27 11
-27 15 0 4 -17 11 -37 15 -20 4 -46 13 -57 21 -11 8 -30 14 -41 14 -11 0 -38
7 -60 14 -22 8 -87 17 -145 21 -116 9 -136 18 -120 59 5 14 16 26 25 26 8 0
15 3 15 8 0 8 66 44 124 67 44 17 181 20 221 5 14 -5 56 -15 92 -20 37 -6 72
-15 79 -21 6 -5 39 -12 73 -15 l61 -7 0 67 c0 48 5 72 16 83 19 20 75 49 111
58 15 3 30 10 33 13 6 9 38 29 70 44 14 7 27 15 30 18 14 14 70 50 79 50 6 0
14 7 19 16 7 12 11 -11 14 -74 2 -49 9 -96 15 -104 6 -7 14 -32 18 -55 4 -24
11 -43 15 -43 5 0 11 -13 15 -30 4 -16 11 -30 16 -30 5 0 9 -6 9 -12 0 -7 25
-41 56 -76 41 -45 75 -72 119 -93 68 -32 135 -39 135 -14 0 8 -4 15 -9 15 -5
0 -12 11 -15 25 -3 13 -22 40 -40 59 -57 57 -106 139 -138 231 -34 98 -35 216
-2 536 9 85 -6 84 -95 -5 -42 -42 -80 -76 -84 -76 -4 0 -18 -11 -31 -25 -13
-14 -26 -25 -30 -25 -3 0 -27 -15 -54 -34 -26 -19 -70 -46 -97 -61 -28 -15
-77 -42 -110 -61 -73 -41 -102 -54 -120 -54 -8 0 -17 -4 -20 -10 -8 -12 -115
-13 -115 -1 0 5 -15 12 -32 15 -18 3 -53 22 -77 41 -30 24 -54 35 -77 35 -18
0 -35 4 -38 9 -3 5 -42 12 -86 16 -44 4 -80 11 -80 16 0 5 -16 9 -35 9 -19 0
-35 5 -35 10 0 6 4 10 9 10 5 0 11 10 14 23 4 12 23 40 44 62 38 39 263 251
351 330 24 22 67 61 94 87 28 26 57 49 66 52 28 8 283 -2 295 -13z m-1732
-127 c8 -6 30 -14 51 -18 36 -7 48 -21 48 -57 0 -14 -7 -19 -30 -19 -16 0 -30
5 -30 10 0 6 -70 10 -190 10 -104 0 -190 -4 -190 -8 0 -5 -73 -12 -162 -16
-90 -4 -167 -11 -172 -16 -6 -6 -30 -10 -55 -11 -26 0 -84 -7 -131 -15 -47 -8
-118 -19 -157 -25 -40 -6 -73 -15 -73 -19 0 -4 -22 -10 -50 -14 -27 -4 -52
-10 -54 -15 -3 -5 -24 -11 -46 -15 -22 -3 -40 -11 -40 -16 0 -5 -22 -12 -50
-16 -40 -5 -50 -10 -50 -25 0 -14 7 -19 25 -19 14 0 25 4 25 9 0 5 62 12 137
16 75 4 144 11 152 15 9 5 93 14 186 20 94 6 197 15 230 21 33 5 92 9 130 7
l70 -3 57 -110 c31 -60 60 -118 64 -127 3 -10 10 -18 15 -18 5 0 9 -6 9 -14 0
-7 10 -16 23 -20 12 -3 150 -3 307 1 157 3 282 3 278 -1 -7 -8 -101 -31 -193
-47 -33 -6 -65 -15 -71 -20 -6 -5 -53 -12 -105 -15 -52 -3 -103 -9 -114 -14
-11 -5 -141 -14 -290 -20 -148 -5 -319 -15 -380 -20 -113 -10 -308 -22 -635
-41 -102 -5 -194 -14 -205 -19 -11 -5 -75 -12 -142 -16 -68 -3 -123 -10 -123
-15 0 -5 -17 -9 -37 -9 -21 0 -78 -7 -128 -15 -83 -14 -127 -22 -305 -55 -36
-7 -69 -16 -75 -20 -5 -4 -35 -10 -65 -14 -30 -4 -60 -12 -67 -17 -6 -6 -24
-9 -38 -7 -22 2 -16 7 37 28 34 13 65 27 68 31 3 3 19 9 35 13 17 4 44 13 60
20 60 28 82 35 170 60 50 14 100 26 113 26 12 0 22 4 22 9 0 5 29 13 65 16 36
4 65 11 65 15 0 5 36 12 80 16 44 3 80 10 80 14 0 4 54 11 120 15 129 8 157
19 127 53 -8 9 -18 36 -22 60 -4 23 -11 42 -15 42 -5 0 -12 16 -16 35 -8 42
-16 43 -94 10 -33 -14 -66 -25 -75 -25 -8 0 -15 -4 -15 -9 0 -5 -13 -12 -30
-16 -16 -4 -30 -10 -30 -14 0 -4 -22 -13 -50 -20 -27 -7 -52 -17 -56 -22 -3
-5 -15 -9 -27 -9 -12 0 -30 -7 -40 -15 -11 -7 -38 -17 -60 -20 -23 -4 -46 -11
-52 -15 -5 -5 -28 -11 -50 -15 -38 -7 -39 -6 -20 9 11 8 28 16 38 16 9 0 17 4
17 9 0 5 14 12 30 16 17 4 30 10 30 15 0 5 13 11 30 15 17 4 30 11 30 16 0 5
5 9 12 9 13 0 120 52 128 62 3 3 18 10 33 13 15 4 27 11 27 16 0 5 5 9 12 9
13 0 180 81 188 92 3 3 18 10 33 13 15 4 27 11 27 15 0 4 12 11 28 15 15 3 55
19 89 35 34 16 74 32 90 36 15 4 33 10 38 14 6 4 26 11 45 15 19 4 41 11 50
16 14 8 71 23 205 55 33 8 98 19 145 25 47 6 93 15 102 20 9 5 68 11 130 15
62 3 122 10 133 15 41 18 543 21 566 3z m611 -793 c43 -84 42 -121 -3 -121
-29 0 -118 -33 -148 -55 -35 -25 -121 -118 -121 -131 0 -8 -4 -14 -10 -14 -5
0 -13 -12 -16 -27 -4 -16 -10 -30 -14 -33 -23 -18 -50 -146 -34 -162 6 -7 67
23 72 35 2 4 8 7 14 7 10 0 70 46 123 97 18 17 44 34 57 38 13 4 26 13 30 19
11 16 200 15 206 -1 2 -7 9 -13 17 -13 40 0 144 -153 202 -296 6 -16 18 -45
26 -65 8 -20 18 -55 22 -77 4 -23 11 -44 15 -47 5 -3 12 -27 15 -53 4 -26 10
-56 15 -67 31 -71 46 -556 25 -828 l-7 -97 -61 1 c-73 0 -135 11 -197 33 -46
17 -111 47 -120 56 -15 15 -71 50 -80 50 -5 0 -10 4 -10 8 0 12 -97 82 -113
82 -8 0 -26 -12 -41 -26 -20 -21 -26 -37 -26 -70 0 -24 5 -44 10 -44 6 0 10
-5 10 -12 0 -17 101 -118 117 -118 7 0 13 -5 13 -10 0 -6 8 -14 18 -17 18 -7
74 -44 82 -55 3 -3 17 -9 32 -13 15 -4 32 -13 39 -21 6 -8 19 -14 29 -14 9 0
32 -8 51 -17 28 -15 60 -18 174 -18 l140 0 166 83 c191 94 214 101 174 48 -8
-11 -15 -28 -15 -38 0 -20 -40 -101 -52 -106 -5 -2 -8 -7 -8 -12 0 -23 -85
-132 -146 -188 -95 -87 -100 -91 -129 -98 -14 -3 -25 -10 -25 -15 0 -5 -26
-20 -57 -35 -32 -14 -67 -30 -78 -35 -39 -17 -148 -49 -170 -49 -13 0 -25 -5
-27 -10 -4 -14 -259 -15 -267 -2 -3 5 -25 11 -48 15 -47 6 -183 68 -203 92 -7
8 -16 15 -21 15 -5 0 -29 20 -53 45 -42 41 -86 59 -86 35 0 -5 -6 -10 -13 -10
-12 0 -108 -48 -117 -59 -9 -11 -234 -121 -247 -121 -7 0 -13 -4 -13 -9 0 -5
-15 -13 -32 -16 -18 -4 -35 -11 -38 -15 -3 -4 -36 -17 -75 -30 -82 -27 -284
-38 -375 -22 -82 15 -172 41 -202 57 -14 8 -35 15 -46 15 -11 0 -22 3 -24 8
-1 4 -25 19 -53 33 -87 45 -111 61 -122 86 -10 21 -9 23 13 23 13 0 24 4 24 9
0 4 43 11 96 14 54 3 100 10 103 15 3 6 24 13 46 17 40 7 72 19 151 56 23 10
46 19 53 19 6 0 11 4 11 9 0 5 14 12 30 16 17 4 30 11 30 16 0 5 5 9 11 9 7 0
31 16 55 35 23 19 46 35 51 35 17 1 203 189 203 207 0 4 19 30 42 56 44 52
107 97 135 97 10 0 29 12 42 25 20 22 23 32 18 72 -3 26 -10 49 -16 51 -6 2
-11 10 -11 17 0 17 -56 26 -100 16 -71 -16 -129 -61 -297 -228 -68 -68 -126
-123 -130 -123 -3 0 -27 -18 -52 -41 -25 -22 -51 -43 -57 -47 -31 -21 -86 -47
-143 -68 -36 -14 -70 -29 -77 -35 -7 -6 -42 -13 -76 -16 -35 -3 -66 -11 -70
-17 -5 -7 -14 -7 -30 1 -13 6 -54 14 -93 18 -38 3 -72 10 -75 14 -3 5 -25 12
-50 16 -25 4 -49 11 -55 15 -5 5 -38 14 -72 20 -35 7 -63 17 -63 21 0 5 -10 9
-21 9 -82 0 -57 -194 41 -319 43 -55 136 -151 147 -151 5 0 18 -9 28 -20 10
-11 22 -20 27 -20 5 0 19 -11 32 -25 13 -14 28 -25 34 -25 6 0 15 -6 19 -13 4
-8 15 -16 23 -20 8 -4 33 -18 55 -32 49 -30 82 -45 101 -45 8 0 14 -4 14 -9 0
-5 14 -12 30 -16 17 -4 30 -10 30 -15 0 -4 19 -11 43 -15 23 -4 60 -13 82 -20
64 -20 220 -27 340 -15 60 6 114 15 120 19 5 5 31 12 58 15 26 4 47 11 47 16
0 5 15 12 33 15 17 4 37 11 42 15 6 4 25 11 43 15 17 3 32 11 32 16 0 5 5 9
12 9 13 0 120 52 128 62 3 3 18 10 33 13 15 4 27 11 27 15 0 4 8 10 18 14 9 3
25 11 34 18 14 10 28 7 80 -19 96 -47 134 -63 155 -63 10 0 24 -5 29 -10 6 -6
49 -16 97 -22 48 -6 87 -15 87 -19 0 -4 59 -10 130 -14 l131 -7 -38 -47 c-21
-25 -48 -56 -60 -67 -13 -12 -23 -25 -23 -29 0 -10 -49 -55 -60 -55 -5 0 -13
-6 -17 -13 -12 -19 -109 -97 -121 -97 -6 0 -12 -4 -14 -8 -5 -14 -129 -83
-159 -89 -16 -3 -29 -9 -29 -13 0 -5 -14 -11 -31 -15 -17 -4 -42 -13 -57 -21
-15 -8 -38 -14 -53 -14 -14 0 -29 -4 -35 -9 -19 -19 -199 -31 -469 -31 -261 0
-381 8 -430 29 -11 4 -41 18 -66 30 -25 11 -51 21 -58 21 -6 0 -11 3 -11 8 0
4 -24 18 -52 32 -29 13 -64 32 -77 42 -13 10 -35 18 -48 18 -20 0 -23 -4 -18
-21 8 -24 12 -29 104 -129 40 -43 96 -91 132 -112 50 -30 59 -39 43 -43 -10
-4 -26 -10 -35 -15 -9 -5 -33 -12 -53 -15 -20 -4 -36 -11 -36 -15 0 -4 -20
-11 -45 -14 -25 -4 -45 -11 -45 -15 0 -5 -16 -12 -35 -15 -32 -6 -34 -9 -28
-37 3 -17 18 -43 32 -57 31 -31 88 -35 140 -9 17 9 52 19 77 23 24 3 47 10 50
15 7 12 54 11 54 -1 0 -5 10 -10 21 -10 13 0 40 -19 65 -47 42 -45 55 -73 34
-73 -5 0 -10 -7 -10 -15 0 -8 -7 -15 -15 -15 -7 0 -18 -6 -22 -13 -4 -8 -15
-16 -23 -20 -8 -4 -37 -20 -65 -37 -27 -16 -70 -40 -95 -52 -25 -13 -46 -26
-48 -30 -2 -5 -8 -8 -13 -8 -6 0 -35 -12 -65 -26 -29 -14 -62 -23 -71 -20 -19
7 -42 51 -63 121 -7 22 -16 44 -21 50 -5 5 -9 19 -9 31 0 12 -7 27 -15 34 -8
7 -15 21 -15 31 0 11 -9 36 -20 56 -11 21 -20 45 -20 55 0 9 -3 18 -7 20 -5 2
-27 41 -51 88 -24 47 -61 117 -83 155 -21 39 -42 78 -45 88 -4 9 -10 17 -15
17 -5 0 -15 15 -24 33 -15 33 -33 63 -50 83 -5 7 -28 37 -50 68 -22 31 -43 56
-47 56 -4 0 -8 6 -8 13 0 8 -9 22 -20 32 -11 10 -20 22 -20 27 0 5 -13 22 -30
38 -16 16 -30 32 -30 36 0 16 -282 308 -460 477 -43 41 -70 74 -68 84 2 11 26
24 65 37 58 18 63 23 69 53 4 22 1 41 -9 57 -14 21 -27 25 -134 35 -65 6 -149
16 -188 20 -73 10 -186 40 -195 52 -3 4 -18 11 -33 14 -15 4 -27 10 -27 14 0
3 -12 12 -27 18 -16 7 -50 31 -78 53 -27 22 -58 43 -67 46 -10 4 -18 12 -18
19 0 7 -6 18 -14 25 -8 6 -24 40 -36 76 -21 63 -21 66 -5 147 16 79 51 167 67
167 5 0 8 6 8 13 0 16 81 53 149 68 104 23 233 -12 294 -80 15 -17 36 -31 46
-31 11 0 22 -4 26 -9 21 -36 134 -8 136 33 5 72 -2 89 -68 153 -35 35 -67 63
-70 63 -4 0 -15 8 -26 18 -16 14 -45 18 -167 22 -193 7 -194 7 -188 138 2 51
8 96 14 100 5 4 16 20 24 36 17 32 134 156 148 156 5 0 17 9 27 20 10 11 23
20 30 20 7 0 22 9 35 20 13 11 29 20 36 20 7 0 14 3 16 8 4 9 97 54 161 77 26
10 47 22 47 26 0 5 9 9 21 9 11 0 33 7 47 15 38 21 235 76 315 88 37 6 67 14
67 18 0 4 30 11 68 14 37 4 72 11 77 15 6 4 30 11 55 14 50 8 159 29 235 46
78 18 155 27 155 18 0 -4 -7 -8 -15 -8 -8 0 -27 -16 -42 -36 -15 -20 -35 -44
-43 -53 -8 -9 -21 -27 -27 -41 -17 -33 -36 -64 -45 -70 -3 -3 -10 -18 -13 -33
-4 -15 -16 -44 -26 -64 -10 -21 -19 -43 -19 -50 0 -7 -4 -13 -10 -13 -5 0 -10
-8 -10 -18 0 -9 -9 -34 -20 -55 -12 -22 -20 -56 -20 -86 0 -43 3 -50 24 -55
36 -9 86 15 86 41 0 5 16 28 35 50 19 23 35 45 35 50 0 5 16 23 35 39 19 16
35 33 35 37 0 12 65 91 126 152 52 53 124 95 162 95 11 0 24 5 27 10 20 32
120 -13 190 -85 65 -67 116 -97 156 -93 35 3 62 33 43 46 -6 4 -15 21 -18 39
-4 17 -14 37 -22 44 -8 6 -14 16 -14 21 0 16 -113 118 -137 125 -13 3 -23 9
-23 13 0 4 -12 11 -27 15 -14 3 -35 13 -46 20 -26 18 -23 19 118 40 61 9 151
23 200 30 50 8 131 19 180 25 50 6 99 15 110 20 11 5 49 12 85 16 35 3 71 10
80 14 8 4 51 15 95 24 157 33 185 40 185 48 0 4 21 10 48 14 26 3 52 10 57 14
6 5 28 11 50 15 22 4 45 11 50 15 12 10 68 18 110 16 26 -1 34 -8 57 -55z
m-2390 -216 c-46 -7 -96 -18 -110 -24 -15 -5 -53 -13 -84 -17 -32 -3 -58 -10
-58 -14 0 -4 -24 -11 -52 -14 -29 -4 -57 -11 -63 -15 -5 -5 -27 -12 -49 -15
-21 -4 -46 -11 -55 -16 -9 -5 -55 -21 -103 -35 -49 -15 -90 -30 -93 -35 -3 -4
-21 -11 -40 -14 -19 -4 -35 -11 -35 -15 0 -5 -12 -12 -27 -16 -15 -3 -30 -10
-33 -13 -8 -10 -115 -62 -128 -62 -7 0 -12 -4 -12 -8 0 -5 -10 -14 -22 -21
-58 -31 -78 -46 -160 -120 -26 -24 -48 -50 -48 -57 0 -8 -3 -14 -8 -14 -4 0
-16 -17 -27 -37 -16 -30 -20 -55 -20 -135 1 -60 5 -102 12 -106 5 -4 14 -18
18 -32 4 -14 10 -27 14 -30 6 -5 41 -77 41 -85 0 -3 -5 -5 -11 -5 -7 0 -22
-11 -35 -25 -13 -14 -27 -25 -31 -25 -15 0 -81 -70 -94 -100 -10 -21 -21 -30
-36 -30 -13 0 -23 5 -23 10 0 6 -5 10 -11 10 -6 0 -21 8 -34 18 -12 9 -33 24
-45 32 -34 22 -76 63 -84 80 -3 8 -15 29 -26 45 -28 43 -40 73 -40 101 0 13
-4 24 -10 24 -6 0 -10 33 -10 79 0 44 5 83 10 86 6 3 10 17 10 31 0 41 59 141
119 203 48 48 127 111 140 111 6 0 11 3 11 8 0 8 9 13 96 55 122 58 142 67
158 67 9 0 16 4 16 9 0 5 20 12 45 15 25 4 45 11 45 15 0 5 21 11 48 15 26 3
60 13 76 21 15 8 41 15 56 15 15 0 48 6 74 14 26 8 78 18 114 22 37 3 72 10
77 14 6 5 61 11 123 15 61 4 112 11 112 16 0 8 105 14 290 16 l95 1 -83 -13z
m2877 -164 c4 -5 18 -15 31 -21 14 -6 50 -24 80 -40 30 -16 61 -30 68 -30 6 0
12 -4 12 -9 0 -5 12 -12 27 -16 15 -3 30 -10 33 -13 8 -11 57 -38 210 -114
l145 -72 164 1 164 1 34 -33 c30 -29 35 -41 36 -82 2 -37 -3 -54 -20 -72 l-22
-24 -110 13 c-60 7 -114 9 -120 6 -7 -4 0 -24 19 -55 17 -27 30 -53 30 -59 0
-5 6 -12 14 -15 7 -3 16 -21 20 -40 4 -20 11 -37 16 -39 5 -2 12 -36 16 -75 4
-40 11 -73 15 -73 5 0 9 -11 9 -25 0 -14 -4 -25 -9 -25 -5 0 -11 -9 -14 -19
-2 -11 -15 -21 -28 -23 l-24 -3 3 -185 c2 -127 -2 -217 -12 -285 -17 -113 -45
-228 -58 -233 -4 -2 -8 -11 -8 -20 0 -20 -49 -118 -79 -161 -12 -16 -21 -32
-21 -36 0 -19 -148 -176 -234 -249 -61 -52 -76 -61 -173 -110 -91 -46 -97 -48
-139 -44 -32 3 -36 5 -19 13 11 5 29 19 41 32 12 13 24 23 28 23 16 0 216 184
216 199 0 4 9 16 20 26 11 10 20 24 20 31 0 7 3 14 8 16 11 5 52 66 52 78 0 5
4 10 9 10 11 0 61 102 61 124 0 9 4 16 9 16 5 0 13 14 16 32 4 18 11 39 16 48
16 29 49 167 49 205 0 51 -31 155 -46 155 -7 0 -35 -22 -63 -50 -28 -27 -54
-50 -57 -50 -4 0 -12 -6 -18 -14 -16 -20 -121 -74 -196 -101 l-65 -23 -3 161
c-1 100 1 164 8 171 12 12 14 243 1 250 -4 3 -12 52 -16 108 -4 57 -10 108
-15 113 -4 6 -13 50 -19 99 -7 49 -16 97 -20 105 -5 9 -12 37 -15 64 -4 26
-11 47 -16 47 -4 0 -11 18 -15 40 -4 22 -10 42 -15 45 -4 3 -11 21 -14 40 -4
19 -10 35 -15 35 -4 0 -13 22 -20 50 -7 27 -17 52 -22 56 -5 3 -9 15 -9 28 0
12 -7 31 -15 42 -8 10 -15 32 -15 48 0 27 2 28 37 23 20 -4 39 -11 42 -16z
m2116 -76 c3 -30 10 -57 15 -60 4 -2 11 -26 14 -52 4 -27 13 -70 20 -98 28
-101 27 -111 -2 -144 -14 -17 -30 -31 -35 -31 -5 0 -27 -16 -50 -35 -22 -19
-47 -35 -54 -35 -7 0 -13 -4 -13 -8 0 -5 -10 -14 -22 -21 -27 -14 -48 -27
-105 -63 -23 -15 -53 -30 -67 -34 -14 -3 -26 -10 -26 -14 0 -10 -133 -76 -172
-86 -16 -3 -28 -10 -28 -14 0 -4 -12 -11 -27 -14 -16 -4 -41 -13 -58 -20 -66
-30 -83 -36 -145 -52 -125 -30 -319 -46 -345 -26 -11 8 -50 102 -61 146 -4 16
-13 41 -20 55 -8 14 -14 34 -14 44 0 9 -4 17 -10 17 -5 0 -10 5 -10 10 0 6 38
10 95 10 52 0 95 4 95 9 0 4 36 11 81 15 45 4 95 13 113 20 17 7 48 16 68 20
20 4 50 13 65 21 15 8 36 15 45 15 9 0 18 3 20 8 2 4 32 22 68 40 110 55 160
84 160 93 0 5 6 9 13 9 8 0 22 9 32 20 10 11 22 20 27 20 12 0 29 15 178 159
74 72 138 131 141 131 4 0 10 -25 14 -55z m-8654 -697 c16 -16 31 -28 33 -28
16 0 86 -80 86 -98 0 -49 -52 -61 -105 -26 -11 8 -30 14 -42 14 -13 0 -23 4
-23 9 0 5 -17 13 -37 18 l-38 9 -3 84 c-2 47 0 96 3 109 7 26 6 26 126 -91z
m379 -237 c0 -4 35 -11 78 -15 43 -4 96 -13 118 -21 21 -8 58 -14 81 -15 23 0
44 -4 47 -9 3 -5 44 -14 91 -21 47 -7 87 -16 90 -20 3 -5 28 -11 56 -15 28 -4
63 -13 77 -21 15 -8 35 -14 46 -14 18 0 106 -26 136 -40 8 -4 40 -13 70 -20
30 -7 60 -16 65 -20 6 -5 27 -11 48 -15 20 -4 37 -11 37 -16 0 -5 7 -9 15 -9
14 0 115 -37 182 -66 17 -8 38 -14 47 -14 9 0 16 -4 16 -9 0 -5 14 -12 30 -16
17 -4 30 -11 30 -16 0 -5 8 -9 17 -9 17 0 243 -108 253 -121 3 -3 16 -10 30
-14 14 -4 36 -16 49 -26 13 -11 30 -19 37 -19 8 0 14 -4 14 -10 0 -5 4 -10 10
-10 5 0 46 -25 91 -55 45 -30 83 -55 85 -55 3 0 10 -5 17 -10 7 -6 55 -42 107
-81 52 -40 99 -78 103 -85 4 -8 12 -14 17 -14 13 0 245 -237 300 -305 25 -31
53 -65 63 -76 9 -10 17 -21 17 -24 0 -6 41 -67 51 -75 3 -3 8 -12 12 -20 4 -8
20 -37 37 -65 16 -27 33 -58 36 -67 3 -10 10 -18 14 -18 5 0 11 -13 15 -30 4
-16 10 -30 15 -30 5 0 12 -15 16 -32 3 -18 12 -42 19 -53 7 -11 16 -35 20 -52
4 -18 11 -33 15 -33 5 0 12 -22 16 -50 4 -27 10 -50 14 -50 4 0 11 -24 14 -52
4 -29 11 -57 16 -63 11 -13 30 -231 30 -343 0 -107 -18 -294 -29 -302 -4 -3
-11 -27 -14 -54 -4 -27 -11 -54 -16 -60 -5 -6 -12 -26 -16 -43 -3 -18 -11 -33
-16 -33 -5 0 -9 -8 -9 -17 0 -9 -20 -58 -45 -108 -54 -107 -66 -127 -82 -138
-7 -4 -13 -14 -13 -21 0 -7 -9 -21 -20 -31 -11 -10 -20 -23 -20 -29 -1 -6 -14
-22 -30 -36 -17 -13 -30 -28 -30 -33 0 -10 -163 -177 -174 -177 -4 0 -33 -22
-65 -50 -32 -27 -63 -50 -70 -50 -6 0 -14 -6 -17 -14 -3 -8 -19 -18 -35 -21
-16 -4 -29 -11 -29 -16 0 -7 -34 -25 -147 -75 -17 -8 -38 -14 -46 -14 -9 0
-18 -4 -21 -9 -4 -5 -25 -12 -49 -16 -23 -4 -47 -11 -53 -16 -5 -4 -47 -11
-92 -15 -45 -4 -82 -11 -82 -15 0 -5 -61 -9 -135 -9 -74 0 -135 4 -135 8 0 5
-46 12 -102 16 -56 3 -106 10 -112 15 -6 4 -31 11 -56 14 -24 3 -46 11 -48 16
-2 6 -11 11 -20 11 -10 0 -12 3 -6 9 5 5 39 11 75 13 78 4 99 20 99 74 0 46
-21 63 -80 64 -62 1 -181 19 -194 29 -6 5 -26 12 -43 16 -18 3 -33 10 -33 15
0 4 -14 10 -31 14 -17 3 -42 15 -56 26 l-26 20 90 0 c80 0 93 3 115 23 26 24
44 92 27 103 -5 3 -35 7 -67 9 -60 4 -125 24 -144 43 -7 7 -18 12 -25 12 -7 0
-13 4 -13 10 0 15 -39 32 -60 25 -10 -3 -21 -19 -25 -35 -13 -61 -63 -39 -84
36 -6 22 -11 76 -11 121 0 80 1 83 28 97 15 7 69 17 120 21 50 4 92 11 92 15
0 4 23 10 51 13 28 4 56 10 63 15 6 6 27 13 46 17 19 4 47 16 62 26 14 11 31
19 37 19 6 0 11 5 11 10 0 6 6 10 13 10 21 0 82 66 112 122 25 48 28 64 32
183 2 72 1 157 -4 190 -8 57 -10 60 -37 63 -16 2 -39 -1 -50 -6 -26 -12 -143
-30 -293 -45 -61 -7 -115 -15 -119 -19 -11 -12 -612 -10 -619 2 -3 6 -25 10
-48 10 -62 0 -88 18 -124 85 -38 71 -53 103 -53 116 0 5 -4 9 -9 9 -5 0 -12
14 -16 30 -4 17 -10 30 -15 30 -4 0 -10 14 -14 31 -3 17 -19 59 -36 94 -16 35
-30 69 -30 77 0 7 -6 22 -14 33 -7 11 -17 36 -21 55 -4 19 -11 40 -15 45 -4 6
-11 26 -15 45 -4 19 -13 49 -20 65 -24 57 -44 120 -50 163 -4 23 -11 42 -16
42 -5 0 -9 18 -9 40 0 22 4 40 9 40 5 0 11 8 15 18 5 14 37 58 86 119 5 6 12
23 16 37 3 14 10 26 14 26 5 0 12 14 15 32 4 18 11 39 16 48 19 36 41 131 36
157 -14 71 -22 91 -54 132 -32 43 -33 45 -33 147 0 57 2 104 5 104 26 0 128
-99 147 -141 7 -16 16 -29 20 -29 3 0 10 -15 13 -32 4 -18 12 -38 17 -45 5 -6
12 -43 15 -82 3 -39 10 -71 14 -71 5 0 9 -35 11 -77 3 -70 5 -78 24 -81 15 -2
29 11 56 50 20 29 39 64 43 78 4 14 13 28 19 32 15 10 15 276 0 286 -6 4 -15
18 -19 32 -12 38 -71 108 -142 170 -36 30 -69 57 -75 59 -30 10 -47 36 -41 60
3 15 10 30 14 36 5 5 9 17 9 26 0 32 29 49 84 49 88 0 204 -71 274 -168 12
-17 22 -36 22 -42 0 -5 5 -10 10 -10 6 0 14 -8 17 -17 6 -17 42 -72 53 -83 3
-3 12 -18 20 -34 29 -56 33 -63 59 -77 23 -14 29 -14 52 0 92 56 121 148 77
240 -22 44 -120 152 -163 179 -38 23 -127 62 -144 62 -9 0 -21 4 -26 9 -12 12
-148 31 -216 31 -43 0 -49 2 -49 21 0 12 8 28 18 35 20 16 32 18 32 5z m-487
-36 c20 -8 48 -15 62 -15 14 0 25 -4 25 -9 0 -5 12 -12 26 -15 26 -7 26 -9 20
-59 -4 -29 -11 -56 -16 -61 -10 -10 -108 2 -116 15 -3 5 -14 9 -24 9 -16 0
-19 10 -22 71 -3 62 -1 79 7 79 2 0 19 -7 38 -15z m9082 -105 c17 -19 18 -37
12 -248 -4 -133 -12 -256 -21 -297 -8 -38 -17 -105 -21 -147 -4 -43 -10 -78
-15 -78 -4 0 -11 -25 -15 -55 -3 -30 -10 -57 -15 -60 -4 -3 -11 -28 -15 -55
-4 -28 -11 -50 -16 -50 -5 0 -9 -6 -9 -14 0 -21 -52 -180 -60 -186 -4 -3 -11
-20 -15 -37 -3 -18 -10 -33 -15 -33 -5 0 -12 -14 -15 -32 -4 -17 -14 -38 -21
-46 -8 -7 -14 -20 -14 -29 0 -8 -9 -26 -20 -40 -11 -14 -20 -32 -20 -39 0 -8
-4 -14 -9 -14 -5 0 -12 -8 -15 -17 -11 -29 -41 -80 -70 -117 -14 -19 -26 -39
-26 -45 0 -5 -6 -14 -13 -18 -7 -4 -35 -37 -62 -72 -79 -102 -295 -312 -354
-345 -9 -5 -20 -15 -24 -23 -4 -7 -14 -13 -22 -13 -8 0 -18 -6 -22 -12 -9 -15
-37 -33 -70 -48 -13 -5 -23 -14 -23 -19 0 -5 -8 -11 -17 -14 -10 -4 -36 -17
-58 -31 -22 -14 -65 -38 -95 -53 -30 -15 -56 -31 -58 -35 -2 -5 -8 -8 -13 -8
-6 0 -44 -16 -86 -36 -41 -19 -89 -38 -104 -41 -16 -3 -29 -9 -29 -13 0 -5
-15 -12 -32 -15 -18 -4 -42 -14 -53 -21 -11 -8 -29 -14 -40 -14 -11 0 -32 -6
-46 -14 -14 -7 -47 -16 -73 -20 -25 -4 -46 -11 -46 -15 0 -5 -25 -12 -55 -16
-30 -3 -57 -10 -60 -15 -3 -4 -29 -11 -58 -15 -28 -3 -61 -10 -72 -15 -48 -21
-383 -58 -532 -59 -62 -1 -103 -5 -103 -11 0 -6 -63 -10 -170 -10 -107 0 -170
4 -170 10 0 6 -7 10 -15 10 -20 0 -21 88 -1 96 8 3 126 6 262 8 253 2 515 19
546 36 9 5 46 12 82 16 36 4 66 11 66 15 0 5 12 9 28 9 15 0 54 7 87 16 33 8
78 19 100 25 21 6 44 14 50 18 5 5 26 12 45 16 19 4 40 11 45 15 6 4 26 11 45
15 19 4 40 11 45 15 6 4 42 20 80 35 39 16 72 32 73 37 2 4 14 8 26 8 13 0 35
9 49 20 14 11 30 20 36 20 6 0 11 4 11 9 0 5 13 12 29 16 16 3 35 13 42 21 6
8 17 14 25 14 7 0 19 6 26 13 7 7 24 18 38 25 38 18 68 38 116 77 18 14 35 25
38 25 4 0 17 11 30 25 13 14 27 25 31 25 16 0 275 243 275 258 0 5 16 23 35
42 19 19 35 41 35 48 0 6 4 12 9 12 8 0 47 56 60 84 2 5 14 19 26 30 12 12 24
28 28 36 4 8 18 33 31 55 54 86 176 343 176 368 0 9 3 17 8 19 13 6 76 211 88
288 3 25 10 50 15 56 4 5 11 48 15 95 4 46 11 89 16 95 4 7 11 115 15 240 5
191 8 232 22 246 22 23 64 22 86 -2z m-6175 -657 c25 -11 64 -39 86 -62 23
-22 44 -41 48 -41 10 0 306 -300 306 -310 0 -5 6 -13 13 -17 14 -9 84 -86 142
-157 22 -27 51 -61 64 -75 13 -14 37 -46 54 -71 17 -25 36 -52 44 -60 41 -47
141 -187 156 -220 13 -28 32 -55 45 -63 6 -4 12 -13 12 -19 0 -5 14 -27 30
-48 17 -21 30 -43 30 -49 0 -7 6 -14 14 -17 8 -3 17 -17 21 -32 4 -15 10 -29
14 -32 10 -8 34 -47 81 -135 24 -44 46 -82 50 -85 9 -7 60 -116 60 -129 0 -5
3 -11 8 -13 9 -4 122 -231 122 -246 0 -7 5 -12 10 -12 6 0 10 -7 10 -15 0 -8
14 -17 35 -21 39 -7 202 14 211 27 3 5 15 9 26 9 25 0 145 57 168 80 3 3 16
11 29 18 13 8 38 22 56 32 18 10 43 24 56 32 13 7 26 15 29 18 11 12 142 90
151 90 5 0 9 3 9 8 0 7 10 13 66 42 16 8 31 17 34 20 15 15 68 48 89 55 22 7
23 5 18 -21 -3 -16 -13 -74 -22 -129 -9 -55 -21 -104 -25 -110 -5 -5 -12 -28
-16 -50 -4 -22 -13 -49 -20 -60 -8 -11 -14 -29 -14 -41 0 -12 -3 -24 -7 -26
-11 -4 -53 -95 -53 -113 0 -8 -6 -18 -12 -22 -14 -9 -31 -34 -50 -73 -7 -14
-15 -27 -18 -30 -14 -13 -60 -80 -60 -87 -1 -17 -127 -132 -153 -138 -15 -4
-27 -11 -27 -16 0 -5 -8 -9 -17 -9 -15 0 -43 -11 -149 -61 -23 -10 -49 -19
-58 -19 -9 0 -16 -4 -16 -9 0 -5 -12 -12 -27 -15 -30 -7 -54 -17 -153 -65 -36
-17 -71 -31 -78 -31 -8 0 -26 -6 -40 -14 -50 -26 -119 -56 -128 -56 -22 0
-476 -228 -482 -242 -2 -5 -8 -8 -14 -8 -5 0 -23 -9 -39 -21 l-29 -20 -29 23
c-17 13 -30 28 -30 34 -1 14 -59 65 -98 87 -44 24 -100 29 -235 20 l-117 -8
32 33 c121 127 175 188 219 247 20 27 41 55 45 61 18 23 34 51 48 81 8 17 18
33 22 35 11 4 53 91 53 109 0 8 7 23 15 33 8 11 15 30 15 43 0 13 5 23 10 23
6 0 10 6 10 14 0 7 9 41 20 75 11 34 23 91 26 127 4 35 11 67 15 70 13 8 11
424 -1 424 -5 0 -10 16 -10 35 0 48 -21 188 -30 200 -4 6 -11 31 -14 57 -4 26
-11 50 -15 53 -5 2 -11 24 -15 47 -4 23 -11 47 -15 53 -5 5 -11 23 -15 40 -7
27 -21 61 -62 152 -8 17 -14 36 -14 42 0 6 -4 11 -9 11 -5 0 -12 14 -16 30 -4
17 -10 30 -15 30 -4 0 -11 12 -14 27 -4 14 -20 45 -37 69 -16 23 -29 48 -29
54 0 6 -7 13 -15 16 -8 4 -15 10 -15 14 0 5 -19 36 -42 71 -24 34 -48 70 -54
80 -6 10 -23 30 -37 43 -15 14 -27 29 -27 33 0 5 -18 27 -40 48 -22 21 -40 42
-40 46 0 8 -149 154 -210 208 l-35 30 35 -8 c19 -5 55 -18 80 -28z m2833
-1137 c9 -7 17 -18 17 -23 0 -5 9 -18 20 -28 11 -10 20 -24 20 -32 0 -7 4 -13
9 -13 5 0 18 -15 30 -32 11 -18 36 -53 55 -78 19 -25 35 -50 35 -57 1 -6 8
-19 17 -28 9 -9 19 -36 22 -61 4 -42 2 -48 -30 -77 -19 -18 -67 -57 -107 -87
-95 -72 -121 -96 -121 -113 0 -7 34 -48 75 -90 41 -42 75 -80 75 -84 0 -4 14
-21 30 -37 17 -16 30 -34 30 -39 0 -19 -35 -83 -57 -103 -13 -12 -23 -26 -23
-32 0 -6 -19 -27 -42 -46 -41 -35 -82 -45 -122 -30 -20 8 -21 30 -1 38 8 3 15
12 15 21 0 8 4 15 9 15 5 0 12 8 15 18 3 9 19 31 34 47 15 17 31 38 35 48 3 9
11 17 17 17 28 0 3 32 -47 61 -32 18 -60 35 -63 39 -3 3 -16 11 -30 18 -32 15
-64 35 -70 44 -3 3 -18 10 -33 13 -16 4 -31 13 -34 21 -2 7 -17 16 -33 19 -35
8 -48 35 -20 42 11 3 20 9 20 12 0 9 78 61 90 61 5 0 10 3 12 8 4 9 58 47 81
55 9 3 17 11 17 17 0 5 5 10 10 10 12 0 73 41 78 53 2 4 9 7 15 7 20 0 57 43
57 67 0 13 -9 40 -20 60 -11 21 -20 43 -20 50 0 7 -4 13 -9 13 -5 0 -12 12
-16 27 -3 15 -10 30 -13 33 -14 10 -51 96 -58 133 -7 39 0 45 29 23z m-4152
-518 c2 -53 -3 -100 -14 -121 -26 -48 -50 -77 -63 -77 -8 0 -14 -4 -14 -10 0
-5 -16 -12 -35 -16 -19 -3 -35 -10 -35 -15 0 -4 -21 -11 -47 -15 -27 -3 -52
-10 -58 -14 -5 -5 -53 -13 -105 -19 -174 -21 -260 -54 -276 -104 -4 -12 -11
-25 -16 -28 -4 -3 -12 -25 -17 -50 -5 -24 -9 -38 -10 -31 -1 13 -40 72 -54 83
-4 3 -17 23 -28 45 -12 21 -26 44 -33 49 -6 6 -17 21 -24 35 -13 27 -34 62
-42 70 -12 12 -47 67 -53 83 -3 9 -11 17 -17 17 -5 0 -10 6 -10 13 0 8 -9 22
-19 31 -10 10 -21 26 -24 37 -5 17 0 19 48 19 30 0 57 -4 60 -10 4 -6 60 -10
135 -10 75 0 131 4 135 10 3 6 49 10 103 10 124 0 373 19 392 31 8 4 39 9 68
9 47 0 52 -2 53 -22z m4263 -777 c3 -4 58 -11 123 -15 64 -4 122 -11 128 -15
5 -5 40 -12 78 -16 37 -3 67 -10 67 -14 0 -4 26 -12 58 -18 64 -13 172 -44
215 -61 16 -7 35 -12 43 -12 8 0 14 -4 14 -9 0 -5 15 -13 33 -16 17 -4 34 -10
37 -14 3 -4 39 -20 80 -36 41 -16 77 -32 80 -35 3 -3 41 -23 85 -45 93 -45
198 -105 205 -116 3 -4 18 -11 33 -14 15 -4 27 -11 27 -15 0 -5 12 -15 28 -22
36 -19 76 -42 82 -48 14 -14 70 -50 79 -50 5 0 11 -7 15 -15 3 -8 12 -15 19
-15 8 0 22 -9 32 -20 10 -11 22 -20 27 -20 5 0 19 -11 32 -25 13 -14 28 -25
33 -25 6 0 31 -18 56 -40 25 -22 48 -40 52 -40 10 0 55 -49 55 -60 0 -5 -9
-12 -20 -15 -11 -3 -20 -10 -20 -15 0 -4 -8 -10 -17 -13 -10 -4 -40 -20 -68
-37 -27 -17 -57 -33 -65 -37 -8 -4 -17 -10 -20 -14 -6 -8 -157 -91 -202 -111
-16 -7 -28 -15 -28 -19 0 -4 -12 -10 -27 -14 -15 -3 -30 -10 -33 -13 -8 -10
-176 -92 -189 -92 -6 0 -11 -4 -11 -10 0 -5 -7 -10 -16 -10 -16 0 -31 -6 -145
-59 -25 -11 -51 -21 -57 -21 -6 0 -25 -8 -44 -17 -54 -27 -62 -30 -96 -38 -18
-3 -32 -11 -32 -16 0 -5 -6 -9 -14 -9 -18 0 -175 -48 -198 -60 -9 -5 -35 -13
-58 -16 -22 -4 -43 -10 -45 -15 -3 -4 -27 -11 -53 -15 -26 -4 -49 -10 -52 -13
-6 -8 -139 -38 -232 -54 -38 -6 -68 -14 -68 -18 0 -4 -36 -11 -80 -15 -44 -3
-80 -10 -80 -14 0 -5 -44 -11 -97 -15 -54 -4 -103 -11 -109 -16 -13 -11 -385
-29 -599 -29 -209 0 -598 19 -605 30 -3 4 -49 11 -102 15 -54 4 -98 10 -98 15
0 4 -37 11 -81 15 -45 3 -89 11 -98 15 -9 5 -45 14 -81 19 -109 17 -224 41
-242 51 -9 5 -39 12 -67 16 -28 4 -51 10 -51 15 0 4 -20 11 -45 15 -35 5 -45
10 -45 25 0 11 4 19 9 19 5 0 12 29 16 65 3 36 10 65 15 65 4 0 11 28 15 63 4
34 11 71 15 83 10 26 -3 49 -23 41 -14 -5 -47 -92 -47 -124 0 -7 -4 -13 -9
-13 -5 0 -12 -14 -16 -30 -4 -17 -11 -30 -16 -30 -5 0 -9 -4 -9 -9 0 -5 -12
-28 -27 -51 -28 -42 -29 -42 -75 -37 -25 3 -55 10 -65 15 -52 26 -91 42 -115
48 -16 3 -28 10 -28 15 0 5 -7 9 -15 9 -17 0 -147 51 -155 61 -3 3 -16 10 -30
14 -27 7 -282 133 -340 167 -19 11 -57 32 -83 47 -27 14 -65 36 -85 48 -20 13
-45 25 -54 29 -10 3 -18 10 -18 15 0 7 -20 20 -80 51 -14 7 -27 15 -30 18 -12
13 -70 50 -77 50 -5 0 -16 9 -25 19 -14 17 -15 20 -1 25 8 3 34 6 58 6 23 0
80 6 126 14 46 8 126 17 177 21 l92 7 0 -116 c0 -94 3 -116 14 -116 8 0 17 4
20 9 3 5 22 12 41 15 19 4 35 11 35 15 0 5 12 12 27 16 15 3 30 10 33 13 7 10
115 62 128 62 6 0 12 4 14 9 2 8 116 71 205 115 13 6 23 14 23 18 0 3 13 9 30
13 16 4 30 10 30 15 0 4 12 11 26 14 14 4 44 19 67 34 61 39 129 71 151 72 10
0 38 -16 62 -35 23 -19 47 -35 53 -35 6 0 11 -4 11 -9 0 -4 19 -21 43 -37 23
-16 45 -33 48 -37 11 -15 61 -37 83 -37 11 1 40 11 63 23 24 12 78 40 120 62
43 22 81 45 86 52 4 6 21 14 37 18 17 4 30 10 30 15 0 5 14 11 30 15 17 4 30
10 30 14 0 3 12 12 28 18 15 7 34 17 42 22 8 5 35 19 60 31 25 12 65 32 90 44
132 66 196 96 204 96 10 0 98 42 106 50 3 3 47 19 98 35 50 16 92 33 92 37 0
3 18 9 40 13 22 4 42 10 45 15 3 4 20 11 39 14 20 4 48 13 63 21 15 8 38 15
51 15 12 0 39 7 58 15 19 8 57 17 85 21 27 4 49 10 49 14 0 5 35 12 78 15 42
4 80 12 83 16 3 5 62 12 132 16 70 3 127 10 127 15 0 11 257 11 264 -1z"/>
<path d="M7633 7723 c-18 -3 -120 -108 -155 -158 -4 -5 -32 -40 -63 -77 -30
-37 -55 -70 -55 -72 0 -3 -16 -21 -35 -40 -43 -43 -44 -56 -5 -56 17 0 30 4
30 9 0 5 15 12 34 15 19 4 39 13 46 21 7 8 17 15 22 15 19 0 228 169 228 184
0 4 16 23 35 43 38 40 44 72 18 95 -20 18 -67 28 -100 21z"/>
<path d="M3677 6240 c-10 -11 -20 -34 -23 -49 -5 -24 0 -33 28 -54 18 -13 49
-28 68 -32 19 -4 40 -11 45 -15 6 -4 26 -11 45 -15 19 -4 40 -11 45 -15 6 -5
31 -11 57 -15 39 -6 49 -4 67 14 21 21 28 74 13 98 -9 14 -99 48 -172 65 -25
6 -48 15 -51 20 -3 4 -28 11 -55 14 -42 5 -52 3 -67 -16z"/>
<path d="M6530 6174 c-37 -34 -40 -40 -40 -88 0 -46 4 -56 33 -84 28 -27 40
-32 83 -32 44 0 54 4 82 33 27 28 32 40 32 83 0 42 -4 54 -27 75 -69 60 -107
64 -163 13z"/>
<path d="M5240 6142 c0 -4 -10 -12 -22 -17 -47 -21 -71 -99 -45 -146 29 -55
49 -69 102 -69 43 0 56 5 82 30 32 31 43 68 35 119 -4 27 -18 47 -56 79 -16
13 -96 17 -96 4z"/>
<path d="M3532 6040 c-18 -29 -15 -83 6 -101 10 -9 54 -28 98 -42 43 -14 93
-32 111 -38 25 -10 37 -10 55 -1 22 12 48 54 48 76 -1 19 -35 53 -61 61 -13 4
-28 11 -34 15 -5 4 -25 11 -43 15 -18 4 -45 13 -60 21 -41 21 -105 18 -120 -6z"/>
<path d="M6208 5734 c-28 -8 -11 -72 36 -134 63 -84 79 -122 80 -190 2 -89
-12 -97 -176 -102 -147 -4 -165 -12 -154 -70 7 -39 57 -78 99 -78 15 0 27 -4
27 -10 0 -6 45 -10 115 -10 70 0 115 4 115 10 0 6 12 10 27 10 56 0 143 128
143 211 0 40 -24 128 -48 174 -12 22 -27 51 -34 65 -7 14 -15 27 -18 30 -3 3
-10 14 -16 25 -6 11 -24 27 -40 35 -16 8 -32 19 -35 24 -8 10 -96 17 -121 10z"/>
<path d="M9153 6255 c-33 -33 -35 -39 -29 -78 9 -55 24 -69 86 -75 43 -4 55
-1 75 18 18 17 25 34 25 59 0 46 -10 81 -22 81 -5 0 -16 7 -24 15 -27 27 -73
18 -111 -20z"/>
<path d="M3320 4251 c0 -5 -13 -11 -29 -14 -25 -5 -31 -13 -37 -42 -3 -19 -10
-37 -14 -40 -5 -3 -11 -23 -15 -45 -7 -38 -8 -40 -45 -40 -35 0 -38 2 -32 23
3 12 10 25 15 28 5 4 12 29 14 56 5 50 5 50 -27 56 -71 15 -110 -12 -136 -93
-17 -55 -48 -100 -68 -100 -6 -1 -29 -9 -51 -20 -22 -11 -45 -19 -52 -20 -6 0
-13 -3 -15 -7 -4 -9 -65 -53 -73 -53 -13 0 -104 -101 -116 -130 -8 -16 -17
-30 -21 -30 -4 0 -10 -23 -14 -50 -4 -28 -11 -53 -15 -56 -12 -7 -12 -111 0
-118 4 -3 11 -25 15 -48 4 -23 11 -47 15 -53 5 -5 11 -21 14 -35 13 -55 108
-126 192 -145 17 -3 46 -14 66 -23 32 -15 38 -23 43 -61 3 -24 6 -77 6 -117 0
-43 4 -74 10 -74 6 0 10 -22 10 -50 l0 -50 -59 0 c-76 0 -108 19 -211 123 -99
100 -110 97 -110 -29 0 -45 4 -85 9 -88 4 -3 11 -29 13 -57 3 -28 10 -54 15
-58 6 -3 14 -19 17 -36 8 -32 38 -75 54 -75 5 0 12 -7 16 -15 3 -8 16 -15 30
-15 13 0 26 -4 28 -9 2 -5 44 -13 93 -19 106 -11 145 -25 152 -52 3 -11 9 -20
14 -20 5 0 9 -5 9 -11 0 -28 44 -50 95 -47 l50 3 -3 53 c-2 49 -1 52 21 52 27
0 57 -28 57 -54 0 -10 9 -20 20 -23 11 -3 20 -9 20 -14 0 -5 18 -9 40 -9 22 0
40 5 40 10 0 6 9 10 20 10 22 0 27 28 10 60 -8 16 -5 20 23 28 17 6 56 13 85
16 55 5 92 34 123 94 8 15 20 31 26 35 7 4 13 19 13 32 0 14 4 25 9 25 5 0 14
26 19 59 11 63 -1 260 -16 270 -5 3 -12 23 -16 44 -4 20 -11 37 -16 37 -6 0
-10 6 -10 14 0 8 -24 38 -53 68 -66 66 -79 76 -111 84 -15 3 -28 10 -31 14 -3
5 -26 18 -53 31 -84 40 -82 34 -82 196 0 78 3 143 7 143 4 0 49 -21 100 -46
62 -30 109 -62 141 -94 71 -72 76 -65 76 127 0 125 -3 169 -17 209 -20 58 -37
70 -117 79 -30 3 -72 9 -94 12 l-38 5 6 41 c4 23 11 44 16 47 5 3 12 25 16 48
7 42 6 42 -25 42 -17 0 -31 5 -31 10 0 6 -7 10 -15 10 -8 0 -15 -4 -15 -9z
m-175 -479 c18 -15 20 -27 17 -134 -3 -115 -4 -118 -26 -118 -13 0 -31 9 -41
20 -16 18 -17 28 -7 119 16 137 20 145 57 113z m-206 -79 c-1 -55 -13 -91 -23
-74 -10 16 -11 84 -2 100 14 22 26 10 25 -26z m205 -532 c15 -17 24 -63 43
-218 l5 -43 -40 0 c-40 0 -41 0 -46 43 -3 23 -8 86 -11 140 -5 90 -4 97 13 97
11 0 26 -8 36 -19z m226 -81 c14 0 50 -66 50 -92 0 -26 -64 -97 -77 -85 -4 4
-9 49 -11 99 -4 83 -3 91 13 85 9 -4 20 -7 25 -7z"/>
<path d="M1041 3556 c-19 -20 -22 -32 -18 -68 7 -62 24 -122 36 -126 6 -2 11
-9 11 -16 0 -7 12 -26 26 -41 30 -32 73 -37 99 -12 15 15 15 20 0 62 -8 25
-15 52 -15 60 0 8 -4 15 -9 15 -5 0 -11 19 -15 43 -3 23 -14 57 -23 75 -22 40
-59 43 -92 8z"/>
<path d="M2072 2512 c-32 -21 -26 -140 8 -157 11 -6 46 -23 77 -39 32 -15 66
-32 76 -37 9 -5 38 -12 62 -16 25 -3 45 -10 45 -14 0 -5 50 -9 111 -9 107 0
113 1 135 26 27 28 30 48 12 87 -12 24 -18 27 -65 27 -29 0 -74 5 -100 11 -84
20 -213 60 -218 69 -3 4 -21 11 -40 14 -19 4 -35 11 -35 15 0 5 -8 11 -17 15
-10 3 -22 8 -28 11 -5 3 -16 1 -23 -3z"/>
<path d="M2980 2213 c-8 -3 -17 -10 -20 -14 -13 -19 -161 -31 -307 -26 l-153
5 0 -47 c0 -72 8 -89 44 -97 17 -3 37 -11 44 -17 17 -14 257 -13 274 0 7 6 29
13 48 17 50 9 119 45 131 68 11 20 3 78 -11 78 -4 0 -10 9 -13 20 -5 21 -11
23 -37 13z"/>
<path d="M4646 2763 c-11 -3 -32 -18 -48 -33 -33 -34 -38 -95 -11 -138 24 -38
32 -42 84 -42 69 0 99 31 99 103 0 50 -3 58 -35 86 -35 30 -49 34 -89 24z"/>
<path d="M4357 2473 c-41 -11 -60 -43 -61 -104 -1 -49 3 -61 23 -80 27 -26 98
-36 130 -20 22 12 51 70 51 101 0 22 -20 61 -41 83 -18 17 -73 28 -102 20z"/>
<path d="M4061 2194 c-20 -21 -24 -36 -24 -83 0 -76 26 -106 93 -106 99 0 139
114 66 192 -31 33 -102 32 -135 -3z"/>
</g>
</svg>
