<?xml version="1.0" standalone="yes"?>
<svg xmlns="http://www.w3.org/2000/svg" width="1238" height="1238">
<path style="fill:#ffffff; stroke:none;" d="M0 0L1 1L0 0z"/>
<path style="fill:#686868; stroke:none;" d="M1238 1238L1238 0L349 0L100 0L31 0C23.3914 0 9.1698 -2.76807 2.3179 0.603394C-1.86908 2.66357 0 13.139 0 17L0 65L0 270L0 1000L0 1178L0 1222C0 1225.63 -1.59955 1234.44 1.6034 1236.97C5.86751 1240.35 18.7222 1238 24 1238L85 1238L321 1238L1238 1238z"/>
<path style="fill:#020202; stroke:none;" d="M1 1L1 254L2 254C2 123.84 119.764 2 251 2L228 1L177 1L1 1M988 1L988 2C1113.1 2 1235.99 119.428 1236 246L1237 246L1237 1L988 1z"/>
<path style="fill:#686868; stroke:none;" d="M236 2L236 3L242 3L236 2z"/>
<path style="fill:#ffffff; stroke:none;" d="M242 2.42444C213.648 6.14868 186.512 11.0806 160 22.4275C91.4091 51.7836 36.2215 111.576 14.0255 183C2.20641 221.032 2 258.608 2 298L2 403L2 796L2 922C2 948.89 0.578184 976.238 3.16975 1003C7.49812 1047.7 24.5016 1091.62 50.7454 1128C95.9495 1190.67 167.959 1230.63 245 1235.91C294.822 1239.32 346.048 1236 396 1236L698 1236L898 1236C938.42 1236 979.979 1238.9 1020 1232.73C1111.12 1218.66 1189.47 1150.85 1220.95 1065C1235.99 1023.97 1236 983.031 1236 940L1236 822L1236 363C1236 319.627 1239.93 274.06 1234.71 231C1229.26 186.026 1212.11 143.459 1185.27 107C1146.25 54.0138 1086.03 16.3656 1021 5.43518C985.884 -0.467407 949.495 2 914 2L464 2L317 2C292.55 2 266.234 -0.758911 242 2.42444z"/>
<path style="fill:#686868; stroke:none;" d="M996 2L996 3L1002 3L996 2M228 3L228 4L232 4L228 3M1006 3L1006 4L1010 4L1006 3M221 4L221 5L224 5L221 4M1014 4L1014 5L1018 5L1014 4M216.667 5.33337L217.333 5.66663L216.667 5.33337M1021.67 5.33337L1022.33 5.66663L1021.67 5.33337M210 6L210 7L213 7L210 6M1026.67 6.33337L1027.33 6.66663L1026.67 6.33337M205 7L205 8L208 8L205 7M1030 7L1030 8L1033 8L1030 7M201.667 8.33337L202.333 8.66663L201.667 8.33337M1035.67 8.33337L1036.33 8.66663L1035.67 8.33337M197.667 9.33337L198.333 9.66663L197.667 9.33337M1039.67 9.33337L1040.33 9.66663L1039.67 9.33337M193.667 10.3334L194.333 10.6666L193.667 10.3334M1043.67 10.3334L1044.33 10.6666L1043.67 10.3334M190.667 11.3334L191.333 11.6666L190.667 11.3334M1047 11L1048 12L1047 11M186.667 12.3334L187.333 12.6666L186.667 12.3334M1050.67 12.3334L1051.33 12.6666L1050.67 12.3334M184 13L185 14L184 13M1054 13L1055 14L1054 13M180.667 14.3334L181.333 14.6666L180.667 14.3334M1056.67 14.3334L1057.33 14.6666L1056.67 14.3334M177.667 15.3334L178.333 15.6666L177.667 15.3334M1060 15L1061 16L1060 15M174.667 16.3334L175.333 16.6666L174.667 16.3334M1062.67 16.3334L1063.33 16.6666L1062.67 16.3334M172 17L173 18L172 17M1065.67 17.3334L1066.33 17.6666L1065.67 17.3334M169 18L170 19L169 18M1068 18L1069 19L1068 18M166.667 19.3334L167.333 19.6666L166.667 19.3334M1070.67 19.3334L1071.33 19.6666L1070.67 19.3334M164 20L165 21L164 20M1073 20L1074 21L1073 20M162 21L163 22L162 21M1075.67 21.3334L1076.33 21.6666L1075.67 21.3334M1078 22L1079 23L1078 22M157 23L158 24L157 23M1080 23L1081 24L1080 23M155 24L156 25L155 24M1082.67 24.3334L1083.33 24.6666L1082.67 24.3334M153 25L154 26L153 25M1085 25L1086 26L1085 25M150.667 26.3334L151.333 26.6666L150.667 26.3334M1087 26L1088 27L1087 26M148.667 27.3334L149.333 27.6666L148.667 27.3334M1089 27L1090 28L1089 27M146.667 28.3334L147.333 28.6666L146.667 28.3334M1091 28L1092 29L1091 28M144.667 29.3334L145.333 29.6666L144.667 29.3334M1093 29L1094 30L1093 29M142.667 30.3334L143.333 30.6666L142.667 30.3334M1095 30L1096 31L1095 30M141 31L142 32L141 31M1097 31L1098 32L1097 31M139 32L140 33L139 32M1099 32L1100 33L1099 32M137 33L138 34L137 33M1100 33L1101 34L1100 33M135 34L136 35L135 34M1102 34L1103 35L1102 34M133 35L134 36L133 35M1104 35L1105 36L1104 35M1106 36L1107 37L1106 36M130 37L131 38L130 37M128 38L129 39L128 38M1109 38L1110 39L1109 38M127 39L128 40L127 39M1111 39L1112 40L1111 39M125 40L126 41L125 40M1112 40L1113 41L1112 40M123 41L124 42L123 41M1114 41L1115 42L1114 41M122 42L123 43L122 42M120 43L121 44L120 43M1117 43L1118 44L1117 43M119 44L120 45L119 44M1119 44L1120 45L1119 44M117 45L118 46L117 45M1120 45L1121 46L1120 45M116 46L117 47L116 46M1122 46L1123 47L1122 46M114 47L115 48L114 47M1123 47L1124 48L1123 47M113 48L114 49L113 48M1124 48L1125 49L1124 48M111 49L112 50L111 49M1126 49L1127 50L1126 49M110 50L111 51L110 50M109 51L110 52L109 51M1129 51L1130 52L1129 51M107 52L108 53L107 52M1130 52L1131 53L1130 52M106 53L107 54L106 53M1133 54L1134 55L1133 54M1134 55L1135 56L1134 55M102 56L103 57L102 56M101 57L102 58L101 57M1138 58L1139 59L1138 58M98 59L99 60L98 59M1139 59L1140 60L1139 59M97 60L98 61L97 60M1140 60L1141 61L1140 60M96 61L97 62L96 61M95 62L96 63L95 62M1143 62L1144 63L1143 62M93 63L94 64L93 63M1144 63L1145 64L1144 63M92 64L93 65L92 64M1145 64L1146 65L1145 64M91 65L92 66L91 65M1146 65L1147 66L1146 65M90 66L91 67L90 66M89 67L90 68L89 67M88 68L89 69L88 68M1151 69L1152 70L1151 69M1152 70L1153 71L1152 70M1153 71L1154 72L1153 71M83 72L84 73L83 72M1154 72L1155 73L1154 72M82 73L83 74L82 73M1155 73L1156 74L1155 73M81 74L82 75L81 74M1156 74L1157 75L1156 74M80 75L81 76L80 75M1157 75L1158 76L1157 75M79 76L80 77L79 76M1158 76L1159 77L1158 76M78 77L79 78L78 77M1159 77L1160 78L1159 77M77 78L78 79L77 78M1160 78L1161 79L1160 78M76 79L77 80L76 79M1161 79L1162 80L1161 79M75 80L76 81L75 80M1162 80L1163 81L1162 80M74 81L75 82L74 81M1163 81L1164 82L1163 81M73 82L74 83L73 82M1164 82L1165 83L1164 82M1165 83L1166 84L1165 83M1166 84L1167 85L1166 84M1167 85L1168 86L1167 85M1168 86L1169 87L1168 86M1169 87L1170 88L1169 87M67 89L68 90L67 89M66 90L67 91L66 90M65 91L66 92L65 91M1172 91L1173 92L1172 91M64 92L65 93L64 92M1173 92L1174 93L1173 92M1174 93L1175 94L1174 93M1175 94L1176 95L1175 94M62 95L63 96L62 95M61 96L62 97L61 96M60 97L61 98L60 97M59 98L60 99L59 98M1178 98L1179 99L1178 98M1179 99L1180 100L1179 99M57 101L58 102L57 101M56 102L57 103L56 102M1181 102L1182 103L1181 102M1182 103L1183 104L1182 103M1183 104L1184 105L1183 104M54 105L55 106L54 105M53 106L54 107L53 106M52 107L53 108L52 107M1185 107L1186 108L1185 107M1186 108L1187 109L1186 108M51 109L52 110L51 109M50 110L51 111L50 110M1187 110L1188 111L1187 110M1188 111L1189 112L1188 111M48 113L49 114L48 113M47 114L48 115L47 114M1190 114L1191 115L1190 114M1191 115L1192 116L1191 115M46 116L47 117L46 116M45 117L46 118L45 117M1192 117L1193 118L1192 117M1193 118L1194 119L1193 118M44 119L45 120L44 119M43 120L44 121L43 120M1194 120L1195 121L1194 120M1195 121L1196 122L1195 121M42 122L43 123L42 122M1196 123L1197 124L1196 123M40 125L41 126L40 125M1198 126L1199 127L1198 126M39 127L40 128L39 127M38 128L39 129L38 128M1199 128L1200 129L1199 128M1200 129L1201 130L1200 129M37 130L38 131L37 130M1201 131L1202 132L1201 131M36 132L37 133L36 132M35 133L36 134L35 133M1202 133L1203 134L1202 133M34 135L35 136L34 135M1203 135L1204 136L1203 135M1204 136L1205 137L1204 136M33 137L34 138L33 137M1205 138L1206 139L1205 138M32 139L33 140L32 139M1206 140L1207 141L1206 140M31 141L32 142L31 141M1207 142L1208 143L1207 142M30 143L31 144L30 143M1208 144L1209 145L1208 144M29 145L30 146L29 145M1209 146L1210 147L1209 146M28 147L29 148L28 147M1210 148L1211 149L1210 148M27 149L28 150L27 149M1211 150L1212 151L1211 150M26 151L27 152L26 151M1212 152L1213 153L1212 152M25 153L26 154L25 153M1213 154L1214 155L1213 154M24 155L25 156L24 155M23 157L24 158L23 157M1214 157L1215 158L1214 157M1215 159L1216 160L1215 159M1216 161L1217 162L1216 161M21 162L22 163L21 162M1217.33 163.667L1217.67 164.333L1217.33 163.667M20.3333 164.667L20.6667 165.333L20.3333 164.667M1218 166L1219 167L1218 166M19 167L20 168L19 167M1219.33 168.667L1219.67 169.333L1219.33 168.667M18.3333 169.667L18.6667 170.333L18.3333 169.667M1220 171L1221 172L1220 171M17 172L18 173L17 172M1221 174L1222 175L1221 174M16 175L17 176L16 175M15.3333 177.667L15.6667 178.333L15.3333 177.667M1222 177L1223 178L1222 177M1223 180L1224 181L1223 180M14 181L15 182L14 181M1224.33 182.667L1224.67 183.333L1224.33 182.667M13 184L14 185L13 184M1225 186L1226 187L1225 186M12.3333 187.667L12.6667 188.333L12.3333 187.667M1226.33 189.667L1226.67 190.333L1226.33 189.667M11.3333 190.667L11.6667 191.333L11.3333 190.667M1227 193L1228 194L1227 193M10.3333 194.667L10.6667 195.333L10.3333 194.667M1228.33 196.667L1228.67 197.333L1228.33 196.667M9.33333 198.667L9.66667 199.333L9.33333 198.667M1229.33 200.667L1229.67 201.333L1229.33 200.667M8.33333 202.667L8.66667 203.333L8.33333 202.667M1230 205L1231 206L1230 205M7.33333 206.667L7.66667 207.333L7.33333 206.667M1231.33 209.667L1231.67 210.333L1231.33 209.667M6 210L6 213L7 213L6 210z"/>
<path style="fill:#622dff; stroke:none;" d="M773 214C776.694 234.786 792.698 256.915 801.702 276C823.159 321.481 845.399 366.583 867 412L870 412L930.781 280L949.258 240L960 215L773 214z"/>
<path style="fill:#c43bff; stroke:none;" d="M784 214L784 215L824 215C813.488 210.589 795.434 214 784 214z"/>
<path style="fill:#686868; stroke:none;" d="M824 214L824 215L866 215C855.012 210.389 835.957 214 824 214M1232 214L1232 217L1233 217L1232 214M960 215L961 216L960 215M5 216L5 219L6 219L5 216z"/>
<path style="fill:#c43bff; stroke:none;" d="M285 217L318.694 295L382.573 441L558.86 845L637 1024L638 1024L659 964L666 939C669.488 936.434 670.607 932.163 670 928C676.767 922.922 679.077 906.857 681.947 899C683.081 895.896 685.512 891.625 683 889L683 888C688.368 886.119 690.766 876.182 690 871L691 867L693 868L692 865L695 861L693 862L693 861L696 860L695 856L700 848L701 844L699 838L700 838L701 843L702 843L701 840L704 835L703 835L702 839L701 839L699 781L700 751L701 751L702 780L702 834L703 834C703.653 832.04 704 831.446 704 834L705 834L705 828L707 828L706 825L709 821C702.909 821 707.63 810.74 709 808L705 810L704 767L707 768L707 767L706 763L707 763L707 766L708 766L710 764L709 761L708 763L707 763C707.435 760.177 708.212 757.452 705 757L703 747L702 747L703 752L702 752L698 741C698.514 736.744 696.838 727.64 692 727L693 724L685 711C685.457 705.821 683.293 699.147 679 696L677 692C677.52 687.589 675.755 682.562 672 680C672.555 670.433 664.066 657.773 660.281 649C650.343 625.966 640.218 603.028 630.281 580C593.855 495.588 557.012 411.348 520.424 327C509.147 301.001 497.729 275.056 486.579 249C483.244 241.207 479.131 223.085 472.301 218.028C469.223 215.749 462.627 217 459 217L423 217L285 217M773 217L774 218L773 217z"/>
<path style="fill:#686868; stroke:none;" d="M774 219L775 220L774 219M958 220L959 221L958 220M1233 220L1233 223L1234 223L1233 220z"/>
<path style="fill:#c43bff; stroke:none;" d="M775 221L776 222L775 221z"/>
<path style="fill:#686868; stroke:none;" d="M4 222L4 225L5 225L4 222M957 222L958 223L957 222M956 224L957 225L956 224z"/>
<path style="fill:#c43bff; stroke:none;" d="M777 225L778 226L777 225z"/>
<path style="fill:#686868; stroke:none;" d="M955 226L956 227L955 226M1234 226L1234 230L1235 230L1234 226z"/>
<path style="fill:#c43bff; stroke:none;" d="M778 227L779 228L778 227z"/>
<path style="fill:#686868; stroke:none;" d="M3 229L3 233L4 233L3 229z"/>
<path style="fill:#c43bff; stroke:none;" d="M779 229L780 230L779 229z"/>
<path style="fill:#686868; stroke:none;" d="M779 230L780 231L779 230M780 232L781 233L780 232M952 233L953 234L952 233z"/>
<path style="fill:#c43bff; stroke:none;" d="M781 234L782 235L781 234z"/>
<path style="fill:#686868; stroke:none;" d="M951 235L952 236L951 235M1235 235L1235 240L1236 240L1235 235M782 236L783 237L782 236M950 237L951 238L950 237M2 238L2 244L3 244L2 238z"/>
<path style="fill:#c43bff; stroke:none;" d="M783 238L784 239L783 238z"/>
<path style="fill:#686868; stroke:none;" d="M949 239L950 240L949 239M784 240L785 241L784 240M948 241L949 242L948 241z"/>
<path style="fill:#c43bff; stroke:none;" d="M785 242L786 243L785 242z"/>
<path style="fill:#686868; stroke:none;" d="M947 243L948 244L947 243M786 244L787 245L786 244z"/>
<path style="fill:#c43bff; stroke:none;" d="M787 246L788 247L787 246M788 248L789 249L788 248M789 250L790 251L789 250z"/>
<path style="fill:#686868; stroke:none;" d="M944 250L945 251L944 250M790 252L791 253L790 252M943 252L944 253L943 252z"/>
<path style="fill:#c43bff; stroke:none;" d="M791 254L792 255L791 254z"/>
<path style="fill:#686868; stroke:none;" d="M942 254L943 255L942 254M792 257L793 258L792 257M793 259L794 260L793 259M794 261L795 262L794 261M939 261L940 262L939 261M795 263L796 264L795 263M938 263L939 264L938 263z"/>
<path style="fill:#c43bff; stroke:none;" d="M796 265L797 266L796 265z"/>
<path style="fill:#686868; stroke:none;" d="M937 265L938 266L937 265M797 267L798 268L797 267M936 267L937 268L936 267z"/>
<path style="fill:#c43bff; stroke:none;" d="M798 269L799 270L798 269z"/>
<path style="fill:#686868; stroke:none;" d="M935 269L936 270L935 269z"/>
<path style="fill:#c43bff; stroke:none;" d="M799 271L800 272L799 271M800 273L801 274L800 273z"/>
<path style="fill:#686868; stroke:none;" d="M933 274L934 275L933 274z"/>
<path style="fill:#c43bff; stroke:none;" d="M801 275L802 276L801 275z"/>
<path style="fill:#686868; stroke:none;" d="M932 276L933 277L932 276z"/>
<path style="fill:#c43bff; stroke:none;" d="M802 277L803 278L802 277z"/>
<path style="fill:#686868; stroke:none;" d="M931 278L932 279L931 278M930 280L931 281L930 280z"/>
<path style="fill:#c43bff; stroke:none;" d="M804 281L805 282L804 281z"/>
<path style="fill:#686868; stroke:none;" d="M804 282L805 283L804 282M929 282L930 283L929 282M805 284L806 285L805 284M806 286L807 287L806 286M927 287L928 288L927 287M807 288L808 289L807 288M926 289L927 290L926 289M808 290L809 291L808 290M925 291L926 292L925 291z"/>
<path style="fill:#c43bff; stroke:none;" d="M809 292L810 293L809 292z"/>
<path style="fill:#686868; stroke:none;" d="M924 293L925 294L924 293z"/>
<path style="fill:#c43bff; stroke:none;" d="M810 294L811 295L810 294z"/>
<path style="fill:#686868; stroke:none;" d="M923 295L924 296L923 295M811 296L812 297L811 296M922 297L923 298L922 297M812 298L813 299L812 298z"/>
<path style="fill:#c43bff; stroke:none;" d="M813 300L814 301L813 300z"/>
<path style="fill:#686868; stroke:none;" d="M921 300L922 301L921 300z"/>
<path style="fill:#c43bff; stroke:none;" d="M814 302L815 303L814 302z"/>
<path style="fill:#686868; stroke:none;" d="M920 302L921 303L920 302z"/>
<path style="fill:#c43bff; stroke:none;" d="M815 304L816 305L815 304z"/>
<path style="fill:#686868; stroke:none;" d="M919 304L920 305L919 304z"/>
<path style="fill:#c43bff; stroke:none;" d="M816 306L817 307L816 306z"/>
<path style="fill:#686868; stroke:none;" d="M918 306L919 307L918 306z"/>
<path style="fill:#c43bff; stroke:none;" d="M817 308L818 309L817 308z"/>
<path style="fill:#686868; stroke:none;" d="M917 308L918 309L917 308z"/>
<path style="fill:#c43bff; stroke:none;" d="M818 310L819 311L818 310z"/>
<path style="fill:#686868; stroke:none;" d="M818 311L819 312L818 311M819 313L820 314L819 313M820 315L821 316L820 315M914 315L915 316L914 315z"/>
<path style="fill:#c43bff; stroke:none;" d="M821 317L822 318L821 317z"/>
<path style="fill:#686868; stroke:none;" d="M913 317L914 318L913 317z"/>
<path style="fill:#c43bff; stroke:none;" d="M822 319L823 320L822 319z"/>
<path style="fill:#686868; stroke:none;" d="M912 319L913 320L912 319M823 321L824 322L823 321M911 321L912 322L911 321M824 323L825 324L824 323M910 323L911 324L910 323z"/>
<path style="fill:#c43bff; stroke:none;" d="M825 325L826 326L825 325M826 327L827 328L826 327M827 329L828 330L827 329z"/>
<path style="fill:#686868; stroke:none;" d="M907 330L908 331L907 330z"/>
<path style="fill:#c43bff; stroke:none;" d="M828 331L829 332L828 331z"/>
<path style="fill:#686868; stroke:none;" d="M906 332L907 333L906 332z"/>
<path style="fill:#c43bff; stroke:none;" d="M829 333L830 334L829 333z"/>
<path style="fill:#686868; stroke:none;" d="M905 334L906 335L905 334M904 336L905 337L904 336z"/>
<path style="fill:#c43bff; stroke:none;" d="M831 337L832 338L831 337z"/>
<path style="fill:#686868; stroke:none;" d="M832 340L833 341L832 340M902 341L903 342L902 341M833 342L834 343L833 342M901 343L902 344L901 343M834 344L835 345L834 344M900 345L901 346L900 345M835 346L836 347L835 346M899 347L900 348L899 347M836 348L837 349L836 348M898 349L899 350L898 349M837 350L838 351L837 350z"/>
<path style="fill:#c43bff; stroke:none;" d="M838 352L839 353L838 352M839 354L840 355L839 354z"/>
<path style="fill:#686868; stroke:none;" d="M896 354L897 355L896 354z"/>
<path style="fill:#c43bff; stroke:none;" d="M840 356L841 357L840 356z"/>
<path style="fill:#686868; stroke:none;" d="M895 356L896 357L895 356z"/>
<path style="fill:#c43bff; stroke:none;" d="M841 358L842 359L841 358z"/>
<path style="fill:#686868; stroke:none;" d="M894 358L895 359L894 358M841 359L842 360L841 359M893 360L894 361L893 360M892 362L893 363L892 362M891 364L892 365L891 364M844 365L845 366L844 365z"/>
<path style="fill:#c43bff; stroke:none;" d="M890 366L891 367L890 366z"/>
<path style="fill:#686868; stroke:none;" d="M845 367L846 368L845 367M890 367L891 368L890 367M846 369L847 370L846 369M889 369L890 370L889 369M847 371L848 372L847 371M888 371L889 372L888 371M848 373L849 374L848 373M887 373L888 374L887 373z"/>
<path style="fill:#c43bff; stroke:none;" d="M849 375L850 376L849 375z"/>
<path style="fill:#686868; stroke:none;" d="M850 377L851 378L850 377z"/>
<path style="fill:#c43bff; stroke:none;" d="M885 377L886 378L885 377z"/>
<path style="fill:#686868; stroke:none;" d="M851 379L852 380L851 379M852 381L853 382L852 381M883 382L884 383L883 382M882 384L883 385L882 384z"/>
<path style="fill:#c43bff; stroke:none;" d="M854 385L855 386L854 385z"/>
<path style="fill:#686868; stroke:none;" d="M881 386L882 387L881 386M880 388L881 389L880 388M879 390L880 391L879 390M857 392L858 393L857 392M878 393L879 394L878 393M858 394L859 395L858 394M877 395L878 396L877 395M859 396L860 397L859 396M876 397L877 398L876 397M860 398L861 399L860 398M875 399L876 400L875 399z"/>
<path style="fill:#c43bff; stroke:none;" d="M861 400L862 401L861 400z"/>
<path style="fill:#686868; stroke:none;" d="M874 401L875 402L874 401z"/>
<path style="fill:#c43bff; stroke:none;" d="M862 402L863 403L862 402z"/>
<path style="fill:#686868; stroke:none;" d="M873 403L874 404L873 403z"/>
<path style="fill:#c43bff; stroke:none;" d="M863 404L864 405L863 404z"/>
<path style="fill:#686868; stroke:none;" d="M864 406L865 407L864 406M871 408L872 409L871 408z"/>
<path style="fill:#c43bff; stroke:none;" d="M866 410L867 411L866 410M870 410L871 411L870 410z"/>
<path style="fill:#686868; stroke:none;" d="M668 668L669 669L668 668z"/>
<path style="fill:#622dff; stroke:none;" d="M672 679L673 680L672 679M677 691L678 692L677 691M677 695L678 696L677 695M679 695L680 696L679 695z"/>
<path style="fill:#686868; stroke:none;" d="M681 698L682 699L681 698z"/>
<path style="fill:#622dff; stroke:none;" d="M682.333 708.667L682.667 709.333L682.333 708.667M685.333 709.667L685.667 710.333L685.333 709.667M684 711L685 712L684 711M685 713L687 715L685 713M688 717L689 718L688 717M689 719L690 720L689 719M688 721L688 724L689 724L688 721z"/>
<path style="fill:#686868; stroke:none;" d="M691 721L692 722L691 721z"/>
<path style="fill:#622dff; stroke:none;" d="M691 723L692 724L691 723M692.333 725.667L692.667 726.333L692.333 725.667M691 728L691 731L692 731L691 728M693 730L695 733L693 730M695 734L695 736L697 736L695 734M692 735L693 736L692 735M698.333 739.667L698.667 740.333L698.333 739.667M696 741L696 747L697 747C697.653 745.04 698 744.446 698 747L699 747L700 742L696 741M700 744L702 752L703 752L700 744z"/>
<path style="fill:#686868; stroke:none;" d="M701 744L702 745L701 744z"/>
<path style="fill:#c43bff; stroke:none;" d="M701 745L702 746L701 745z"/>
<path style="fill:#622dff; stroke:none;" d="M697 752L698 752L700 751C698.583 748.477 697.517 749.542 697 752M700 751L699 781L701 839L702 839L704 832L703 832L703 834L702 834L702 774C702 767.374 704.116 756.434 700 751M704 754L705 755L704 754M705.333 755.667L705.667 756.333L705.333 755.667M705 758L704 765L705 765L707 758L705 758M707 760L707 763L708 763L707 760M706 763L707 767L707 768L704 767L705 810L709 808C706 812.545 705.095 817.15 708 822L708 817L712 810L710 811L713 809C714.51 798.72 725.324 784.143 713 776L710 770L709 763L708 766L707 766L706 763z"/>
<path style="fill:#c43bff; stroke:none;" d="M710.333 765.667L710.667 766.333L710.333 765.667M708 767L709 768L708 767M710 768L710 770L712 770L712 768L710 768M712 770L713 771L712 770M713 772L714 773L713 772M712 773L713 774L712 773M707 774L707 776L709 776L707 774M714 774L713 776L715 776L714 774M712 777L713 778L712 777M715 777L716 778L715 777M713 779L714 780L713 779M716 779L717 780L716 779M715 780L715 788L716 788L715 780M712 781L713 782L712 781z"/>
<path style="fill:#686868; stroke:none;" d="M717 781L718 782L717 781z"/>
<path style="fill:#c43bff; stroke:none;" d="M717 782L718 783L717 782M716 784L717 785L716 784M718.333 784.667L718.667 785.333L718.333 784.667M712 786L712 791L713 791L712 786M719.333 786.667L719.667 787.333L719.333 786.667M717 788L718 789L717 788M714 789L714 792L715 792L714 789M719 789L718 792L719 789M718 793L719 794L718 793M714 795L715 796L714 795M716 795L716 800L717 800L718 795L716 795M713.333 800.667L713.667 801.333L713.333 800.667M715.333 801.667L715.667 802.333L715.333 801.667M714.333 804.667L714.667 805.333L714.333 804.667M713 806L712 808L714 808L713 806M710 811L713 811L711 809L710 811z"/>
<path style="fill:#622dff; stroke:none;" d="M704 810L704 813L705 813L704 810z"/>
<path style="fill:#c43bff; stroke:none;" d="M709 811L707 817L708 817L709 811M711.333 812.667L711.667 813.333L711.333 812.667M710 814L710 817L711 817L710 814z"/>
<path style="fill:#622dff; stroke:none;" d="M704 816L704 828L705 828L704 816z"/>
<path style="fill:#c43bff; stroke:none;" d="M708 817L710 820L708 817z"/>
<path style="fill:#622dff; stroke:none;" d="M706.333 825.667L706.667 826.333L706.333 825.667z"/>
<path style="fill:#686868; stroke:none;" d="M707 825L708 826L707 825z"/>
<path style="fill:#622dff; stroke:none;" d="M705 828L706 829L705 828M704 830L705 831L704 830M697 832L698 838L699 838L697 832M699 838L701 844L699 838M696 839L696 842L697 842L696 839M701 840L702 841L701 840M696 843L697 847L698 847L696 843z"/>
<path style="fill:#686868; stroke:none;" d="M700 845L701 846L700 845z"/>
<path style="fill:#622dff; stroke:none;" d="M698 847L697 852L698 852L698 847z"/>
<path style="fill:#c43bff; stroke:none;" d="M698.333 849.667L698.667 850.333L698.333 849.667z"/>
<path style="fill:#622dff; stroke:none;" d="M690 856L691 857L690 856M693.333 856.667L693.667 857.333L693.333 856.667M695.333 856.667L695.667 857.333L695.333 856.667M688.333 858.667L688.667 859.333L688.333 858.667M691 858L691 861L692 861L691 858M694 859L693 862L694 859M688 863L690 867L691 867L688 863M692 863L693 864L692 863M692 865L693 866L692 865M688 867L689 868L688 867M691.333 867.667L691.667 868.333L691.333 867.667M689.333 869.667L689.667 870.333L689.333 869.667M690 871L691 872L690 871M688.333 875.667L688.667 876.333L688.333 875.667M682 887L681 889L682 887M683.667 888.333L684.333 888.667L683.667 888.333M677 904L678 905L677 904M673 906L674 907L673 906M676.333 906.667L676.667 907.333L676.333 906.667M670 928L671 929L670 928M666 939L667 940L666 939z"/>
<path style="fill:#686868; stroke:none;" d="M662 953L663 954L662 953z"/>
<path style="fill:#020202; stroke:none;" d="M1 984L1 1237L250 1237L250 1236C152.348 1236 60.006 1165.82 22.4275 1078C13.9468 1058.18 8.00894 1037.28 4.58951 1016C3.04395 1006.38 4.66031 992.723 1 984M1236 992C1235.99 1117.88 1113.75 1236 989 1236L989 1237L1237 1237L1237 1064L1237 1015L1236 992z"/>
<path style="fill:#686868; stroke:none;" d="M2 994L2 1000L3 1000L2 994M1235 998L1235 1003L1236 1003L1235 998M3 1005L3 1009L4 1009L3 1005M1234 1008L1234 1011L1235 1011L1234 1008M4 1013L4 1016L5 1016L4 1013M1233 1015L1233 1018L1234 1018L1233 1015M5 1019L5 1022L6 1022L5 1019M1232 1021L1232 1024L1233 1024L1232 1021M6.33333 1025.67L6.66667 1026.33L6.33333 1025.67M1231.33 1027.67L1231.67 1028.33L1231.33 1027.67M7.33333 1030.67L7.66667 1031.33L7.33333 1030.67M1230.33 1032.67L1230.67 1033.33L1230.33 1032.67M8 1035L9 1036L8 1035M1229.33 1036.67L1229.67 1037.33L1229.33 1036.67M9.33333 1038.67L9.66667 1039.33L9.33333 1038.67M1228.33 1040.67L1228.67 1041.33L1228.33 1040.67M10 1043L11 1044L10 1043M1227 1044L1228 1045L1227 1044M11.3333 1046.67L11.6667 1047.33L11.3333 1046.67M1226.33 1047.67L1226.67 1048.33L1226.33 1047.67M12.3333 1049.67L12.6667 1050.33L12.3333 1049.67M1225 1051L1226 1052L1225 1051M13 1053L14 1054L13 1053M1224 1054L1225 1055L1224 1054M14.3333 1056.67L14.6667 1057.33L14.3333 1056.67M1223 1057L1224 1058L1223 1057M15.3333 1059.67L15.6667 1060.33L15.3333 1059.67M1222 1060L1223 1061L1222 1060M16 1062L17 1063L16 1062M1221 1063L1222 1064L1221 1063M17 1065L18 1066L17 1065M1220 1066L1221 1067L1220 1066M18.3333 1067.67L18.6667 1068.33L18.3333 1067.67M1219 1068L1220 1069L1219 1068M19 1070L20 1071L19 1070M1218 1071L1219 1072L1218 1071M20.3333 1072.67L20.6667 1073.33L20.3333 1072.67M1217 1073L1218 1074L1217 1073M21 1075L22 1076L21 1075M1216 1076L1217 1077L1216 1076M22.3333 1077.67L22.6667 1078.33L22.3333 1077.67M1215 1078L1216 1079L1215 1078M23 1080L24 1081L23 1080M1214.33 1080.67L1214.67 1081.33L1214.33 1080.67M24 1082L25 1083L24 1082M1213 1083L1214 1084L1213 1083M25 1084L26 1085L25 1084M1212 1085L1213 1086L1212 1085M26 1086L27 1087L26 1086M1211 1087L1212 1088L1211 1087M27.3333 1088.67L27.6667 1089.33L27.3333 1088.67M1210 1089L1211 1090L1210 1089M28 1090L29 1091L28 1090M1209 1091L1210 1092L1209 1091M29 1092L30 1093L29 1092M1208 1093L1209 1094L1208 1093M30 1094L31 1095L30 1094M1207 1095L1208 1096L1207 1095M31 1096L32 1097L31 1096M1206 1097L1207 1098L1206 1097M32 1098L33 1099L32 1098M1205 1099L1206 1100L1205 1099M33 1100L34 1101L33 1100M1204 1101L1205 1102L1204 1101M34 1102L35 1103L34 1102M1203 1102L1204 1103L1203 1102M35 1104L36 1105L35 1104M1202 1104L1203 1105L1202 1104M36 1105L37 1106L36 1105M1201 1106L1202 1107L1201 1106M37 1107L38 1108L37 1107M1200 1108L1201 1109L1200 1108M38 1109L39 1110L38 1109M1199 1109L1200 1110L1199 1109M39 1110L40 1111L39 1110M1198 1111L1199 1112L1198 1111M40 1112L41 1113L40 1112M41 1114L42 1115L41 1114M1196 1114L1197 1115L1196 1114M42 1115L43 1116L42 1115M1195 1116L1196 1117L1195 1116M43 1117L44 1118L43 1117M1194 1117L1195 1118L1194 1117M44 1118L45 1119L44 1118M1193 1119L1194 1120L1193 1119M45 1120L46 1121L45 1120M1192 1120L1193 1121L1192 1120M46 1121L47 1122L46 1121M1191 1122L1192 1123L1191 1122M47 1123L48 1124L47 1123M1190 1123L1191 1124L1190 1123M48 1124L49 1125L48 1124M1189 1125L1190 1126L1189 1125M49 1126L50 1127L49 1126M1188 1126L1189 1127L1188 1126M50 1127L51 1128L50 1127M1186 1129L1187 1130L1186 1129M52 1130L53 1131L52 1130M1185 1130L1186 1131L1185 1130M53 1131L54 1132L53 1131M54 1132L55 1133L54 1132M1184 1132L1185 1133L1184 1132M1183 1133L1184 1134L1183 1133M55 1134L56 1135L55 1134M1182 1134L1183 1135L1182 1134M56 1135L57 1136L56 1135M1179 1138L1180 1139L1179 1138M59 1139L60 1140L59 1139M1178 1139L1179 1140L1178 1139M60 1140L61 1141L60 1140M1177 1140L1178 1141L1177 1140M61 1141L62 1142L61 1141M1176 1142L1177 1143L1176 1142M1175 1143L1176 1144L1175 1143M1174 1144L1175 1145L1174 1144M64 1145L65 1146L64 1145M1173 1145L1174 1146L1173 1145M65 1146L66 1147L65 1146M66 1147L67 1148L66 1147M67 1148L68 1149L67 1148M68 1149L69 1150L68 1149M1169 1150L1170 1151L1169 1150M1168 1151L1169 1152L1168 1151M1167 1152L1168 1153L1167 1152M71 1153L72 1154L71 1153M1166 1153L1167 1154L1166 1153M72 1154L73 1155L72 1154M1165 1154L1166 1155L1165 1154M73 1155L74 1156L73 1155M1164 1155L1165 1156L1164 1155M74 1156L75 1157L74 1156M1163 1156L1164 1157L1163 1156M75 1157L76 1158L75 1157M1162 1157L1163 1158L1162 1157M76 1158L77 1159L76 1158M1161 1158L1162 1159L1161 1158M77 1159L78 1160L77 1159M1160 1159L1161 1160L1160 1159M78 1160L79 1161L78 1160M1159 1160L1160 1161L1159 1160M79 1161L80 1162L79 1161M1158 1161L1159 1162L1158 1161M80 1162L81 1163L80 1162M1157 1162L1158 1163L1157 1162M81 1163L82 1164L81 1163M1156 1163L1157 1164L1156 1163M82 1164L83 1165L82 1164M1155 1164L1156 1165L1155 1164M83 1165L84 1166L83 1165M1154 1165L1155 1166L1154 1165M1153 1166L1154 1167L1153 1166M1152 1167L1153 1168L1152 1167M1151 1168L1152 1169L1151 1168M1150 1169L1151 1170L1150 1169M89 1170L90 1171L89 1170M90 1171L91 1172L90 1171M91 1172L92 1173L91 1172M92 1173L93 1174L92 1173M1145 1173L1146 1174L1145 1173M93 1174L94 1175L93 1174M1144 1174L1145 1175L1144 1174M1143 1175L1144 1176L1143 1175M1142 1176L1143 1177L1142 1176M97 1177L98 1178L97 1177M98 1178L99 1179L98 1178M1139 1178L1140 1179L1139 1178M1138 1179L1139 1180L1138 1179M101 1180L102 1181L101 1180M102 1181L103 1182L102 1181M103 1182L104 1183L103 1182M1134 1182L1135 1183L1134 1182M1133 1183L1134 1184L1133 1183M106 1184L107 1185L106 1184M107 1185L108 1186L107 1185M1130 1185L1131 1186L1130 1185M1129 1186L1130 1187L1129 1186M110 1187L111 1188L110 1187M1127 1187L1128 1188L1127 1187M111 1188L112 1189L111 1188M1126 1188L1127 1189L1126 1188M113 1189L114 1190L113 1189M114 1190L115 1191L114 1190M1123 1190L1124 1191L1123 1190M116 1191L117 1192L116 1191M1122 1191L1123 1192L1122 1191M117 1192L118 1193L117 1192M1120 1192L1121 1193L1120 1192M119 1193L120 1194L119 1193M1119 1193L1120 1194L1119 1193M120 1194L121 1195L120 1194M1117 1194L1118 1195L1117 1194M122 1195L123 1196L122 1195M1116 1195L1117 1196L1116 1195M123 1196L124 1197L123 1196M1114 1196L1115 1197L1114 1196M125 1197L126 1198L125 1197M126 1198L127 1199L126 1198M1111 1198L1112 1199L1111 1198M128 1199L129 1200L128 1199M1109 1199L1110 1200L1109 1199M130 1200L131 1201L130 1200M1107.67 1200.33L1108.33 1200.67L1107.67 1200.33M1106 1201L1107 1202L1106 1201M133 1202L134 1203L133 1202M1104 1202L1105 1203L1104 1202M135 1203L136 1204L135 1203M1102 1203L1103 1204L1102 1203M137 1204L138 1205L137 1204M1100.67 1204.33L1101.33 1204.67L1100.67 1204.33M139 1205L140 1206L139 1205M1099 1205L1100 1206L1099 1205M140 1206L141 1207L140 1206M1097 1206L1098 1207L1097 1206M142 1207L143 1208L142 1207M1095 1207L1096 1208L1095 1207M144.667 1208.33L145.333 1208.67L144.667 1208.33M1093 1208L1094 1209L1093 1208M146.667 1209.33L147.333 1209.67L146.667 1209.33M1091 1209L1092 1210L1091 1209M148 1210L149 1211L148 1210M1089 1210L1090 1211L1089 1210M150 1211L151 1212L150 1211M1087 1211L1088 1212L1087 1211M153 1212L154 1213L153 1212M1085 1212L1086 1213L1085 1212M155 1213L156 1214L155 1213M1083 1213L1084 1214L1083 1213M157 1214L158 1215L157 1214M1080 1214L1081 1215L1080 1214M159 1215L160 1216L159 1215M1078 1215L1079 1216L1078 1215M162 1216L163 1217L162 1216M1076 1216L1077 1217L1076 1216M164 1217L165 1218L164 1217M1073 1217L1074 1218L1073 1217M166.667 1218.33L167.333 1218.67L166.667 1218.33M1070.67 1218.33L1071.33 1218.67L1070.67 1218.33M169 1219L170 1220L169 1219M1068 1219L1069 1220L1068 1219M172 1220L173 1221L172 1220M1065.67 1220.33L1066.33 1220.67L1065.67 1220.33M174.667 1221.33L175.333 1221.67L174.667 1221.33M1062.67 1221.33L1063.33 1221.67L1062.67 1221.33M177 1222L178 1223L177 1222M1060 1222L1061 1223L1060 1222M180.667 1223.33L181.333 1223.67L180.667 1223.33M1057 1223L1058 1224L1057 1223M183.667 1224.33L184.333 1224.67L183.667 1224.33M1054 1224L1055 1225L1054 1224M187 1225L188 1226L187 1225M1050.67 1225.33L1051.33 1225.67L1050.67 1225.33M190 1226L191 1227L190 1226M1047.67 1226.33L1048.33 1226.67L1047.67 1226.33M193.667 1227.33L194.333 1227.67L193.667 1227.33M1043.67 1227.33L1044.33 1227.67L1043.67 1227.33M197.667 1228.33L198.333 1228.67L197.667 1228.33M1040.67 1228.33L1041.33 1228.67L1040.67 1228.33M201.667 1229.33L202.333 1229.67L201.667 1229.33M1035.67 1229.33L1036.33 1229.67L1035.67 1229.33M205 1230L205 1231L208 1231L205 1230M1031.67 1230.33L1032.33 1230.67L1031.67 1230.33M210.667 1231.33L211.333 1231.67L210.667 1231.33M1026.67 1231.33L1027.33 1231.67L1026.67 1231.33M215 1232L215 1233L218 1233L215 1232M1021.67 1232.33L1022.33 1232.67L1021.67 1232.33M221 1233L221 1234L224 1234L221 1233M1014 1233L1014 1234L1018 1234L1014 1233M228 1234L228 1235L232 1235L228 1234M1007 1234L1007 1235L1011 1235L1007 1234M236 1235L236 1236L242 1236L236 1235M996 1235L996 1236L1002 1236L996 1235z"/>
<path style="fill:#ffffff; stroke:none;" d="M0 1237L1 1238L0 1237z"/>
</svg>
