<?xml version="1.0" standalone="no"?>
<!DOCTYPE svg PUBLIC "-//W3C//DTD SVG 20010904//EN"
 "http://www.w3.org/TR/2001/REC-SVG-20010904/DTD/svg10.dtd">
<svg version="1.0" xmlns="http://www.w3.org/2000/svg"
 width="400.000000pt" height="400.000000pt" viewBox="0 0 400.000000 400.000000"
 preserveAspectRatio="xMidYMid meet">

<g transform="translate(0.000000,400.000000) scale(0.100000,-0.100000)"
fill="#000000" stroke="none">
<path d="M0 2000 l0 -2000 2000 0 2000 0 0 2000 0 2000 -2000 0 -2000 0 0
-2000z m2040 1435 c86 -45 124 -149 86 -238 -17 -41 -76 -93 -115 -102 l-30
-6 -3 -121 -3 -122 -102 -55 -103 -55 0 -212 0 -211 85 -53 85 -53 -2 -361
c-3 -353 -3 -361 -23 -361 -20 0 -20 8 -25 348 l-5 347 -80 53 -80 52 -3 236
c-2 191 0 238 11 248 8 6 54 33 103 59 l89 49 3 105 3 106 -35 12 c-41 13
-103 78 -112 117 -3 16 -8 34 -10 41 -2 7 1 34 8 59 28 111 157 171 258 118z
m789 -368 c53 -35 85 -102 79 -167 -7 -67 -41 -115 -105 -146 l-53 -26 0 -169
0 -168 -100 -68 -99 -68 -3 -385 -3 -385 -22 -3 -23 -3 0 400 0 400 100 68
100 68 0 157 0 158 -37 15 c-21 9 -49 26 -62 38 -30 28 -61 94 -61 132 0 66
65 156 126 175 49 16 120 5 163 -23z m-1317 -92 c55 -36 81 -94 76 -166 -5
-73 -42 -124 -110 -153 l-48 -20 0 -297 0 -298 108 -63 107 -64 0 -214 0 -215
-22 -3 -23 -3 0 203 0 203 -97 55 c-53 30 -102 61 -110 68 -10 11 -13 77 -13
323 l0 309 -37 15 c-44 19 -79 50 -99 87 -19 36 -18 122 2 163 46 99 172 132
266 70z m820 -344 c125 -86 109 -262 -29 -323 l-43 -19 -2 -402 -3 -402 -22
-3 -23 -3 0 404 0 405 -52 26 c-74 36 -103 81 -103 161 0 50 5 69 27 102 54
81 172 107 250 54z m-917 -1362 c57 -14 117 -67 147 -127 33 -69 33 -214 -1
-290 -43 -95 -114 -137 -232 -136 -88 0 -152 32 -196 97 -73 108 -63 304 21
395 56 62 160 86 261 61z m1693 -13 c65 -33 84 -138 37 -195 -14 -16 -35 -33
-45 -36 -29 -9 -24 -19 16 -34 51 -18 76 -63 71 -127 -5 -67 -34 -107 -95
-131 -55 -21 -168 -23 -224 -4 -33 11 -38 17 -38 43 0 25 3 29 18 23 49 -20
92 -27 153 -23 54 3 73 8 92 26 49 46 40 129 -16 159 -17 8 -59 18 -94 21 -58
4 -63 7 -63 28 0 22 4 24 43 24 62 0 129 37 141 77 20 72 -19 115 -103 115
-28 -1 -71 -10 -96 -21 l-45 -20 -11 21 c-14 26 -4 36 63 60 62 22 147 19 196
-6z m465 10 c84 -35 123 -128 115 -275 -10 -168 -77 -256 -210 -276 -69 -10
-108 1 -108 31 0 23 3 24 69 24 54 0 75 5 102 23 39 25 74 91 84 157 l7 45
-23 -22 c-71 -65 -204 -54 -250 21 -42 69 -32 169 22 231 46 52 126 69 192 41z
m-2877 -223 l149 -227 3 227 2 227 25 0 25 0 0 -275 0 -275 -34 0 c-34 0 -37
4 -183 229 l-148 229 -3 -229 -2 -229 -25 0 -25 0 0 275 0 275 34 0 c33 0 37
-5 182 -227z m1342 212 c65 -20 114 -61 144 -123 31 -64 32 -195 2 -262 -50
-107 -118 -142 -291 -148 l-123 -4 0 276 0 276 108 0 c69 0 127 -6 160 -15z
m652 -15 l0 -30 -120 0 -120 0 0 -85 0 -85 115 0 115 0 0 -30 0 -30 -115 0
-115 0 0 -100 0 -100 120 0 120 0 0 -30 0 -30 -150 0 -150 0 0 275 0 275 150
0 150 0 0 -30z"/>
<path d="M1889 3385 c-115 -62 -65 -245 67 -245 129 0 180 159 78 239 -32 25
-105 28 -145 6z"/>
<path d="M2674 3036 c-90 -40 -108 -157 -33 -220 59 -50 129 -44 185 15 24 25
29 39 29 82 0 103 -89 163 -181 123z"/>
<path d="M1354 2946 c-69 -30 -100 -130 -60 -191 22 -34 74 -65 109 -65 146 0
190 200 57 254 -48 19 -65 19 -106 2z"/>
<path d="M2171 2592 c-104 -56 -85 -209 30 -243 104 -32 200 81 153 178 -37
74 -114 102 -183 65z"/>
<path d="M1254 1206 c-97 -43 -136 -234 -71 -351 40 -72 148 -106 230 -71 76
31 112 113 105 236 -6 96 -33 152 -88 180 -46 23 -129 26 -176 6z"/>
<path d="M3474 1219 c-60 -16 -93 -88 -73 -161 20 -75 109 -103 179 -55 106
71 18 249 -106 216z"/>
<path d="M1838 1214 c-5 -4 -8 -103 -8 -221 l0 -213 78 0 c153 1 232 75 232
220 0 94 -41 169 -108 197 -38 16 -183 29 -194 17z"/>
</g>
</svg>
