<?xml version="1.0" encoding="utf-8"?>
<!-- Generator: Adobe Illustrator 25.0.0, SVG Export Plug-In . SVG Version: 6.00 Build 0)  -->
<svg version="1.1" id="BACKGROUND" xmlns="http://www.w3.org/2000/svg" xmlns:xlink="http://www.w3.org/1999/xlink" x="0px" y="0px"
	 viewBox="0 0 512 512" style="enable-background:new 0 0 512 512;" xml:space="preserve">
<style type="text/css">
	.st0{fill:#FFFFFF;}
	.st1{fill:#FC1D31;}
</style>
<ellipse class="st0" cx="256" cy="256" rx="254.8" ry="251.9"/>
<g id="g24">
	<g id="g22">
		<path id="path20" class="st1" d="M255.5,4.1c-19.1,0-38.2,1.9-57.4,6.7c0,1,0,1.9,0,2.9v310.7c0,6.7-5.7,11.5-11.5,11.5h-22.9
			c-4.8,0-8.6-3.8-8.6-8.6V24.2C64.3,62.4,1.2,152.3,1.2,255.5c0,139.6,113.8,252.4,255.3,252.4s254.3-112.8,254.3-251.4
			S396.1,4.1,255.5,4.1z M250.7,360.7c0,5.7-4.8,10.5-10.5,10.5h-22.9c-5.7,0-10.5-4.8-10.5-10.5V201c0-5.7,4.8-10.5,10.5-10.5h22.9
			c5.7,0,10.5,4.8,10.5,10.5V360.7z M302.4,376c0,5.7-4.8,10.5-10.5,10.5h-22.9c-5.7,0-10.5-4.8-10.5-10.5V185.7
			c0-5.7,4.8-10.5,10.5-10.5h22.9c5.7,0,10.5,4.8,10.5,10.5V376z M354,347.3c0,5.7-4.8,10.5-10.5,10.5h-22.9
			c-5.7,0-10.5-4.8-10.5-10.5v-131c0-5.7,4.8-10.5,10.5-10.5h22.9c5.7,0,10.5,4.8,10.5,10.5L354,347.3z"/>
	</g>
</g>
</svg>
