<svg width="231" height="48" viewBox="0 0 231 48" fill="none" xmlns="http://www.w3.org/2000/svg">
    <mask id="path-2-inside-1_2159_5472" fill="white">
        <path d="M221 0H223C227.418 0 231 3.58172 231 8V10H221V0Z" />
    </mask>
    <path
        d="M221 -1H223C227.971 -1 232 3.02944 232 8H230C230 4.13401 226.866 1 223 1H221V-1ZM231 10H221H231ZM221 10V0V10ZM223 -1C227.971 -1 232 3.02944 232 8V10H230V8C230 4.13401 226.866 1 223 1V-1Z"
        fill="white" mask="url(#path-2-inside-1_2159_5472)" />
    <mask id="path-4-inside-2_2159_5472" fill="white">
        <path d="M0 8C0 3.58172 3.58172 0 8 0H10V10H0V8Z" />
    </mask>
    <path
        d="M-1 8C-1 3.02944 3.02944 -1 8 -1H10V1H8C4.13401 1 1 4.13401 1 8H-1ZM10 10H0H10ZM-1 10V8C-1 3.02944 3.02944 -1 8 -1V1C4.13401 1 1 4.13401 1 8V10H-1ZM10 0V10V0Z"
        fill="white" mask="url(#path-4-inside-2_2159_5472)" />
    <mask id="path-6-inside-3_2159_5472" fill="white">
        <path d="M0 38H10V48H8C3.58172 48 0 44.4183 0 40V38Z" />
    </mask>
    <path
        d="M0 38H10H0ZM10 49H8C3.02944 49 -1 44.9706 -1 40H1C1 43.866 4.13401 47 8 47H10V49ZM8 49C3.02944 49 -1 44.9706 -1 40V38H1V40C1 43.866 4.13401 47 8 47V49ZM10 38V48V38Z"
        fill="white" mask="url(#path-6-inside-3_2159_5472)" />
    <mask id="path-8-inside-4_2159_5472" fill="white">
        <path d="M221 38H231V40C231 44.4183 227.418 48 223 48H221V38Z" />
    </mask>
    <path
        d="M221 38H231H221ZM232 40C232 44.9706 227.971 49 223 49H221V47H223C226.866 47 230 43.866 230 40H232ZM221 48V38V48ZM232 38V40C232 44.9706 227.971 49 223 49V47C226.866 47 230 43.866 230 40V38H232Z"
        fill="white" mask="url(#path-8-inside-4_2159_5472)" />
</svg>
    