<svg width="20" height="18" viewBox="0 0 20 18" fill="none" xmlns="http://www.w3.org/2000/svg">
<path d="M10.0003 7.33082C10.8843 7.33082 11.732 6.97967 12.3571 6.35464C12.9821 5.7296 13.3332 4.88186 13.3332 3.99793C13.3332 3.11399 12.9821 2.26626 12.3571 1.64122C11.732 1.01618 10.8843 0.665039 10.0003 0.665039C9.11641 0.665039 8.26868 1.01618 7.64364 1.64122C7.0186 2.26626 6.66746 3.11399 6.66746 3.99793C6.66746 4.88186 7.0186 5.7296 7.64364 6.35464C8.26868 6.97967 9.11641 7.33082 10.0003 7.33082ZM5.5565 6.21985C5.5565 6.80914 5.3224 7.3743 4.90571 7.79099C4.48902 8.20768 3.92386 8.44178 3.33457 8.44178C2.74528 8.44178 2.18013 8.20768 1.76343 7.79099C1.34674 7.3743 1.11265 6.80914 1.11265 6.21985C1.11265 5.63056 1.34674 5.06541 1.76343 4.64871C2.18013 4.23202 2.74528 3.99793 3.33457 3.99793C3.92386 3.99793 4.48902 4.23202 4.90571 4.64871C5.3224 5.06541 5.5565 5.63056 5.5565 6.21985ZM0.546056 14.3588C0.356399 14.251 0.214372 14.0756 0.148331 13.8677C-0.0474144 13.2337 -0.0494671 12.5557 0.142436 11.9206C0.334339 11.2854 0.711462 10.722 1.22551 10.3024C1.73956 9.88287 2.36714 9.62631 3.02788 9.56559C3.68862 9.50487 4.35245 9.64275 4.93436 9.96158C3.73855 11.1367 2.9901 12.6922 2.81797 14.3599C2.79242 14.6065 2.80242 14.8509 2.84575 15.0864C2.03492 15.0163 1.24962 14.7678 0.546056 14.3588ZM17.1549 15.0853C17.9657 15.0156 18.751 14.7675 19.4546 14.3588C19.6439 14.2508 19.7855 14.0754 19.8513 13.8677C20.0473 13.2337 20.0496 12.5555 19.8578 11.9201C19.6661 11.2847 19.289 10.7211 18.7748 10.3014C18.2607 9.88166 17.633 9.62499 16.9721 9.56425C16.3112 9.50352 15.6472 9.64148 15.0652 9.96047C16.2621 11.1356 17.0114 12.6915 17.1838 14.3599C17.2086 14.6022 17.1989 14.8468 17.1549 15.0864V15.0853ZM18.8881 6.21985C18.8881 6.80914 18.654 7.3743 18.2373 7.79099C17.8206 8.20768 17.2554 8.44178 16.6661 8.44178C16.0768 8.44178 15.5117 8.20768 15.095 7.79099C14.6783 7.3743 14.4442 6.80914 14.4442 6.21985C14.4442 5.63056 14.6783 5.06541 15.095 4.64871C15.5117 4.23202 16.0768 3.99793 16.6661 3.99793C17.2554 3.99793 17.8206 4.23202 18.2373 4.64871C18.654 5.06541 18.8881 5.63056 18.8881 6.21985ZM4.78327 15.3186C4.6737 15.2205 4.58876 15.098 4.5353 14.961C4.48184 14.8239 4.46137 14.6763 4.47553 14.5299C4.61684 13.1628 5.25992 11.8967 6.28046 10.9762C7.30101 10.0557 8.62656 9.54619 10.0009 9.54619C11.3752 9.54619 12.7008 10.0557 13.7213 10.9762C14.7419 11.8967 15.385 13.1628 15.5263 14.5299C15.5405 14.6763 15.5201 14.824 15.4666 14.961C15.4132 15.098 15.3282 15.2206 15.2185 15.3186C13.7901 16.6151 11.9294 17.3321 10.0003 17.3295C8.07166 17.3319 6.2114 16.6149 4.78327 15.3186Z" fill="white"/>
</svg>
