<svg xmlns="http://www.w3.org/2000/svg" width="25" height="24" viewBox="0 0 25 24" fill="none">
    <g clip-path="url(#clip0_13630_17732)">
        <path
            d="M20.817 4.15557C19.2873 3.45369 17.647 2.93658 15.9319 2.6404C15.9007 2.63469 15.8695 2.64897 15.8534 2.67754C15.6424 3.05276 15.4087 3.54225 15.2451 3.927C13.4004 3.65083 11.5652 3.65083 9.75832 3.927C9.59465 3.5337 9.35248 3.05276 9.14057 2.67754C9.12449 2.64992 9.09328 2.63564 9.06205 2.6404C7.34791 2.93563 5.70756 3.45275 4.17693 4.15557C4.16368 4.16129 4.15233 4.17082 4.14479 4.18319C1.03339 8.83155 0.18105 13.3657 0.59918 17.8436C0.601072 17.8655 0.61337 17.8864 0.630398 17.8997C2.68321 19.4073 4.67171 20.3225 6.62328 20.9291C6.65451 20.9386 6.68761 20.9272 6.70748 20.9015C7.16913 20.2711 7.58064 19.6063 7.93348 18.9073C7.9543 18.8664 7.93442 18.8178 7.89186 18.8016C7.23913 18.554 6.6176 18.2521 6.01973 17.9093C5.97244 17.8816 5.96865 17.814 6.01216 17.7816C6.13797 17.6873 6.26382 17.5893 6.38396 17.4902C6.40569 17.4721 6.43598 17.4683 6.46153 17.4797C10.3893 19.273 14.6415 19.273 18.523 17.4797C18.5485 17.4674 18.5788 17.4712 18.6015 17.4893C18.7216 17.5883 18.8475 17.6873 18.9742 17.7816C19.0177 17.814 19.0149 17.8816 18.9676 17.9093C18.3697 18.2588 17.7482 18.554 17.0945 18.8006C17.052 18.8168 17.033 18.8664 17.0538 18.9073C17.4143 19.6054 17.8258 20.2701 18.2789 20.9005C18.2978 20.9272 18.3319 20.9386 18.3631 20.9291C20.3241 20.3225 22.3126 19.4073 24.3654 17.8997C24.3834 17.8864 24.3948 17.8664 24.3967 17.8445C24.8971 12.6676 23.5585 8.17064 20.8482 4.18414C20.8416 4.17082 20.8303 4.16129 20.817 4.15557ZM8.52002 15.117C7.3375 15.117 6.36313 14.0313 6.36313 12.6981C6.36313 11.3648 7.3186 10.2791 8.52002 10.2791C9.73087 10.2791 10.6958 11.3743 10.6769 12.6981C10.6769 14.0313 9.72141 15.117 8.52002 15.117ZM16.4947 15.117C15.3123 15.117 14.3379 14.0313 14.3379 12.6981C14.3379 11.3648 15.2933 10.2791 16.4947 10.2791C17.7056 10.2791 18.6705 11.3743 18.6516 12.6981C18.6516 14.0313 17.7056 15.117 16.4947 15.117Z"
            fill="#B4B7BB" />
    </g>
    <defs>
        <clipPath id="clip0_13630_17732">
            <rect width="24" height="24" fill="white" transform="translate(0.5)" />
        </clipPath>
    </defs>
</svg>