<svg xmlns="http://www.w3.org/2000/svg" width="15" height="14" viewBox="0 0 15 14" fill="none">
    <g clip-path="url(#clip0_13671_4030)">
        <path
            d="M3.58317 4.37492C3.58317 3.36931 3.98265 2.40488 4.69372 1.69381C5.4048 0.98273 6.36922 0.583252 7.37484 0.583252C8.38045 0.583252 9.34488 0.98273 10.056 1.69381C10.767 2.40488 11.1665 3.36931 11.1665 4.37492V5.24992H12.3332V6.70825H11.1665V6.41659H3.58317V11.6666H7.08317V12.8333H2.4165V5.24992H3.58317V4.37492ZM4.74984 5.24992H9.99984V4.37492C9.99984 3.67873 9.72328 3.01105 9.23099 2.51876C8.73871 2.02648 8.07103 1.74992 7.37484 1.74992C6.67864 1.74992 6.01097 2.02648 5.51868 2.51876C5.0264 3.01105 4.74984 3.67873 4.74984 4.37492V5.24992ZM11.1665 8.74992C10.625 8.74992 10.1057 8.96502 9.72283 9.34791C9.33994 9.7308 9.12484 10.2501 9.12484 10.7916C9.12484 11.3331 9.33994 11.8524 9.72283 12.2353C10.1057 12.6181 10.625 12.8333 11.1665 12.8333C11.708 12.8333 12.2273 12.6181 12.6102 12.2353C12.9931 11.8524 13.2082 11.3331 13.2082 10.7916C13.2082 10.2501 12.9931 9.7308 12.6102 9.34791C12.2273 8.96502 11.708 8.74992 11.1665 8.74992ZM7.95817 10.7916C7.95817 10.3703 8.04116 9.95306 8.20239 9.56381C8.36362 9.17456 8.59995 8.82087 8.89787 8.52295C9.19579 8.22503 9.54948 7.98871 9.93873 7.82747C10.328 7.66624 10.7452 7.58325 11.1665 7.58325C11.5878 7.58325 12.005 7.66624 12.3943 7.82747C12.7835 7.98871 13.1372 8.22503 13.4351 8.52295C13.7331 8.82087 13.9694 9.17456 14.1306 9.56381C14.2919 9.95306 14.3748 10.3703 14.3748 10.7916C14.3748 11.6425 14.0368 12.4585 13.4351 13.0602C12.8335 13.6619 12.0174 13.9999 11.1665 13.9999C10.3156 13.9999 9.49955 13.6619 8.89787 13.0602C8.29619 12.4585 7.95817 11.6425 7.95817 10.7916ZM5.62484 8.45825H7.08317V9.62492H5.62484V8.45825ZM11.7498 9.48025V10.5501L12.5747 11.3749L11.7498 12.1998L10.5832 11.0331V9.48025H11.7498Z"
            fill="#B4B7BB" />
    </g>
    <defs>
        <clipPath id="clip0_13671_4030">
            <rect width="14" height="14" fill="white" transform="translate(0.375)" />
        </clipPath>
    </defs>
</svg>