<svg width="756" height="258" fill="none" xmlns="http://www.w3.org/2000/svg"><mask id="logo_omakase-dark__a" style="mask-type:luminance" maskUnits="userSpaceOnUse" x="54" y="54" width="160" height="149"><path d="M213.297 54.179H54.18v148.366h159.117V54.179Z" fill="#fff"/></mask><g mask="url(#logo_omakase-dark__a)" fill="#fff"><path d="M165.346 87.503v-.011l-11.061-6.367c-1.398 7.898-3.486 15.79-.374 23.591 1.156 2.908 3.192 5.524 5.729 7.979l14.425-8.363a66.598 66.598 0 0 1-3.244-3.418c-3.894-4.44-5.694-8.656-5.481-13.416l.006.005Zm-77.115 7.996c-2.772 1.612-2.767 4.221.035 5.839l3.773 2.168c.218-3.333.034-6.653-.409-9.975L88.231 95.5Z"/><path d="M149.009 103.655c-2.485-8.237.241-16.467 1.461-24.704l-11.82-6.802c-2.042-1.182-4.998-1.492-7.529-.953 1.449 4.658 2.134 9.373 1.904 14.11a41.802 41.802 0 0 1-1.582 9.516c-1.029 3.539-2.807 7.084-2.237 10.703.949 6.045 7.419 11.924 13.47 17.006l13.689-7.932c-3.571-3.35-6.16-6.946-7.356-10.938v-.006Zm30.203-8.162v-.011l-9.524-5.484c.063.952.218 1.899.557 2.85 1.036 2.909 3.29 5.628 5.741 8.215.437.458.885.917 1.34 1.37l1.915-1.112c2.784-1.612 2.772-4.222-.023-5.84l-.006.012Z"/><path d="M124.927 106.512c-1.542-6.488 2.991-13.198 3.537-19.686.391-4.657-.086-9.297-1.346-13.868l-14.086 8.162c2.007 7.88-.293 16.008-1.185 23.986-.356 3.207.115 6.637.495 10.084l16.49 9.487c2.801 1.611 7.322 1.611 10.106 0l.564-.327a96.024 96.024 0 0 1-1.789-1.572c-5.459-4.915-11.377-10.37-12.786-16.272v.006Zm-15.898-23.058-13.281 7.691c.76 4.692 1.156 9.401.598 14.11-.029.224-.063.459-.097.683l11.106 6.389c-.184-2.707-.207-5.403.138-8.144.869-6.878 2.698-13.904 1.53-20.747v.012l.006.006Z"/><path d="M213.268 100.747c.276-5.363-3.135-10.777-10.244-14.873v.012l-44.829-25.822c-13.626-7.847-35.655-7.847-49.195 0L64.453 85.869c-6.804 3.94-10.336 9.12-10.273 14.287v56.394c-.017 5.168 3.411 10.353 10.262 14.293v.012l44.84 25.816v-.011c13.632 7.846 35.661 7.846 49.201 0l44.535-25.811v-.011c6.742-3.895 10.106-9.005 10.124-14.11l.155-56.555c0 .19-.017.379-.023.568l-.006.006Zm-17.497 9.286-44.535 25.811c-9.474 5.489-24.917 5.483-34.442 0l-44.835-25.817c-9.525-5.489-9.577-14.402-.115-19.897l44.536-25.805c9.473-5.489 24.916-5.483 34.441 0l44.841 25.817c9.525 5.489 9.577 14.402.115 19.897l-.006-.006Z"/></g><path fill-rule="evenodd" clip-rule="evenodd" d="m515.59 168.591-22.183-26.772v26.772h-12.513V86.686h12.513v52.976l22.069-25.674h14.902l-23.007 26.18 24.145 28.423H515.59Zm104.475 1.138c-3.034 0-5.954-.379-8.76-1.138-2.806-.834-5.384-1.972-7.735-3.412a26.439 26.439 0 0 1-6.143-5.461l7.963-7.963c1.896 2.199 4.057 3.868 6.484 5.005 2.503 1.062 5.309 1.593 8.418 1.593 2.806 0 4.93-.417 6.371-1.251 1.44-.834 2.161-2.048 2.161-3.64 0-1.669-.683-2.958-2.048-3.868-1.365-.91-3.147-1.669-5.346-2.275a194.261 194.261 0 0 0-6.826-2.048 37.771 37.771 0 0 1-6.825-2.73 15.381 15.381 0 0 1-5.233-4.892c-1.365-2.047-2.048-4.702-2.048-7.963 0-3.488.797-6.484 2.389-8.987 1.669-2.502 3.982-4.436 6.939-5.801 3.034-1.365 6.636-2.048 10.807-2.048 4.399 0 8.267.796 11.604 2.389 3.412 1.517 6.256 3.83 8.531 6.939l-7.963 7.963c-1.592-1.972-3.412-3.45-5.46-4.436-2.048-.986-4.399-1.479-7.053-1.479-2.503 0-4.436.379-5.801 1.137-1.366.759-2.048 1.858-2.048 3.299 0 1.517.682 2.693 2.048 3.527 1.365.834 3.109 1.555 5.232 2.161 2.2.607 4.475 1.289 6.826 2.048a27.3 27.3 0 0 1 6.825 2.958 14.701 14.701 0 0 1 5.347 5.005c1.365 2.048 2.047 4.74 2.047 8.077 0 5.308-1.858 9.517-5.574 12.627-3.716 3.109-8.759 4.664-15.129 4.664Zm56.388 0c-5.46 0-10.39-1.214-14.788-3.64-4.323-2.503-7.774-5.916-10.352-10.239-2.503-4.322-3.754-9.176-3.754-14.561 0-5.384 1.251-10.2 3.754-14.447 2.502-4.323 5.877-7.735 10.124-10.238 4.323-2.503 9.101-3.754 14.333-3.754 5.082 0 9.556 1.176 13.424 3.527 3.944 2.351 7.015 5.574 9.214 9.669 2.275 4.095 3.413 8.759 3.413 13.992 0 .91-.076 1.858-.228 2.844-.075.91-.227 1.934-.455 3.072h-40.735c.34 1.422.837 2.749 1.489 3.981 1.365 2.579 3.299 4.588 5.802 6.029 2.502 1.365 5.384 2.048 8.645 2.048 2.806 0 5.385-.493 7.736-1.479 2.427-.986 4.474-2.427 6.143-4.323l7.963 8.077c-2.655 3.109-5.878 5.46-9.67 7.053s-7.811 2.389-12.058 2.389Zm-14.675-37.54a15.527 15.527 0 0 0-1.336 3.526h29.062c-.328-1.607-.81-3.048-1.448-4.322-1.137-2.276-2.768-4.02-4.891-5.233-2.048-1.214-4.588-1.82-7.622-1.82-3.185 0-5.953.682-8.304 2.047-2.351 1.365-4.171 3.299-5.461 5.802Zm-116.119 33.786c4.02 2.503 8.494 3.754 13.424 3.754 4.171 0 7.887-.872 11.148-2.617 2.18-1.216 4.038-2.721 5.574-4.514v5.993h12.513v-54.603h-12.513v6.077c-1.583-1.808-3.479-3.303-5.688-4.485-3.185-1.82-6.863-2.73-11.034-2.73-4.93 0-9.404 1.289-13.424 3.868-3.943 2.502-7.091 5.915-9.442 10.238-2.275 4.247-3.412 9.063-3.412 14.447 0 5.309 1.137 10.125 3.412 14.447 2.351 4.247 5.499 7.622 9.442 10.125Zm26.62-12.741c-2.806 3.109-6.522 4.664-11.149 4.664-3.033 0-5.725-.682-8.076-2.048-2.276-1.44-4.096-3.412-5.461-5.915-1.289-2.503-1.934-5.384-1.934-8.646 0-3.261.645-6.142 1.934-8.645 1.365-2.503 3.185-4.437 5.461-5.802 2.351-1.441 5.043-2.161 8.076-2.161 3.11 0 5.802.72 8.077 2.161 2.351 1.365 4.171 3.299 5.461 5.802 1.289 2.503 1.933 5.384 1.933 8.645 0 4.854-1.441 8.836-4.322 11.945Zm-147.932 12.741c4.019 2.503 8.494 3.754 13.423 3.754 4.171 0 7.887-.872 11.148-2.617 2.18-1.216 4.038-2.721 5.575-4.514v5.993h12.513v-54.603h-12.513v6.077c-1.583-1.808-3.479-3.303-5.688-4.485-3.186-1.82-6.864-2.73-11.035-2.73-4.929 0-9.404 1.289-13.423 3.868-3.944 2.502-7.091 5.915-9.442 10.238-2.275 4.247-3.413 9.063-3.413 14.447 0 5.309 1.138 10.125 3.413 14.447 2.351 4.247 5.498 7.622 9.442 10.125Zm26.619-12.741c-2.806 3.109-6.522 4.664-11.148 4.664-3.034 0-5.726-.682-8.077-2.048-2.275-1.44-4.095-3.412-5.46-5.915-1.29-2.503-1.934-5.384-1.934-8.646 0-3.261.644-6.142 1.934-8.645 1.365-2.503 3.185-4.437 5.46-5.802 2.351-1.441 5.043-2.161 8.077-2.161 3.109 0 5.801.72 8.077 2.161 2.351 1.365 4.171 3.299 5.46 5.802 1.289 2.503 1.934 5.384 1.934 8.645 0 4.854-1.441 8.836-4.323 11.945Zm-134.043 15.357v-54.603h12.513v5.582a18.951 18.951 0 0 1 5.233-4.104c3.109-1.744 6.598-2.616 10.466-2.616 3.867 0 7.356.834 10.465 2.503 2.951 1.583 5.321 3.781 7.111 6.594 1.985-2.758 4.468-4.919 7.45-6.481 3.261-1.744 6.826-2.616 10.694-2.616 3.943 0 7.508.834 10.693 2.503 3.185 1.668 5.726 4.019 7.622 7.053 1.896 3.033 2.843 6.673 2.843 10.92v35.265H389.5v-32.534c0-3.641-1.137-6.447-3.413-8.418-2.275-2.048-5.081-3.072-8.418-3.072-2.199 0-4.209.455-6.029 1.365a10.422 10.422 0 0 0-4.323 3.982c-1.061 1.668-1.592 3.716-1.592 6.143v32.534h-12.514v-32.534c0-3.641-1.137-6.447-3.412-8.418-2.275-2.048-5.081-3.072-8.418-3.072-2.275 0-4.323.455-6.143 1.365-1.745.91-3.148 2.237-4.209 3.982-1.062 1.668-1.593 3.716-1.593 6.143v32.534h-12.513Zm-67.907-2.047c4.929 2.123 10.238 3.185 15.926 3.185 5.612 0 10.845-1.062 15.699-3.185 4.929-2.124 9.214-5.044 12.854-8.76 3.716-3.716 6.598-8.039 8.646-12.968 2.123-5.005 3.185-10.352 3.185-16.04 0-5.688-1.062-10.996-3.185-15.926-2.048-5.005-4.93-9.366-8.646-13.082a38.824 38.824 0 0 0-12.968-8.76c-4.854-2.123-10.125-3.185-15.812-3.185-5.688 0-10.997 1.062-15.927 3.186-4.853 2.047-9.138 4.967-12.854 8.759-3.64 3.716-6.522 8.039-8.646 12.968-2.047 4.93-3.071 10.238-3.071 15.926 0 5.688 1.024 11.035 3.071 16.04 2.124 4.93 5.044 9.29 8.76 13.082 3.716 3.716 8.038 6.636 12.968 8.76Zm29.804-12.969c-4.019 2.427-8.721 3.641-14.105 3.641-3.944 0-7.584-.683-10.921-2.048-3.337-1.441-6.219-3.413-8.646-5.916-2.351-2.502-4.209-5.498-5.574-8.986-1.289-3.565-1.934-7.433-1.934-11.604 0-5.612 1.138-10.541 3.413-14.788 2.351-4.247 5.536-7.546 9.556-9.897 4.095-2.427 8.797-3.64 14.106-3.64 4.019 0 7.659.682 10.92 2.047 3.337 1.365 6.219 3.337 8.646 5.916 2.427 2.502 4.285 5.498 5.574 8.987 1.365 3.412 2.048 7.204 2.048 11.375 0 5.612-1.176 10.58-3.527 14.903-2.275 4.247-5.46 7.583-9.556 10.01Z" fill="#fff"/></svg>