<svg xmlns="http://www.w3.org/2000/svg" width="15" height="14" viewBox="0 0 15 14" fill="none">
    <g clip-path="url(#clip0_13671_5146)">
        <path
            d="M7.87516 1.74992C7.18572 1.74992 6.50303 1.88571 5.86608 2.14955C5.22912 2.41339 4.65036 2.8001 4.16285 3.28761C3.67534 3.77512 3.28863 4.35387 3.0248 4.99083C2.76096 5.62779 2.62516 6.31048 2.62516 6.99992C2.62516 7.68936 2.76096 8.37205 3.0248 9.00901C3.28863 9.64597 3.67534 10.2247 4.16285 10.7122C4.65036 11.1997 5.22912 11.5865 5.86608 11.8503C6.50303 12.1141 7.18572 12.2499 7.87516 12.2499C9.26755 12.2499 10.6029 11.6968 11.5875 10.7122C12.572 9.72766 13.1252 8.39231 13.1252 6.99992C13.1252 5.60753 12.572 4.27217 11.5875 3.28761C10.6029 2.30304 9.26755 1.74992 7.87516 1.74992ZM1.4585 6.99992C1.4585 3.45617 4.33141 0.583252 7.87516 0.583252C11.4189 0.583252 14.2918 3.45617 14.2918 6.99992C14.2918 10.5437 11.4189 13.4166 7.87516 13.4166C4.33141 13.4166 1.4585 10.5437 1.4585 6.99992Z"
            fill="#B4B7BB" />
        <path
            d="M8.45817 4.08325H10.2082V9.91659H8.45817V4.08325ZM5.5415 4.08325H7.2915V9.91659H5.5415V4.08325Z"
            fill="#B4B7BB" />
    </g>
    <defs>
        <clipPath id="clip0_13671_5146">
            <rect width="14" height="14" fill="white" transform="translate(0.875)" />
        </clipPath>
    </defs>
</svg>