<svg xmlns="http://www.w3.org/2000/svg" width="25" height="24" viewBox="0 0 25 24" fill="none">
    <g clip-path="url(#clip0_13630_17728)">
        <path fill-rule="evenodd" clip-rule="evenodd"
            d="M24.5 12C24.5 18.6274 19.1274 24 12.5 24C5.87258 24 0.5 18.6274 0.5 12C0.5 5.37258 5.87258 0 12.5 0C19.1274 0 24.5 5.37258 24.5 12ZM12.93 8.85893C11.7628 9.3444 9.43014 10.3492 5.93189 11.8733C5.36383 12.0992 5.06626 12.3202 5.03917 12.5363C4.99339 12.9015 5.45071 13.0453 6.07347 13.2411C6.15818 13.2678 6.24595 13.2954 6.33594 13.3246C6.94864 13.5238 7.77283 13.7568 8.20129 13.766C8.58994 13.7744 9.02373 13.6142 9.50264 13.2853C12.7712 11.079 14.4584 9.96381 14.5643 9.93977C14.639 9.92281 14.7426 9.90148 14.8128 9.96385C14.8829 10.0262 14.876 10.1443 14.8686 10.176C14.8233 10.3691 13.0281 12.0381 12.0991 12.9018C11.8095 13.171 11.6041 13.362 11.5621 13.4056C11.468 13.5033 11.3721 13.5958 11.28 13.6846C10.7108 14.2333 10.2839 14.6448 11.3036 15.3168C11.7936 15.6397 12.1858 15.9067 12.577 16.1731C13.0042 16.4641 13.4303 16.7543 13.9816 17.1157C14.1221 17.2077 14.2562 17.3034 14.3869 17.3965C14.8841 17.751 15.3307 18.0694 15.8826 18.0186C16.2032 17.9891 16.5345 17.6876 16.7027 16.7884C17.1002 14.6631 17.8816 10.0585 18.0622 8.16097C18.078 7.99473 18.0581 7.78197 18.0422 7.68857C18.0262 7.59518 17.9928 7.46211 17.8714 7.3636C17.7276 7.24694 17.5056 7.22234 17.4064 7.22408C16.955 7.23203 16.2626 7.47282 12.93 8.85893Z"
            fill="#B4B7BB" />
    </g>
    <defs>
        <clipPath id="clip0_13630_17728">
            <rect width="24" height="24" fill="white" transform="translate(0.5)" />
        </clipPath>
    </defs>
</svg>