<svg xmlns="http://www.w3.org/2000/svg" width="15" height="14" viewBox="0 0 15 14" fill="none">
    <g clip-path="url(#clip0_13671_3664)">
        <path
            d="M7.62516 1.74992C6.93572 1.74992 6.25303 1.88571 5.61608 2.14955C4.97912 2.41339 4.40036 2.8001 3.91285 3.28761C3.42534 3.77512 3.03863 4.35387 2.7748 4.99083C2.51096 5.62779 2.37516 6.31048 2.37516 6.99992C2.37516 7.68936 2.51096 8.37205 2.7748 9.00901C3.03863 9.64597 3.42534 10.2247 3.91285 10.7122C4.40036 11.1997 4.97912 11.5865 5.61608 11.8503C6.25303 12.1141 6.93572 12.2499 7.62516 12.2499C9.01755 12.2499 10.3529 11.6968 11.3375 10.7122C12.322 9.72766 12.8752 8.39231 12.8752 6.99992C12.8752 5.60753 12.322 4.27217 11.3375 3.28761C10.3529 2.30304 9.01755 1.74992 7.62516 1.74992ZM1.2085 6.99992C1.2085 3.45617 4.08141 0.583252 7.62516 0.583252C11.1689 0.583252 14.0418 3.45617 14.0418 6.99992C14.0418 10.5437 11.1689 13.4166 7.62516 13.4166C4.08141 13.4166 1.2085 10.5437 1.2085 6.99992ZM8.2085 3.79159V8.16659H7.04183V3.79159H8.2085ZM7.04183 9.04159H8.21083V10.2106H7.04183V9.04159Z"
            fill="#B4B7BB" />
    </g>
    <defs>
        <clipPath id="clip0_13671_3664">
            <rect width="14" height="14" fill="white" transform="translate(0.625)" />
        </clipPath>
    </defs>
</svg>