<?xml version="1.0" encoding="UTF-8"?>
<svg width="172px" height="172px" viewBox="0 0 172 172" version="1.1" xmlns="http://www.w3.org/2000/svg" xmlns:xlink="http://www.w3.org/1999/xlink">
    <title>D09EECB6-251A-416B-B21C-25832F33D878</title>
    <g id="Page-1" stroke="none" stroke-width="1" fill="none" fill-rule="evenodd">
        <g id="BandWebsite_Desktop_UI_BrandAsset" transform="translate(-634.000000, -915.000000)">
            <g id="Logo2-Copy" transform="translate(634.000000, 915.000000)">
                <path d="M10,171.866248 L161.866248,171.866248 C167.389095,171.866248 171.866248,167.389095 171.866248,161.866248 L171.866248,10 C171.866248,4.4771525 167.389095,-1.01453063e-15 161.866248,0 L10,0 C4.4771525,1.01453063e-15 -6.76353751e-16,4.4771525 0,10 L0,161.866248 C-1.40394681e-14,167.389095 4.4771525,171.866248 10,171.866248 Z" id="Fill-1" fill="#4520E6"></path>
                <path d="M108.602889,100.635307 C108.602889,107.35148 103.139711,112.814658 96.4235377,112.814658 L73.0720578,112.814658 L97.3402044,88.5473925 C103.622093,89.0257223 108.602889,94.2329105 108.602889,100.635307 L108.602889,100.635307 Z M69.6284355,87.4487315 L69.6284355,59.22463 L96.4235377,59.22463 C96.8812544,59.22463 97.332981,59.2498238 97.7776603,59.2996829 L69.6284355,87.4487315 Z M113.472868,71.4053911 C113.472868,65.7198732 110.676357,60.6763566 106.386716,57.5769908 L117.963707,46 L111.037879,46.0394644 L101.840204,55.2369626 C100.137773,54.665081 98.3162438,54.3550035 96.4235377,54.3550035 L64.7586328,54.3550035 L64.7586328,99.205074 L102.881783,61.0817477 C106.315363,63.2385483 108.602889,67.0599013 108.602889,71.4053911 C108.602889,78.1215645 103.139711,83.5847428 96.4235377,83.5847428 L95.4152572,83.5847428 L53,126 L59.8863636,126 L68.2020789,117.684461 L96.4235377,117.684461 C105.824348,117.684461 113.472868,110.036117 113.472868,100.635307 C113.472868,94.4353418 110.135835,89.0142706 105.174947,86.0299507 C110.141121,83.0463354 113.472868,77.608351 113.472868,71.4053911 L113.472868,71.4053911 Z" id="Fill-2" fill="#FFFFFF"></path>
            </g>
        </g>
    </g>
</svg>