<svg width="30" height="30" viewBox="0 0 30 30" fill="none" xmlns="http://www.w3.org/2000/svg">
<g clip-path="url(#clip0_438_970)">
<path d="M14.8247 0C23.0129 0 29.6493 6.71632 29.6493 15C29.6493 23.285 23.0129 30 14.8247 30C6.63781 30 0 23.2844 0 15C0 6.71632 6.63781 0 14.8247 0Z" fill="#F5AC37"/>
<path d="M15.3709 16.0591H21.0041C21.1241 16.0591 21.1809 16.0591 21.1895 15.8998C21.2356 15.32 21.2356 14.7367 21.1895 14.1562C21.1895 14.0435 21.1342 13.9969 21.0134 13.9969H9.80251C9.66375 13.9969 9.62639 14.0435 9.62639 14.1751V15.8438C9.62639 16.0591 9.62639 16.0591 9.84854 16.0591H15.3709ZM20.5604 12.0468C20.5764 12.0043 20.5764 11.9577 20.5604 11.9159C20.4664 11.7087 20.355 11.5109 20.2255 11.3253C20.0307 11.008 19.8013 10.7157 19.5397 10.4532C19.4163 10.2945 19.2736 10.1521 19.1135 10.0313C18.3116 9.34074 17.3583 8.85204 16.3336 8.60634C15.8166 8.48889 15.2882 8.43286 14.7585 8.43759H9.78316C9.6444 8.43759 9.62573 8.49361 9.62573 8.61579V11.9436C9.62573 12.084 9.62573 12.1218 9.80184 12.1218H20.4937C20.4937 12.1218 20.5864 12.1029 20.6051 12.0468H20.5598H20.5604ZM20.5604 18.0092C20.403 17.9916 20.2442 17.9916 20.0868 18.0092H9.81185C9.67309 18.0092 9.62639 18.0092 9.62639 18.1968V21.4504C9.62639 21.6002 9.62639 21.638 9.81185 21.638H14.5557C14.7825 21.6556 15.0094 21.6394 15.2315 21.5914C15.92 21.5415 16.5971 21.3903 17.2429 21.1412C17.4777 21.0589 17.7045 20.9515 17.9187 20.8226H17.9834C19.0954 20.2374 19.9987 19.318 20.5684 18.1894C20.5684 18.1894 20.6331 18.0477 20.5604 18.0105V18.0092ZM7.76447 23.3249V23.2688V21.0845V20.344V18.1408C7.76447 18.0186 7.76447 18.0004 7.61637 18.0004H5.60568C5.49427 18.0004 5.44824 18.0004 5.44824 17.8506V16.0692H7.59769C7.71777 16.0692 7.76447 16.0692 7.76447 15.9099V14.1475C7.76447 14.0347 7.76447 14.0071 7.61637 14.0071H5.60568C5.49427 14.0071 5.44824 14.0071 5.44824 13.8572V12.2075C5.44824 12.1042 5.44824 12.0765 5.59634 12.0765H7.58835C7.72711 12.0765 7.76447 12.0765 7.76447 11.8983V6.84525C7.76447 6.69539 7.76447 6.65759 7.94993 6.65759H14.8986C15.403 6.67784 15.904 6.73387 16.3996 6.82634C17.421 7.01737 18.4023 7.3866 19.2996 7.91378C19.8946 8.26816 20.4424 8.69611 20.93 9.18887C21.2969 9.5743 21.6278 9.99145 21.9214 10.4356C22.2129 10.8858 22.455 11.3671 22.6452 11.87C22.6685 12.0009 22.7926 12.0894 22.922 12.0671H24.5805C24.7933 12.0671 24.7933 12.0671 24.8026 12.2736V13.8113C24.8026 13.9612 24.7473 13.999 24.5985 13.999H23.3196C23.1902 13.999 23.1528 13.999 23.1622 14.1677C23.2129 14.7388 23.2129 15.3119 23.1622 15.8829C23.1622 16.0422 23.1622 16.0611 23.339 16.0611H24.802C24.8667 16.1455 24.802 16.2299 24.802 16.3149C24.8113 16.4236 24.8113 16.5336 24.802 16.6423V17.777C24.802 17.9363 24.7559 17.9835 24.6165 17.9835H22.8653C22.7432 17.9599 22.6245 18.0389 22.5965 18.1617C22.1795 19.2586 21.5124 20.2421 20.6505 21.0305C20.3356 21.3174 20.0047 21.5874 19.6592 21.8365C19.2882 22.0525 18.9273 22.2773 18.5471 22.4555C17.8473 22.7741 17.1134 23.009 16.3603 23.1581C15.6451 23.2877 14.92 23.3465 14.1921 23.3363H7.7618V23.3269L7.76447 23.3249Z" fill="#FEFEFD"/>
</g>
<defs>
<clipPath id="clip0_438_970">
<rect width="29.6493" height="30" fill="white"/>
</clipPath>
</defs>
</svg>
