<?xml version="1.0" encoding="utf-8"?>
<!-- Generator: Adobe Illustrator 25.0.0, SVG Export Plug-In . SVG Version: 6.00 Build 0)  -->
<svg version="1.1" id="BACKGROUND" xmlns="http://www.w3.org/2000/svg" xmlns:xlink="http://www.w3.org/1999/xlink" x="0px" y="0px"
	 viewBox="0 0 512 512" style="enable-background:new 0 0 512 512;" xml:space="preserve">
<style type="text/css">
	.st0{fill:url(#SVGID_1_);}
	.st1{fill:url(#SVGID_2_);}
	.st2{fill:url(#SVGID_3_);}
	.st3{fill:url(#SVGID_4_);}
	.st4{fill:url(#SVGID_5_);}
	.st5{fill:url(#SVGID_6_);}
	.st6{fill:url(#SVGID_7_);}
</style>
<g>
	
		<linearGradient id="SVGID_1_" gradientUnits="userSpaceOnUse" x1="66.6866" y1="286.9367" x2="432.2715" y2="-78.6481" gradientTransform="matrix(1 0 0 1 0 158.1102)">
		<stop  offset="0" style="stop-color:#009DDE"/>
		<stop  offset="0.5" style="stop-color:#694D9F"/>
		<stop  offset="1" style="stop-color:#ED3554"/>
	</linearGradient>
	<path class="st0" d="M163.9,361.7L56.4,373.8l63.1-145.7L54.9,140L212,122.1l42.7-98.2l93.6,127.2L455.8,139l-62.9,145l64.2,87.5
		l-156.4,17.8l-43.4,99.6L163.9,361.7z M208.6,352.1c-4.1,2-8.5,3.7-13.1,5l-4.1,1.1l60.6,82.4l21.5-49.5l-3.9-0.5
		c-21.2-2.7-40.4-14.1-52.9-31.3l-6-8.3L208.6,352.1z M187.5,277.3l48.9,67.6c9.9,13.7,26,21.9,43,21.9c2,0,3.9-0.1,5.9-0.3
		l127.6-14.5L362,282.7c-2.5-3.4-5.4-6.5-8.7-9.2l-3-2.5l-36.4,82.2l-63.3-83.8L187.5,277.3z M189.6,195c-18.9,2-35.4,14.2-43,31.7
		L95.3,344.9l85.1-9.6c4.2-0.5,8.3-1.5,12.3-2.9l3.7-1.4l-52.7-72.7l103.9-13.2l24.7-59L189.6,195z M270,254.7l38.5,50.9l23.5-53
		l10.3-23.3c7.7-17.5,5.5-37.9-5.8-53.2L260.2,72.2l-34.3,78.8c-1.7,3.9-2.9,8-3.7,12.2l-0.7,3.8l89-9.4L270,254.7z M363.5,173.8
		l1.5,3.6c8.2,19.7,8.1,42.2-0.6,61.7l-4.2,9.4l2,1.4c3.8,2.6,7.5,5.6,10.8,8.9l3,3l40.7-94L363.5,173.8z M99.2,159.4l32.4,44.2
		l2.4-3.1c12.9-16.7,32.2-27.6,53-29.8l10.2-1.1l0.2-2.5c0.3-5.1,1.2-10.2,2.6-15.2l1.2-4.2L99.2,159.4z"/>
	
		<linearGradient id="SVGID_2_" gradientUnits="userSpaceOnUse" x1="106.5738" y1="326.8241" x2="472.1588" y2="-38.7609" gradientTransform="matrix(1 0 0 1 0 158.1102)">
		<stop  offset="0" style="stop-color:#009DDE"/>
		<stop  offset="0.5" style="stop-color:#694D9F"/>
		<stop  offset="1" style="stop-color:#ED3554"/>
	</linearGradient>
	<path class="st1" d="M233.3,490.7c-67.5-6.5-128.1-41.6-167.8-97.3l27.2-3c4.5,5.5,9.3,10.8,14.2,15.8
		c29.5,29.6,66.4,49.6,106.8,57.8L233.3,490.7z"/>
	
		<linearGradient id="SVGID_3_" gradientUnits="userSpaceOnUse" x1="210.8757" y1="431.1259" x2="576.4606" y2="65.541" gradientTransform="matrix(1 0 0 1 0 158.1102)">
		<stop  offset="0" style="stop-color:#009DDE"/>
		<stop  offset="0.5" style="stop-color:#694D9F"/>
		<stop  offset="1" style="stop-color:#ED3554"/>
	</linearGradient>
	<path class="st2" d="M289.9,465.6c43.8-7.1,83.6-27.6,115.2-59.3c2.8-2.9,5.7-5.9,8.5-9.1l33-3.7C407.1,449,346.5,484.1,279,490.7
		L289.9,465.6z"/>
	
		<linearGradient id="SVGID_4_" gradientUnits="userSpaceOnUse" x1="173.7284" y1="393.9785" x2="539.3133" y2="28.3937" gradientTransform="matrix(1 0 0 1 0 158.1102)">
		<stop  offset="0" style="stop-color:#009DDE"/>
		<stop  offset="0.5" style="stop-color:#694D9F"/>
		<stop  offset="1" style="stop-color:#ED3554"/>
	</linearGradient>
	<path class="st3" d="M453.3,331.5c9-24,13.6-49.2,13.6-75.1c0-22.9-3.6-45.4-10.7-66.8l13.2-30.5c13.9,30.6,20.9,63.3,20.9,97.3
		c0,33.9-7,66.6-20.9,97.2L453.3,331.5z"/>
	
		<linearGradient id="SVGID_5_" gradientUnits="userSpaceOnUse" x1="-39.7225" y1="180.5277" x2="325.8625" y2="-185.0571" gradientTransform="matrix(1 0 0 1 0 158.1102)">
		<stop  offset="0" style="stop-color:#009DDE"/>
		<stop  offset="0.5" style="stop-color:#694D9F"/>
		<stop  offset="1" style="stop-color:#ED3554"/>
	</linearGradient>
	<path class="st4" d="M42.6,353.9c-13.9-30.7-21-63.5-21-97.5c0-34.3,7.1-67.2,21.2-98l16.1,22c-9.2,24.2-13.9,49.7-13.9,76
		c0,23,3.6,45.5,10.7,67.1L42.6,353.9z"/>
	
		<linearGradient id="SVGID_6_" gradientUnits="userSpaceOnUse" x1="-76.7926" y1="143.4576" x2="288.7922" y2="-222.1274" gradientTransform="matrix(1 0 0 1 0 158.1102)">
		<stop  offset="0" style="stop-color:#009DDE"/>
		<stop  offset="0.5" style="stop-color:#694D9F"/>
		<stop  offset="1" style="stop-color:#ED3554"/>
	</linearGradient>
	<path class="st5" d="M66.5,117.9c39.7-54.7,99.8-89.4,166.7-95.9l-10.9,25.1c-43.8,7-83.7,27.6-115.4,59.4c-2.4,2.4-4.8,5-7.2,7.6
		L66.5,117.9z"/>
	
		<linearGradient id="SVGID_7_" gradientUnits="userSpaceOnUse" x1="27.5023" y1="247.7525" x2="393.0872" y2="-117.8323" gradientTransform="matrix(1 0 0 1 0 158.1102)">
		<stop  offset="0" style="stop-color:#009DDE"/>
		<stop  offset="0.5" style="stop-color:#694D9F"/>
		<stop  offset="1" style="stop-color:#ED3554"/>
	</linearGradient>
	<path class="st6" d="M419.4,122.3c-4.5-5.5-9.3-10.8-14.2-15.8C375.7,77,338.9,57,298.5,48.8L278.9,22
		c67.4,6.6,128,41.7,167.7,97.3L419.4,122.3z"/>
</g>
</svg>
