<?xml version="1.0" encoding="UTF-8" standalone="no"?>
<svg
   xmlns:dc="http://purl.org/dc/elements/1.1/"
   xmlns:cc="http://creativecommons.org/ns#"
   xmlns:rdf="http://www.w3.org/1999/02/22-rdf-syntax-ns#"
   xmlns:svg="http://www.w3.org/2000/svg"
   xmlns="http://www.w3.org/2000/svg"
   xmlns:sodipodi="http://sodipodi.sourceforge.net/DTD/sodipodi-0.dtd"
   xmlns:inkscape="http://www.inkscape.org/namespaces/inkscape"
   inkscape:version="1.0 (4035a4f, 2020-05-01)"
   height="256"
   width="256"
   sodipodi:docname="KIRA-Network-KEX-Coin-Icon-256x256.svg"
   xml:space="preserve"
   viewBox="0 0 256 256"
   y="0px"
   x="0px"
   id="Layer_1"
   version="1.1"><metadata
   id="metadata241"><rdf:RDF><cc:Work
       rdf:about=""><dc:format>image/svg+xml</dc:format><dc:type
         rdf:resource="http://purl.org/dc/dcmitype/StillImage" /></cc:Work></rdf:RDF></metadata><defs
   id="defs239" /><sodipodi:namedview
   inkscape:current-layer="Layer_1"
   inkscape:window-maximized="1"
   inkscape:window-y="0"
   inkscape:window-x="0"
   inkscape:cy="122.50867"
   inkscape:cx="380.60116"
   inkscape:zoom="0.72842105"
   showgrid="false"
   id="namedview237"
   inkscape:window-height="878"
   inkscape:window-width="1440"
   inkscape:pageshadow="2"
   inkscape:pageopacity="0"
   guidetolerance="10"
   gridtolerance="10"
   objecttolerance="10"
   borderopacity="1"
   bordercolor="#666666"
   pagecolor="#ffffff" />
                    <style
   id="style10">
                        .___449AZV__st0 {
                            fill: #FFFFFF;
                        }

                        .___449AZV__st1 {
                            fill: #FFFFFF;
                            stroke: #FFFFFF;
                        }

                        .___449AZV__st2 {
                            fill: #A53AD5;
                        }

                        .___449AZV__st3 {
                            fill: none;
                            stroke: #FFFFFF;
                        }

                        .___449AZV__st4 {
                            fill: none;
                            stroke: #FFFFFF;
                            stroke-width: 3;
                        }

                        .___449AZV__st5 {
                            fill: #F2F2F2;
                        }

                        .___449AZV__st6 {
                            fill: none;
                        }

                        .___449AZV__st7 {
                            fill: #040404;
                        }

                        .___449AZV__st8 {
                            fill: #E4127C;
                        }
                    </style>
                    
                    
                    
                    
                    
                    
                    
                    
                    
                    
                    
                    
                    
                    
                    
                    
                    
                    
                    
                    
                    
                    
                    
                    
                    
                    
                    
                    
                    
                    
                    
                    
                    
                    
                    
                    
                    
                    
                    
                    
                    
                    
                    
                    
                    
                    
                    
                    
                    
                    
                    
                    
                    
                    
                    
                    
                    
                    
                    
                    
                    
                    
                    
                    
                    
                    
                    
                    
                    
                    
                    
                    
                    
                    
                    
                    
                    
                    
                    <path
   style="fill:#a53ad5;fill-opacity:1;stroke-width:1.93364"
   id="path152"
   d="M 220.577,216.25621 C 171.84136,267.48927 90.808683,269.42258 39.558883,220.70285 -11.497507,171.9831 -13.431457,90.976866 35.497573,39.743806 84.233233,-11.489274 165.26591,-13.422584 216.51571,35.297146 267.5721,84.210236 269.31266,165.21647 220.577,216.25621 Z"
   class="___449AZV__st2">
                    </path><g
   transform="matrix(1.9333303,0,0,1.9333303,-877.81509,-1249.2738)"
   style="fill:#ffffff"
   id="g218">
                        <path
   style="fill:#ffffff"
   id="path212"
   d="m 566,697.4 c 0,3.9 0,7.8 0,11.7 0,2.7 -1.1,4.6 -3.4,6 -8.8,5 -17.5,10.1 -26.2,15.1 -4.4,2.5 -8.7,0 -8.8,-5.1 0,-5.9 0,-11.8 0,-17.7 0,-3.3 2.1,-4.9 4.6,-6.3 7.5,-4.3 14.9,-8.5 22.3,-12.9 3.4,-2 2.4,-5.2 0.1,-6.4 -0.9,-0.4 -1.7,-1 -2.6,-1.5 -1.8,-1 -2.2,-2.3 -1.5,-3.8 0.6,-1.2 2.7,-2 4,-1.3 3.3,1.7 6.5,3.5 9.7,5.5 1.5,1 1.9,2.7 1.9,4.4 -0.1,4.2 -0.1,8.3 -0.1,12.3 z"
   class="___449AZV__st0">
                        </path>
                        <path
   style="fill:#ffffff"
   id="path214"
   d="m 518.5,733.5 c 0,4.6 0,9.2 0,13.8 0,1.6 0.7,2.6 1.9,3.4 1.3,0.7 2.4,0.6 3.7,-0.2 1,-0.7 2.2,-1.2 3.3,-1.9 1,-0.6 2,-0.3 2.7,0.4 0.5,0.6 1,1.7 0.8,2.4 -0.3,1 -1.1,2.2 -2,2.8 -2.5,1.6 -5.2,3 -7.7,4.6 -2,1.2 -3.9,1.1 -5.9,0 -6.9,-4.1 -13.9,-8.1 -20.9,-12.1 -2.1,-1.2 -3.1,-3 -3.1,-5.2 0,-10.4 -0.1,-20.7 0,-31.1 0,-4.6 4.2,-7.2 8.3,-5 5.5,3 10.8,6.2 16.3,9.3 1.9,1.1 2.7,2.9 2.7,5 -0.1,4.6 -0.1,9.2 -0.1,13.8 z"
   class="___449AZV__st0">
                        </path>
                        <path
   style="fill:#ffffff"
   id="path216"
   d="m 474.5,687.6 c 0,-1.3 0.1,-2.6 0,-3.9 -0.2,-2.9 1.4,-4.8 3.7,-6.1 4.9,-2.8 9.9,-5.6 14.8,-8.4 1.7,-1 3.5,-2 5.2,-3.1 2.5,-1.6 4.9,-1.1 7.3,0.3 5.7,3.4 11.4,6.6 17.1,9.9 3.2,1.9 6.4,3.8 9.7,5.6 2.6,1.4 3,7.1 -0.5,9.1 -2.5,1.4 -4.9,2.8 -7.4,4.3 -2.9,1.7 -5.8,3.3 -8.7,5 -2,1.2 -4,1.1 -6.1,0 -7.8,-4.5 -15.5,-9 -23.3,-13.4 -0.9,-0.5 -2.2,-1 -3.2,-0.9 -1.9,0.2 -3,1.7 -3,3.7 0,1.1 0,2.3 0,3.4 0,1.4 -0.6,2.4 -2,2.8 -1.3,0.3 -2.4,-0.4 -3,-1.5 -0.4,-0.7 -0.6,-1.7 -0.7,-2.5 0.1,-1.4 0.2,-2.8 0.1,-4.3 0.1,0 0,0 0,0 z"
   class="___449AZV__st0">
                        </path>
                    </g>
                    
                    
                </svg>
