<?xml version="1.0" encoding="utf-8"?>
<!-- Generator: Adobe Illustrator 27.1.1, SVG Export Plug-In . SVG Version: 6.00 Build 0)  -->
<svg version="1.1" id="Calque_1" xmlns="http://www.w3.org/2000/svg" xmlns:xlink="http://www.w3.org/1999/xlink" x="0px" y="0px"
	 viewBox="0 0 129 28" style="enable-background:new 0 0 129 28;" xml:space="preserve">
<path d="M5.6,28H0L6.4,0H12L9.4,11.5h1L20.1,0h6.6v0.5L15.3,13.8v0.7l7.2,13.3V28h-6.2L10,16.5H8.2L5.6,28z M63.2,0.5L49.6,19.3
	L47.3,28h-5.6l2.2-8.2L37.9,0h6l3.2,13.4h0.8L57.1,0h6.2V0.5z M72.1,0h5.7l1,25.4h0.8L91.1,0H97v0.5L84.1,28H73.6L72.1,0z M105,27.5
	L111.3,0H129v5h-13.2l-1.4,6.4h11.6v5h-12.8l-1.5,6.5h12.6v5H105V27.5z"/>
</svg>
