<svg width="88" height="18" viewBox="0 0 88 18" fill="none" xmlns="http://www.w3.org/2000/svg">
<g clip-path="url(#clip0_1758_14678)">
<path d="M4.80217 17.1851V7.96732C4.80217 4.72142 6.53542 2.93688 8.89646 2.93688C11.2575 2.93688 12.2674 4.81978 12.2674 7.81276V17.157H15.6793V7.32095C15.6676 7.25121 15.6676 7.17992 15.6793 7.11018C15.9523 4.42634 17.549 2.89473 19.7736 2.89473C22.2711 2.89473 23.0764 4.77763 23.0764 7.7706V13.2226C23.0764 16.6793 25.9014 17.143 28.4262 17.143V14.3327H28.1806C26.8158 14.3327 26.5019 13.7425 26.5019 12.3514V7.3069C26.5019 2.48723 24.4548 0.11253 20.4697 0.11253C19.3509 0.0400545 18.2388 0.335923 17.2942 0.957345C16.3496 1.57877 15.6215 2.4935 15.2153 3.56919C14.8031 2.45374 14.0443 1.50993 13.0569 0.884725C12.0695 0.259522 10.9091 -0.0119666 9.75625 0.11253C8.7871 0.0864493 7.82767 0.31694 6.96981 0.781937C6.11195 1.24693 5.38438 1.93087 4.85675 2.76827C4.5565 0.941569 2.30464 0.449753 0.76246 0.449753H0.0800781V3.26006H0.76246C1.48579 3.26006 1.48578 4.15936 1.48578 4.80573V17.143L4.80217 17.1851Z" fill="black"/>
<path d="M43.2355 9.5139C43.1263 12.5209 39.1412 14.2774 36.6027 14.4319C34.6238 14.5303 33.7231 13.5748 33.7231 12.5209C33.7231 11.4671 34.9378 9.87924 37.2169 9.79493L40.7243 9.61225C41.5675 9.58981 42.4074 9.49582 43.2355 9.33123V9.5139ZM48.4899 17.186V14.3757H48.2851C46.9204 14.3757 46.6338 13.7575 46.6338 12.3664V12.1837V6.23989C46.6338 1.72936 42.908 0.113431 38.9774 0.113431C36.443 0.0817171 33.943 0.720352 31.7169 1.96822L32.6995 4.77852C34.5801 3.79034 36.6614 3.2751 38.7727 3.27502C41.1065 3.27502 43.1809 4.04785 43.2082 6.29609C43.1263 7.34996 41.6251 7.32186 40.7789 7.29376L37.0804 7.2235C32.5221 7.09703 30.1201 10.1322 30.1201 12.9144C30.1201 15.3031 31.867 17.5233 35.47 17.3968C36.9762 17.4382 38.4693 17.0987 39.8184 16.4078C41.1676 15.717 42.3315 14.696 43.2082 13.4343C43.2082 16.4413 45.0506 17.2422 48.4626 17.2422" fill="black"/>
<path d="M67.0518 2.55791C64.5826 0.811735 61.6393 -0.0835947 58.6449 0.0005488C54.8372 0.0005488 51.3434 1.40571 51.3434 5.10126C51.3434 12.127 63.7764 8.83895 63.7764 12.7312C63.7764 14.3753 61.7702 15.0778 59.3955 15.0778C56.7615 15.0778 53.6635 14.2207 52.367 12.7593L50.5928 15.3027C52.2851 17.0029 55.7379 17.9865 59.068 17.9865C63.2441 17.9865 67.2566 16.4408 67.2566 12.7593C67.2566 5.87409 54.6734 8.65628 54.6734 5.21365C54.6734 3.58368 56.4203 2.93731 58.5494 2.93731C61.0159 2.88608 63.4344 3.64394 65.4551 5.10126L67.0518 2.55791Z" fill="black"/>
<path d="M82.7326 9.5139C82.6097 12.5209 78.6383 14.2774 76.0998 14.4319C74.1073 14.5303 73.2065 13.5748 73.2065 12.5209C73.2065 11.4671 74.4212 9.87923 76.7003 9.79492L80.2078 9.61225C81.0555 9.59051 81.8999 9.49652 82.7326 9.33122V9.5139ZM87.9869 17.186V14.3757H87.7822C86.4174 14.3757 86.1308 13.7575 86.1308 12.3664V12.1837V6.23989C86.1308 1.72935 82.405 0.113424 78.4745 0.113424C75.9357 0.0818121 73.4314 0.720367 71.2003 1.96821L72.1966 4.77852C74.0716 3.78844 76.1489 3.27303 78.2561 3.27502C80.6035 3.27502 82.678 4.04784 82.7053 6.29609C82.6097 7.34995 81.1085 7.32186 80.276 7.29375L76.5775 7.22349C72.0192 7.09703 69.6172 10.1322 69.6172 12.9144C69.6172 15.3031 71.3504 17.5233 74.9534 17.3968C76.4614 17.4369 77.956 17.0968 79.307 16.4062C80.6581 15.7155 81.8247 14.6953 82.7053 13.4343C82.7053 16.4413 84.5341 17.2422 87.9596 17.2422" fill="black"/>
</g>
<defs>
<clipPath id="clip0_1758_14678">
<rect width="88" height="18" fill="white"/>
</clipPath>
</defs>
</svg>
