<svg width="48" height="48" viewBox="0 0 48 48" fill="none" xmlns="http://www.w3.org/2000/svg">
<path d="M21.4742 16.424L15.3707 3.90126L16.7388 2.1123L19.0539 2.63847L21.4742 16.424Z" fill="black"/>
<path d="M30.4643 19.3106L40.5678 9.71938L42.6856 10.4852L42.8811 12.8513L30.4643 19.3106Z" fill="black"/>
<path d="M30.4496 28.7107L42.6819 35.3772L42.6041 37.6279L40.4126 38.5411L30.4496 28.7107Z" fill="black"/>
<path d="M21.6137 31.6222L19.2344 45.3484L17.0782 45.9985L15.5088 44.217L21.6137 31.6222Z" fill="black"/>
<path d="M16.0132 24.0335L2.21087 25.9219L0.938496 24.0637L2.16121 22.0286L16.0132 24.0335Z" fill="black"/>
<path d="M18.2932 18.4125L13.6871 15.3711L13.8074 14.0009L15.2656 13.7925L18.2932 18.4125Z" fill="black"/>
<path d="M23.9086 16.014L22.7973 10.6073L23.8506 9.72254L25.0297 10.6052L23.9086 16.014Z" fill="black"/>
<path d="M27.8105 16.9812L29.4737 11.718L30.8245 11.4584L31.4243 12.8037L27.8105 16.9812Z" fill="black"/>
<path d="M31.9866 24.0044L37.4062 22.9577L38.2783 24.0215L37.3816 25.19L31.9866 24.0044Z" fill="black"/>
<path d="M26.5336 31.5741L29.2479 36.3803L28.5164 37.5452L27.1235 37.0662L26.5336 31.5741Z" fill="black"/>
<path d="M23.9997 31.9866L25.0489 37.4056L23.9856 38.2783L22.8167 37.3821L23.9997 31.9866Z" fill="black"/>
<path d="M19.2534 30.4232L16.8768 35.4051L15.5031 35.475L15.0955 34.0595L19.2534 30.4232Z" fill="black"/>
<path d="M17.4867 28.6221L13.6748 32.6142L12.3478 32.2521L12.4021 30.7802L17.4867 28.6221Z" fill="black"/>
<path d="M16.4051 26.4709L11.5767 29.1453L10.4179 28.4042L10.9084 27.0154L16.4051 26.4709Z" fill="black"/>
</svg>
