<?xml version="1.0" standalone="no"?>
<!DOCTYPE svg PUBLIC "-//W3C//DTD SVG 20010904//EN"
 "http://www.w3.org/TR/2001/REC-SVG-20010904/DTD/svg10.dtd">
<svg version="1.0" xmlns="http://www.w3.org/2000/svg"
 width="482.000000pt" height="482.000000pt" viewBox="0 0 482.000000 482.000000"
 preserveAspectRatio="xMidYMid meet">
<metadata>
Created by potrace 1.16, written by Peter Selinger 2001-2019
</metadata>
<g transform="translate(0.000000,482.000000) scale(0.100000,-0.100000)"
fill="#000000" stroke="none">
<path d="M2055 4805 c-316 -45 -623 -149 -881 -300 -613 -358 -1029 -952
-1154 -1650 -10 -55 -17 -101 -16 -103 2 -1 50 13 107 32 125 42 205 56 319
56 241 0 461 -86 650 -254 164 -145 241 -183 387 -193 98 -7 184 8 268 46 33
16 142 92 245 172 221 173 254 196 345 241 327 165 734 135 1031 -74 34 -24
203 -167 376 -317 l315 -275 -140 -160 c-77 -89 -141 -162 -141 -163 -1 -1
-139 117 -306 264 -168 146 -331 283 -364 304 -178 117 -423 126 -606 22 -25
-15 -125 -89 -224 -165 -217 -170 -294 -221 -400 -263 -185 -75 -404 -90 -591
-41 -174 46 -292 111 -442 247 -156 141 -308 195 -480 170 -98 -14 -215 -70
-297 -143 l-59 -52 6 -72 c26 -298 184 -729 374 -1011 69 -104 174 -242 183
-243 3 0 84 68 180 151 381 329 418 357 535 414 125 60 191 80 322 95 160 20
356 -16 508 -92 100 -51 165 -99 275 -203 151 -143 241 -185 400 -185 137 0
219 32 370 146 166 125 321 190 509 214 228 29 491 -37 687 -174 48 -34 65
-42 73 -32 23 27 131 250 169 347 74 190 118 364 148 589 22 173 15 515 -15
685 -56 316 -164 603 -327 866 -53 86 -55 88 -101 95 -76 11 -203 -2 -275 -29
-82 -31 -126 -59 -214 -135 -190 -164 -395 -244 -629 -245 -158 0 -288 30
-430 101 -94 47 -134 75 -239 170 -142 128 -246 168 -415 160 -107 -6 -171
-27 -255 -83 -28 -19 -177 -154 -331 -300 l-280 -265 -147 153 c-81 83 -147
155 -148 158 0 9 567 540 629 588 78 60 239 136 346 163 106 26 302 30 400 9
191 -42 331 -117 494 -265 122 -111 229 -156 374 -156 126 0 242 47 357 146
123 105 268 189 388 225 23 7 42 16 42 20 0 15 -141 126 -255 203 -295 199
-598 320 -955 382 -132 23 -557 28 -695 9z"/>
<path d="M1563 1096 c-101 -25 -158 -64 -420 -288 -142 -121 -259 -224 -261
-228 -2 -4 23 -28 55 -52 547 -418 1271 -572 1966 -417 321 71 685 246 952
458 71 56 295 269 295 280 0 14 -115 84 -177 107 -83 32 -221 43 -315 25 -87
-17 -189 -69 -278 -141 -96 -78 -266 -163 -385 -191 -132 -33 -314 -31 -448 4
-101 27 -221 81 -304 138 -26 18 -95 78 -153 134 -112 106 -173 144 -275 170
-70 18 -180 18 -252 1z"/>
</g>
</svg>
