<svg width="300" height="54" viewBox="0 0 300 54" fill="none" xmlns="http://www.w3.org/2000/svg">
<path d="M66.1173 22.5188C60.2235 22.5188 57.2626 19.8413 57.2626 14.4864C57.2626 9.13149 60.2235 6.45404 66.1173 6.45404H83.8268V11.8089H66.9832C64.0224 11.8089 62.5419 12.7108 62.5419 14.4864C62.5419 16.262 64.0224 17.1639 66.9832 17.1639H74.9441C80.838 17.1639 83.7989 19.8413 83.7989 25.1962C83.7989 30.5511 80.838 33.2286 74.9441 33.2286H57.2626V27.9019H74.1061C77.067 27.9019 78.5475 27 78.5475 25.2244C78.5475 23.4488 77.067 22.5469 74.1061 22.5469H66.1173V22.5188Z" fill="#282929"/>
<path d="M110.419 6.45404H115.726V24.3225C115.726 30.2693 112.765 33.2568 106.872 33.2568H98.0169C92.123 33.2568 89.1621 30.2693 89.1621 24.3225V6.45404H94.4694V23.5897C94.4694 26.4645 95.8939 27.9018 98.7152 27.9018H106.145C108.995 27.9018 110.419 26.4645 110.419 23.5616V6.45404Z" fill="#282929"/>
<path d="M139.05 6.45404C144.944 6.45404 147.905 9.13149 147.905 14.4864C147.905 17.4739 147.011 19.2494 145.251 19.8413C147.011 20.4332 147.905 22.2369 147.905 25.1962C147.905 30.5511 144.944 33.2286 139.05 33.2286H121.341V6.45404H139.05ZM138.296 17.0793C140.642 17.0793 141.816 16.2056 141.816 14.43C141.816 12.6545 140.363 11.7808 137.43 11.7808H126.033V17.1075H138.296V17.0793ZM139.05 22.5188H126.648V27.8737H138.156C141.117 27.8737 142.598 26.9718 142.598 25.1962C142.598 23.4206 141.425 22.5188 139.05 22.5188Z" fill="#282929"/>
<path d="M162.095 22.5188C156.201 22.5188 153.24 19.8413 153.24 14.4864C153.24 9.13149 156.201 6.45404 162.095 6.45404H179.804V11.8089H162.961C160 11.8089 158.52 12.7108 158.52 14.4864C158.52 16.262 160 17.1639 162.961 17.1639H170.95C176.844 17.1639 179.804 19.8413 179.804 25.1962C179.804 30.5511 176.844 33.2286 170.95 33.2286H153.24V27.9019H170.084C173.045 27.9019 174.525 27 174.525 25.2244C174.525 23.4488 173.045 22.5469 170.084 22.5469H162.095V22.5188Z" fill="#282929"/>
<path d="M191.285 33.2568H185.978V6.45404H203.687C209.581 6.45404 212.542 9.13149 212.542 14.4864C212.542 19.8413 209.581 22.5188 203.687 22.5188H191.285V33.2568ZM201.452 17.0793C204.385 17.0793 205.838 16.2056 205.838 14.43C205.838 12.6545 204.385 11.7808 201.452 11.7808H190.056V17.1075H201.452V17.0793Z" fill="#282929"/>
<path d="M218.659 27.9018L216.369 33.2568H210.587L222.123 6.45404H227.905L239.441 33.2568H233.659L231.369 27.9018H218.659ZM228.994 22.5188L224.972 13.1618L220.95 22.5188H228.994Z" fill="#282929"/>
<path d="M268.408 27.9018V33.2568H250.698C244.804 33.2568 241.844 30.2693 241.844 24.3225V15.3883C241.844 9.44151 244.804 6.45404 250.698 6.45404H268.408V11.8089H251.425C248.575 11.8089 247.151 13.2463 247.151 16.0929V23.5897C247.151 26.4645 248.575 27.9018 251.425 27.9018H268.408V27.9018Z" fill="#282929"/>
<path d="M278.743 27.9018H300V33.2568H273.436V6.45404H300V11.8089H278.743V17.1639H300V22.5188H278.743V27.9018Z" fill="#282929"/>
<path d="M200.531 45.4603V54H198.101V41.7683H200.587L207.821 50.3079V41.7683H210.251V54H207.793L200.531 45.4603Z" fill="#606161"/>
<path d="M215.084 51.548H224.777V54H212.654V41.7683H224.777V44.2203H215.084V46.6722H224.777V49.1242H215.084V51.548Z" fill="#606161"/>
<path d="M232.067 44.1921H227.235V41.7401H239.358V44.1921H234.497V53.9718H232.067V44.1921Z" fill="#606161"/>
<path d="M244.162 53.9718L240.531 41.7401H243.073L245.447 49.7161L247.821 41.7401H250.363L252.737 49.7161L255.112 41.7401H257.654L254.022 53.9718H251.48L249.106 45.9958L246.732 53.9718H244.162Z" fill="#606161"/>
<path d="M266.844 53.9718H262.793C260.084 53.9718 258.743 52.619 258.743 49.8852V45.7986C258.743 43.0647 260.084 41.7119 262.793 41.7119H266.844C269.553 41.7119 270.894 43.0647 270.894 45.7986V49.8852C270.894 52.619 269.553 53.9718 266.844 53.9718ZM266.453 51.548C267.793 51.548 268.464 50.8716 268.464 49.5188V46.2213C268.464 44.8685 267.793 44.1921 266.453 44.1921H262.821C261.732 44.1921 261.201 44.8685 261.201 46.2213V49.4906C261.201 50.8434 261.872 51.5198 263.212 51.5198H266.453V51.548Z" fill="#606161"/>
<path d="M276.927 49.096H275.754V54H273.324V41.7683H281.425C284.134 41.7683 285.475 42.9802 285.475 45.4322C285.475 47.8841 284.134 49.096 281.425 49.096H280.67L286.369 54H282.654L276.927 49.096ZM281.006 46.6441C282.346 46.6441 283.017 46.2495 283.017 45.4322C283.017 44.6148 282.346 44.2203 281.006 44.2203H275.754V46.6722H281.006V46.6441Z" fill="#606161"/>
<path d="M290.307 48.4478V53.9718H287.877V41.7401H290.307V47.2641L296.397 41.7401H300.028L293.296 47.856L300.028 53.9718H296.397L290.307 48.4478Z" fill="#606161"/>
<path d="M29.0224 15.4447H18.352C17.8772 15.4447 17.4861 15.642 17.2068 16.0083C16.9275 16.3747 16.7878 16.7975 16.7878 17.3048C16.7878 17.7839 16.9275 18.2067 17.1789 18.5449C17.4582 18.8831 17.8213 19.0522 18.3241 19.0522H24.609C26.3129 19.0522 27.6537 19.7004 28.6314 20.9687C29.5252 22.1242 29.9721 23.5334 29.9721 25.2244C29.9721 26.9154 29.5252 28.3246 28.6314 29.4802C27.6537 30.7484 26.3129 31.3967 24.609 31.3967H13.1844V27.0845H23.8828C24.3297 27.0845 24.6928 26.8873 24.9721 26.5209C25.2515 26.1545 25.3632 25.7035 25.3632 25.1962C25.3632 24.6889 25.2235 24.2662 24.9721 23.928C24.7207 23.5898 24.3576 23.4207 23.8828 23.4207H17.5978C15.8939 23.4207 14.5532 22.8006 13.5476 21.5324C12.6537 20.405 12.2068 18.9958 12.2068 17.3048C12.2068 15.642 12.6537 14.261 13.5476 13.1054C14.5532 11.8372 15.8939 11.1889 17.5978 11.1889H28.9945V15.4447H29.0224Z" fill="#282929"/>
<path d="M39.3291 10.9061L38.4073 11.3852C38.2677 11.4698 38.2118 11.6389 38.2956 11.7798C40.223 15.3028 41.0889 19.4458 40.5302 23.8424C39.4129 32.7203 32.4576 39.7662 23.6587 40.8936C10.7258 42.5846 -0.196035 31.4239 1.70341 18.3184C2.93246 9.80696 9.5805 3.07105 17.9883 1.74642C21.1168 1.26729 24.1336 1.52095 26.871 2.39464C26.8431 2.53556 26.8431 2.6483 26.8431 2.78921C26.8431 4.33932 28.3235 5.55122 29.9157 5.0721C30.642 4.84663 31.2285 4.25477 31.452 3.52199C31.9269 1.88734 30.7258 0.421783 29.1894 0.421783C28.5749 0.421783 28.0163 0.675437 27.5693 1.07001C24.6084 0.0553949 21.3123 -0.28281 17.9045 0.224497C8.77044 1.6055 1.56374 8.90508 0.22296 18.1212C-1.81615 32.3539 10.195 44.4447 24.3012 42.331C33.3794 40.9781 40.5861 33.7067 41.9269 24.547C42.6531 19.6149 41.7034 14.9082 39.5246 10.9907C39.4967 10.9061 39.4129 10.8779 39.3291 10.9061Z" fill="#282929"/>
</svg>
