<svg width="3000" height="3000" viewBox="0 0 3000 3000" fill="none" xmlns="http://www.w3.org/2000/svg">
<rect width="3000" height="3000" fill="black"/>
<g clip-path="url(#clip0_3924_32027)">
<g opacity="0.25">
<path d="M1186.87 2309.97C1178.08 2302.2 1172.57 2291.37 1171.47 2279.69L1084.03 1349.45H1395.22V2391.61C1395.22 2431.35 1348.32 2452.51 1318.53 2426.2L1186.87 2309.97Z" fill="black"/>
<path d="M1395.22 1330.99V1201.14L1067.43 1172.82L1082.3 1330.99H1395.22Z" fill="black"/>
<path d="M1395.22 1182.61L1065.67 1154.14L1014.16 606.169C1011.62 579.095 1032.92 555.702 1060.11 555.702H1349.07C1374.56 555.702 1395.22 576.363 1395.22 601.85V1182.61Z" fill="black"/>
<path d="M2003.44 1330.99H2240.65C2253.39 1330.99 2263.72 1320.66 2263.72 1307.92V1171.84C2263.72 1158.21 2251.97 1147.55 2238.41 1148.87L2018.13 1170.38L2003.44 1330.99Z" fill="black"/>
<path d="M1999.43 1172.21L1671.18 1204.26V1330.99H1984.9L1999.43 1172.21Z" fill="black"/>
<path d="M1652.72 1206.06V1330.99H778.683C765.939 1330.99 755.609 1320.66 755.609 1307.92V1171.53C755.609 1158.01 767.179 1147.39 780.649 1148.54L1557.45 1214.98C1558.85 1215.1 1560.26 1215.09 1561.66 1214.95L1652.72 1206.06Z" fill="black"/>
<path d="M1750.18 2423.07C1721.21 2452.44 1671.18 2431.92 1671.18 2390.66V959.041H2019.37L1898.25 2258.12C1897.26 2268.73 1892.63 2278.67 1885.15 2286.25L1750.18 2423.07Z" fill="black"/>
<path d="M2021.09 940.582H1671.18V741.615L2041.8 718.495L2021.09 940.582Z" fill="black"/>
<path d="M1671.18 601.856V723.12L2043.54 699.892L2052.28 606.14C2054.8 579.079 2033.51 555.708 2006.33 555.708H1717.33C1691.84 555.708 1671.18 576.369 1671.18 601.856Z" fill="black"/>
<path d="M1395.22 940.583V742.195L1025.06 723.978L1045.31 940.583H1395.22Z" fill="black"/>
<path d="M1413.68 940.583H2346.79C2356.98 940.583 2365.25 932.318 2365.25 922.124V717.052C2365.25 706.397 2356.25 697.955 2345.62 698.63L1544.28 749.53L1413.68 743.103V940.583Z" fill="black"/>
<path d="M1004.91 722.986L1027.02 940.583H653.16C642.966 940.583 634.701 932.318 634.701 922.124V724.157C634.701 713.606 643.529 705.201 654.068 705.72L1004.91 722.986Z" fill="black"/>
</g>
<path d="M1183.17 2306.26C1174.38 2298.5 1168.87 2287.67 1167.77 2275.99L1080.33 1345.75H1391.52V2387.91C1391.52 2427.65 1344.62 2448.81 1314.82 2422.5L1183.17 2306.26Z" fill="url(#paint0_linear_3924_32027)"/>
<path d="M1391.52 1327.29V1197.44L1063.73 1169.11L1078.59 1327.29H1391.52Z" fill="url(#paint1_linear_3924_32027)"/>
<path d="M1391.52 1178.91L1061.97 1150.43L1010.46 602.467C1007.92 575.393 1029.22 552 1056.41 552H1345.37C1370.85 552 1391.52 572.661 1391.52 598.148V1178.91Z" fill="url(#paint2_linear_3924_32027)"/>
<path d="M1999.73 1327.29H2236.95C2249.69 1327.29 2260.02 1316.96 2260.02 1304.22V1168.13C2260.02 1154.5 2248.27 1143.84 2234.71 1145.17L2014.43 1166.68L1999.73 1327.29Z" fill="url(#paint3_linear_3924_32027)"/>
<path d="M1995.73 1168.51L1667.48 1200.56V1327.29H1981.2L1995.73 1168.51Z" fill="url(#paint4_linear_3924_32027)"/>
<path d="M1649.02 1202.36V1327.29H774.981C762.238 1327.29 751.908 1316.96 751.908 1304.22V1167.83C751.908 1154.31 763.478 1143.69 776.948 1144.84L1553.75 1211.28C1555.15 1211.4 1556.56 1211.39 1557.95 1211.25L1649.02 1202.36Z" fill="url(#paint5_linear_3924_32027)"/>
<path d="M1746.48 2419.36C1717.5 2448.74 1667.48 2428.22 1667.48 2386.96V955.339H2015.67L1894.55 2254.42C1893.56 2265.03 1888.93 2274.96 1881.45 2282.55L1746.48 2419.36Z" fill="url(#paint6_linear_3924_32027)"/>
<path d="M2017.39 936.88H1667.48V737.913L2038.1 714.793L2017.39 936.88Z" fill="url(#paint7_linear_3924_32027)"/>
<path d="M1667.48 598.155V719.418L2039.84 696.19L2048.58 602.439C2051.1 575.377 2029.81 552.007 2002.63 552.007H1713.63C1688.14 552.007 1667.48 572.668 1667.48 598.155Z" fill="url(#paint8_linear_3924_32027)"/>
<path d="M1391.52 936.881V738.493L1021.36 720.276L1041.61 936.881H1391.52Z" fill="url(#paint9_linear_3924_32027)"/>
<path d="M1409.98 936.881H2343.09C2353.28 936.881 2361.55 928.617 2361.55 918.422V713.35C2361.55 702.695 2352.55 694.253 2341.92 694.928L1540.58 745.829L1409.98 739.401V936.881Z" fill="url(#paint10_linear_3924_32027)"/>
<path d="M1001.21 719.285L1023.32 936.881H649.459C639.264 936.881 631 928.617 631 918.422V720.455C631 709.904 639.828 701.5 650.367 702.018L1001.21 719.285Z" fill="url(#paint11_linear_3924_32027)"/>
<path d="M1078.88 1151.9L1061.97 1150.43L1041.9 936.881H1041.61L1021.36 720.276L1021.54 720.285L1010.46 602.467C1007.92 575.393 1029.22 552 1056.41 552H1345.37C1362.87 552 1378.09 561.74 1385.92 576.095C1379.37 572.529 1371.86 570.502 1363.88 570.502H1074.92C1047.72 570.502 1026.43 593.895 1028.97 620.969L1040.04 738.787L1039.87 738.778L1060.12 955.383H1060.4L1078.88 1151.9Z" fill="white"/>
<path d="M1410.02 936.881H1428.48V757.903L1559.08 764.33L2360.43 713.43C2360.8 713.406 2361.18 713.394 2361.55 713.392V713.35C2361.55 702.695 2352.55 694.253 2341.92 694.928L2058.51 712.93L2058.34 714.692L1685.99 737.92V736.592L1540.58 745.829L1410.02 739.404L1410.02 936.881Z" fill="white"/>
<path d="M2043.17 576.094C2036.64 572.538 2029.14 570.508 2021.14 570.508H1732.14C1706.65 570.508 1685.99 591.17 1685.99 616.656V718.264L1667.48 719.418V598.155C1667.48 572.668 1688.14 552.007 1713.63 552.007H2002.63C2020.24 552.007 2035.38 561.821 2043.17 576.094Z" fill="white"/>
<path d="M1667.48 955.383H2015.67L2013.95 973.841H1685.99V2405.46C1685.99 2413.67 1687.97 2421.05 1691.37 2427.39C1677.6 2419.87 1667.48 2405.51 1667.48 2386.96V1345.79H1667.53V1220.86L1667.48 1220.87V955.383Z" fill="white"/>
<path d="M1649.02 1222.67V1202.36L1557.95 1211.25C1556.56 1211.39 1555.15 1211.4 1553.75 1211.28L1063.73 1169.11L1063.75 1169.37L776.948 1144.84C763.478 1143.69 751.908 1154.31 751.908 1167.83V1304.22C751.908 1315.53 760.05 1324.94 770.795 1326.91C770.545 1325.55 770.415 1324.15 770.415 1322.72V1186.33C770.415 1172.81 781.985 1162.19 795.455 1163.34L1082.26 1187.87L1082.23 1187.62L1572.25 1229.78C1573.65 1229.9 1575.06 1229.89 1576.46 1229.75L1649.02 1222.67Z" fill="white"/>
<path d="M1080.33 1345.79L1167.77 2275.99C1168.87 2287.67 1174.38 2298.5 1183.17 2306.26L1193.66 2315.53C1189.55 2309.28 1186.99 2302.06 1186.28 2294.49L1098.84 1364.25H1391.52V1345.79L1080.33 1345.79Z" fill="white"/>
<path d="M2001.4 1327.29H2019.93L2032.94 1185.18L2253.21 1163.67C2255.42 1163.46 2257.58 1163.56 2259.64 1163.94C2257.53 1152.39 2246.84 1143.98 2234.71 1145.17L2016.22 1166.5L2010.54 1227.39L2001.4 1327.29Z" fill="white"/>
<path d="M1003.01 736.964L1001.21 719.285L650.367 702.018C639.828 701.5 631 709.904 631 720.455V918.422C631 928.617 639.264 936.881 649.459 936.881H649.507V738.957C649.507 728.406 658.335 720.001 668.874 720.52L1003.01 736.964Z" fill="white"/>
</g>
<defs>
<linearGradient id="paint0_linear_3924_32027" x1="631" y1="1493.07" x2="2361.55" y2="1493.07" gradientUnits="userSpaceOnUse">
<stop stop-color="#5433FF"/>
<stop offset="0.5" stop-color="#20BDFF"/>
<stop offset="1" stop-color="#A5FECB"/>
</linearGradient>
<linearGradient id="paint1_linear_3924_32027" x1="631" y1="1493.07" x2="2361.55" y2="1493.07" gradientUnits="userSpaceOnUse">
<stop stop-color="#5433FF"/>
<stop offset="0.5" stop-color="#20BDFF"/>
<stop offset="1" stop-color="#A5FECB"/>
</linearGradient>
<linearGradient id="paint2_linear_3924_32027" x1="631" y1="1493.07" x2="2361.55" y2="1493.07" gradientUnits="userSpaceOnUse">
<stop stop-color="#5433FF"/>
<stop offset="0.5" stop-color="#20BDFF"/>
<stop offset="1" stop-color="#A5FECB"/>
</linearGradient>
<linearGradient id="paint3_linear_3924_32027" x1="631" y1="1493.07" x2="2361.55" y2="1493.07" gradientUnits="userSpaceOnUse">
<stop stop-color="#5433FF"/>
<stop offset="0.5" stop-color="#20BDFF"/>
<stop offset="1" stop-color="#A5FECB"/>
</linearGradient>
<linearGradient id="paint4_linear_3924_32027" x1="631" y1="1493.07" x2="2361.55" y2="1493.07" gradientUnits="userSpaceOnUse">
<stop stop-color="#5433FF"/>
<stop offset="0.5" stop-color="#20BDFF"/>
<stop offset="1" stop-color="#A5FECB"/>
</linearGradient>
<linearGradient id="paint5_linear_3924_32027" x1="631" y1="1493.07" x2="2361.55" y2="1493.07" gradientUnits="userSpaceOnUse">
<stop stop-color="#5433FF"/>
<stop offset="0.5" stop-color="#20BDFF"/>
<stop offset="1" stop-color="#A5FECB"/>
</linearGradient>
<linearGradient id="paint6_linear_3924_32027" x1="631" y1="1493.07" x2="2361.55" y2="1493.07" gradientUnits="userSpaceOnUse">
<stop stop-color="#5433FF"/>
<stop offset="0.5" stop-color="#20BDFF"/>
<stop offset="1" stop-color="#A5FECB"/>
</linearGradient>
<linearGradient id="paint7_linear_3924_32027" x1="631" y1="1493.07" x2="2361.55" y2="1493.07" gradientUnits="userSpaceOnUse">
<stop stop-color="#5433FF"/>
<stop offset="0.5" stop-color="#20BDFF"/>
<stop offset="1" stop-color="#A5FECB"/>
</linearGradient>
<linearGradient id="paint8_linear_3924_32027" x1="631" y1="1493.07" x2="2361.55" y2="1493.07" gradientUnits="userSpaceOnUse">
<stop stop-color="#5433FF"/>
<stop offset="0.5" stop-color="#20BDFF"/>
<stop offset="1" stop-color="#A5FECB"/>
</linearGradient>
<linearGradient id="paint9_linear_3924_32027" x1="631" y1="1493.07" x2="2361.55" y2="1493.07" gradientUnits="userSpaceOnUse">
<stop stop-color="#5433FF"/>
<stop offset="0.5" stop-color="#20BDFF"/>
<stop offset="1" stop-color="#A5FECB"/>
</linearGradient>
<linearGradient id="paint10_linear_3924_32027" x1="631" y1="1493.07" x2="2361.55" y2="1493.07" gradientUnits="userSpaceOnUse">
<stop stop-color="#5433FF"/>
<stop offset="0.5" stop-color="#20BDFF"/>
<stop offset="1" stop-color="#A5FECB"/>
</linearGradient>
<linearGradient id="paint11_linear_3924_32027" x1="631" y1="1493.07" x2="2361.55" y2="1493.07" gradientUnits="userSpaceOnUse">
<stop stop-color="#5433FF"/>
<stop offset="0.5" stop-color="#20BDFF"/>
<stop offset="1" stop-color="#A5FECB"/>
</linearGradient>
<clipPath id="clip0_3924_32027">
<rect width="1738.15" height="1895.14" fill="white" transform="translate(631 552)"/>
</clipPath>
</defs>
</svg>
