<svg width="30" height="30" viewBox="0 0 30 30" fill="none" xmlns="http://www.w3.org/2000/svg">
<g clip-path="url(#clip0_438_1084)">
<path d="M14.8247 30C23.04 30 29.6493 23.3125 29.6493 15C29.6493 6.68745 23.04 0 14.8247 0C6.60928 0 0 6.68745 0 15C0 23.3125 6.60928 30 14.8247 30Z" fill="#2775CA"/>
<path d="M18.9016 17.3749C18.9016 15.1875 17.6044 14.4375 15.0101 14.125C13.157 13.875 12.7864 13.375 12.7864 12.4999C12.7864 11.6248 13.4041 11.0625 14.6395 11.0625C15.7513 11.0625 16.3691 11.4375 16.6779 12.375C16.7397 12.5625 16.925 12.6874 17.1103 12.6874H18.0985C18.3456 12.6874 18.531 12.4999 18.531 12.25V12.1875C18.2838 10.8124 17.172 9.74999 15.7513 9.62504V8.12504C15.7513 7.87499 15.566 7.68749 15.2572 7.62494H14.3307C14.0836 7.62494 13.8982 7.81244 13.8364 8.12504V9.56249C11.9833 9.81254 10.8098 11.0625 10.8098 12.625C10.8098 14.6875 12.0452 15.4999 14.6395 15.8125C16.3691 16.125 16.925 16.5 16.925 17.5C16.925 18.5001 16.0601 19.1875 14.8866 19.1875C13.2805 19.1875 12.7246 18.4999 12.5393 17.5624C12.4776 17.3125 12.2923 17.1874 12.107 17.1874H11.0568C10.8098 17.1874 10.6245 17.3749 10.6245 17.625V17.6875C10.8715 19.2499 11.8599 20.3749 13.8982 20.6875V22.1875C13.8982 22.4374 14.0836 22.6249 14.3923 22.6875H15.3189C15.566 22.6875 15.7513 22.5 15.8131 22.1875V20.6875C17.6662 20.3749 18.9016 19.0624 18.9016 17.3749Z" fill="white"/>
<path d="M11.6744 23.9375C6.85643 22.1876 4.3856 16.7501 6.17701 11.9375C7.10355 9.31246 9.14194 7.31251 11.6744 6.37501C11.9216 6.25006 12.0451 6.06256 12.0451 5.74996V4.87501C12.0451 4.62496 11.9216 4.43746 11.6744 4.37506C11.6126 4.37506 11.4891 4.37506 11.4273 4.43746C5.55927 6.31246 2.34721 12.6251 4.20029 18.5625C5.31214 22.0625 7.96828 24.75 11.4273 25.875C11.6744 26 11.9216 25.875 11.9832 25.625C12.0451 25.5626 12.0451 25.5 12.0451 25.3751V24.5C12.0451 24.3125 11.8597 24.0626 11.6744 23.9375ZM18.2221 4.43746C17.9749 4.31251 17.7278 4.43746 17.6661 4.68751C17.6043 4.75006 17.6043 4.81246 17.6043 4.93756V5.81251C17.6043 6.06256 17.7896 6.31246 17.9749 6.43756C22.7929 8.18746 25.2638 13.625 23.4724 18.4376C22.5458 21.0626 20.5074 23.0625 17.9749 24C17.7278 24.125 17.6043 24.3125 17.6043 24.6251V25.5C17.6043 25.7501 17.7278 25.9376 17.9749 26C18.0367 26 18.1602 26 18.2221 25.9376C24.0901 24.0626 27.3022 17.75 25.4491 11.8125C24.3372 8.25001 21.6193 5.56246 18.2221 4.43746Z" fill="white"/>
</g>
<defs>
<clipPath id="clip0_438_1084">
<rect width="29.6493" height="30" fill="white"/>
</clipPath>
</defs>
</svg>
