<svg width="30" height="30" viewBox="0 0 30 30" fill="none" xmlns="http://www.w3.org/2000/svg">
<g clip-path="url(#clip0_438_1111)">
<path d="M0.0277195 6.35889L4.9633 3.47656L19.7508 12.1136L19.7511 12.13C19.3644 12.3308 18.9962 12.5672 18.6169 12.7817L14.8277 14.9942C14.795 14.9828 14.7626 14.9704 14.7307 14.957L0.649781 6.73209C0.441187 6.61647 0.241046 6.48477 0.0263672 6.38044L0.0277195 6.35889ZM19.7542 6.35615L24.687 3.47656L29.6182 6.35649L29.6226 6.37531L24.685 9.24737L20.881 7.02833C20.5081 6.79948 20.1176 6.60005 19.7542 6.35615Z" fill="#2B6DEF"/>
<path d="M19.7508 12.1135L19.7541 6.35608C20.1176 6.59998 20.5081 6.79941 20.881 7.02826L24.685 9.2473L24.6877 25.5184C24.6833 25.8537 24.6975 26.1896 24.6769 26.5242L19.7535 23.6507L19.7518 17.8929L19.7511 12.13L19.7508 12.1135ZM0.0263486 6.38037C0.241027 6.4847 0.441169 6.6164 0.649762 6.73202L14.7307 14.9569C14.7626 14.9703 14.795 14.9827 14.8277 14.9942C14.806 15.1608 14.8175 15.3291 14.8155 15.4967L14.8148 20.7684L9.89853 17.8905C9.64835 17.7191 9.3762 17.583 9.11825 17.4239L5.14923 15.1057C5.09108 15.0708 5.03056 15.041 4.96835 15.0147C4.96265 15.0611 4.95847 15.1076 4.95585 15.1543L4.95754 25.0734C4.96328 25.5568 4.94097 26.0418 4.97275 26.5242L4.96633 26.545H4.9528C4.95145 26.5395 4.94841 26.5289 4.94706 26.5235L0.0246582 23.647L0.0263486 6.38037Z" fill="#2891F9"/>
<path d="M24.6851 9.24731L29.6227 6.37524L29.6247 23.647L24.7023 26.5231L24.6969 26.545H24.6837L24.677 26.5242C24.6976 26.1896 24.6834 25.8537 24.6878 25.5185L24.6851 9.24731ZM18.617 12.7816C18.9963 12.5671 19.3644 12.3308 19.7512 12.13L19.7519 17.8929L16.0388 20.0613L14.8149 20.7684L14.8156 15.4967C14.8176 15.3291 14.8062 15.1608 14.8278 14.9942L18.617 12.7816ZM4.96846 15.0147C5.03066 15.041 5.09118 15.0708 5.14933 15.1057L9.11835 17.4239C9.3763 17.583 9.64845 17.7191 9.89863 17.8905L9.89559 23.6514L4.97285 26.5242C4.94107 26.0418 4.96339 25.5568 4.95764 25.0734L4.95595 15.1543C4.95858 15.1076 4.96275 15.0611 4.96846 15.0147Z" fill="#2BBDF7"/>
</g>
<defs>
<clipPath id="clip0_438_1111">
<rect width="29.6493" height="30" fill="white"/>
</clipPath>
</defs>
</svg>
