<svg width="58" height="28" viewBox="0 0 58 28" fill="none" xmlns="http://www.w3.org/2000/svg">
<path fill-rule="evenodd" clip-rule="evenodd" d="M3.51388 23.027C-0.945897 17.724 -0.635273 9.88675 4.44451 4.93622C9.85612 -0.335185 18.6285 -0.335185 24.0401 4.93622C29.4505 10.2088 29.4505 18.7559 24.0401 24.0285C18.7931 29.1407 10.3851 29.295 4.94725 24.494L17.1814 12.5729L18.6509 14.0047L11.181 21.284C13.9716 22.4764 17.3461 21.9586 19.6302 19.7331C22.6067 16.833 22.6067 12.1317 19.6302 9.23283C16.6549 6.33277 11.8297 6.33277 8.85314 9.23283C6.2122 11.8059 5.9153 15.7987 7.96243 18.6915L3.51388 23.027ZM40.2973 17.1684V15.1496H57.5489C57.1983 22.0788 51.4711 27.6298 44.3467 27.9239C36.1918 28.2618 29.4878 21.6255 29.9594 13.6862C30.3785 6.62075 36.586 1.01631 43.7504 1.01631C50.9147 1.01631 56.8041 6.32904 57.4977 13.1307H51.2228C50.5741 9.6849 47.4754 7.07411 43.7504 7.07411C39.0586 7.07411 35.3598 11.2176 36.2991 15.9554C36.8804 18.8834 39.2469 21.1818 42.2546 21.7409C46.0981 22.4544 49.5574 20.3444 50.8311 17.1684H40.2973Z" fill="url(#paint0_linear_5993_54)"/>
<defs>
<linearGradient id="paint0_linear_5993_54" x1="44.6471" y1="-0.488632" x2="17.9609" y2="26.1292" gradientUnits="userSpaceOnUse">
<stop stop-color="#FAEA53"/>
<stop offset="0.12" stop-color="#FFAF90"/>
<stop offset="0.25" stop-color="#FE7981"/>
<stop offset="0.56" stop-color="#BC50FF"/>
<stop offset="1" stop-color="#53B7FF"/>
</linearGradient>
</defs>
</svg>
