<?xml version="1.0" encoding="utf-8"?>
<!-- Generator: Adobe Illustrator 25.0.0, SVG Export Plug-In . SVG Version: 6.00 Build 0)  -->
<svg version="1.1" id="BACKGROUND" xmlns="http://www.w3.org/2000/svg" xmlns:xlink="http://www.w3.org/1999/xlink" x="0px" y="0px"
	 viewBox="0 0 512 512" style="enable-background:new 0 0 512 512;" xml:space="preserve">
<style type="text/css">
	.st0{fill:#0B1638;}
	.st1{fill:#FFFFFF;}
	.st2{opacity:0.5;}
</style>
<path class="st0" d="M369.3,459.5H142.7c-49.6,0-90.2-40.6-90.2-90.2V142.7c0-49.6,40.6-90.2,90.2-90.2h226.5
	c49.6,0,90.2,40.6,90.2,90.2v226.5C459.5,418.9,418.9,459.5,369.3,459.5z"/>
<g>
	<g>
		<path class="st1" d="M271.7,271.7c-5.1-1.2-10.3-1.8-15.7-1.8c-5.4,0-10.7,0.6-15.7,1.8c-6,25.9-26.3,46.3-52.3,52.3
			c-1.2,5.1-1.8,10.3-1.8,15.7c0,38.5,31.2,69.8,69.8,69.8c38.5,0,69.8-31.2,69.8-69.8c0-5.4-0.6-10.7-1.8-15.7
			C298.1,318,277.7,297.6,271.7,271.7z"/>
		<path class="st1" d="M339.7,186.2c-5.4,0-10.7,0.6-15.7,1.8c-6,25.9-26.3,46.3-52.3,52.3c-1.2,5.1-1.8,10.3-1.8,15.7
			c0,5.4,0.6,10.7,1.8,15.7c25.9,6,46.3,26.3,52.3,52.3c5.1,1.2,10.3,1.8,15.7,1.8c38.5,0,69.8-31.2,69.8-69.8
			S378.3,186.2,339.7,186.2z"/>
		<path class="st1" d="M240.3,240.3c5.1,1.2,10.3,1.8,15.7,1.8c5.4,0,10.7-0.6,15.7-1.8c6-25.9,26.3-46.3,52.3-52.3
			c1.2-5.1,1.8-10.3,1.8-15.7c0-38.5-31.2-69.8-69.8-69.8c-38.5,0-69.8,31.2-69.8,69.8c0,5.4,0.6,10.7,1.8,15.7
			C213.9,194,234.3,214.4,240.3,240.3z"/>
		<path class="st1" d="M240.3,271.7c1.2-5.1,1.8-10.3,1.8-15.7c0-5.4-0.6-10.7-1.8-15.7c-25.9-6-46.3-26.3-52.3-52.3
			c-5.1-1.2-10.3-1.8-15.7-1.8c-38.5,0-69.8,31.2-69.8,69.8s31.2,69.8,69.8,69.8c5.4,0,10.7-0.6,15.7-1.8
			C194,298.1,214.4,277.7,240.3,271.7z"/>
	</g>
	<g class="st2">
		<path class="st1" d="M324,324c-6-25.9-26.3-46.3-52.3-52.3C277.7,297.6,298.1,318,324,324z"/>
		<path class="st1" d="M240.3,240.3c-6-25.9-26.3-46.3-52.3-52.3C194,213.9,214.4,234.3,240.3,240.3z"/>
		<path class="st1" d="M324,188c-25.9,6-46.3,26.3-52.3,52.3C297.6,234.3,318,213.9,324,188z"/>
		<path class="st1" d="M240.3,271.7c-25.9,6-46.3,26.3-52.3,52.3C213.9,318,234.3,297.6,240.3,271.7z"/>
	</g>
</g>
</svg>
