<svg xmlns="http://www.w3.org/2000/svg" width="20" height="21" viewBox="0 0 20 21" fill="none">
    <path
        d="M18.7501 10.5C18.7501 5.6675 14.8326 1.75 10.0001 1.75C8.50177 1.75 7.08927 2.1275 5.85427 2.7925C4.695 3.41801 3.6911 4.29603 2.91677 5.36167V2.58333H1.2501V8.41667H7.08344V6.75H3.98927C4.64384 5.7039 5.55903 4.84586 6.6451 4.26C7.67602 3.70455 8.82908 3.41471 10.0001 3.41667C11.3692 3.41689 12.7088 3.81385 13.857 4.55953C15.0052 5.30521 15.9127 6.36764 16.4696 7.61829C17.0266 8.86893 17.2092 10.2542 16.9954 11.6064C16.7815 12.9587 16.1804 14.22 15.2646 15.2378C14.3489 16.2555 13.1579 16.9861 11.8357 17.3411C10.5134 17.6961 9.11664 17.6603 7.81432 17.238C6.512 16.8158 5.35995 16.0252 4.49757 14.9619C3.63518 13.8985 3.09942 12.6081 2.9551 11.2467L2.86844 10.4175L1.21094 10.5917L1.2976 11.42C1.75844 15.82 5.4776 19.25 10.0001 19.25C14.8326 19.25 18.7501 15.3325 18.7501 10.5ZM9.16677 5.5V10.845L12.0834 13.7617L13.2618 12.5833L10.8334 10.155V5.5H9.16677Z"
        fill="white" />
</svg>