<svg width="76" height="76" viewBox="0 0 76 76" fill="none" xmlns="http://www.w3.org/2000/svg">
<path fill-rule="evenodd" clip-rule="evenodd" d="M51.3573 3.61558C51.177 3.53435 51.0043 3.42366 50.8153 3.37632C43.8373 1.62812 36.9443 1.9048 30.1898 4.38284C27.5625 5.34667 25.0898 6.63729 22.7908 8.27379C20.8009 9.69022 18.9788 11.2747 17.3757 13.0852C11.9727 19.1871 9.40118 26.2896 9.87731 34.4329C10.1962 39.8865 12.0107 44.8185 15.4661 49.0513C19.4922 53.983 24.6732 57.0494 31.1424 57.6666C35.4033 58.0732 39.4699 57.363 43.202 55.1885C44.8077 54.2529 46.2579 53.1092 47.5452 51.7658C47.9398 51.3539 48.3567 50.9499 48.8213 50.6233C49.0213 50.4827 49.4394 50.4353 49.6291 50.5519C49.816 50.6668 49.9727 51.0812 49.9097 51.2977C49.7012 52.0149 49.4865 52.7629 49.0958 53.3896C47.9339 55.2534 46.4387 56.8226 44.5837 58.0446C37.4769 62.7268 29.9837 62.7914 22.3279 59.7054C18.2845 58.0757 14.9321 55.4323 12.1042 52.0991C7.25506 46.3838 5.06506 39.7251 4.91942 32.3744C4.83524 28.1231 5.764 23.9995 7.33133 20.0432C8.61217 16.8101 10.3017 13.7909 12.5783 11.1296C13.5824 9.95587 14.6649 8.84791 15.7108 7.70905C15.9088 7.4935 16.1017 7.27343 16.297 7.05535C16.2662 7.01849 16.2355 6.98152 16.2048 6.94455C15.9361 7.16197 15.6432 7.35599 15.4026 7.60045C13.2097 9.82829 11.1656 12.166 9.51153 14.8365C6.62527 19.4961 4.86998 24.5144 4.40922 29.9645C4.01861 34.5837 4.47971 39.1188 6.0123 43.509C7.32833 47.2792 9.2257 50.7563 11.907 53.7473C18.3018 60.881 26.2663 64.4366 35.9613 63.7635C40.9527 63.4168 45.5096 61.7392 49.4048 58.5974C55.3734 53.783 58.3631 47.5752 57.9339 39.8676C57.8982 39.2253 57.8311 38.5786 57.8759 37.9405C57.8952 37.6664 58.1236 37.2372 58.3294 37.1902C58.5628 37.137 58.9756 37.363 59.1397 37.5894C59.8756 38.6037 60.1049 39.8168 60.2789 41.0154C60.9728 45.7934 60.0129 50.2606 57.6349 54.4549C55.3641 58.4601 52.2357 61.6476 48.254 63.9694C41.0513 68.1693 33.3523 68.9782 25.3163 67.0059C20.2928 65.773 15.8632 63.369 11.9539 60.02C7.87282 56.5235 4.7789 52.3064 2.64335 47.399C2.14507 46.2541 1.6754 45.0969 1.12891 43.9583C1.35439 44.6909 1.53945 45.4386 1.81158 46.1536C4.51511 53.2568 8.93096 59.0538 15.3024 63.3148C20.9269 67.0762 27.1511 69.0652 33.9436 69.0524C41.159 69.0388 47.6741 66.8622 53.3089 62.3348C58.9124 57.8323 62.292 52.0154 63.329 44.9417C64.1209 39.5403 63.1155 34.3923 60.3507 29.6807C58.0064 25.6855 54.6798 22.6707 50.309 20.8977C49.2977 20.4875 48.2572 20.1478 47.2308 19.7739C46.9525 19.6725 46.6354 19.6173 46.4107 19.4452C46.1862 19.2733 45.887 18.9492 45.9257 18.7501C45.974 18.5022 46.3023 18.1984 46.5677 18.1251C47.0405 17.9947 47.5588 17.9679 48.0546 17.9873C51.1298 18.1076 53.8764 19.206 56.4213 20.8473C61.9373 24.4051 65.306 29.463 66.8174 35.7501C68.3415 42.0898 67.627 48.2531 65.0049 54.1965C62.8341 59.1165 59.493 63.1657 55.2453 66.4564C52.5001 68.583 49.4557 70.2115 46.178 71.4373C43.1132 72.5835 39.9665 73.2738 36.7168 73.5642C36.4778 73.5856 36.2412 73.6315 36.0039 73.7245C36.4808 73.7245 36.9625 73.768 37.434 73.7176C41.0454 73.3315 44.5954 72.6485 47.9529 71.2352C52.0671 69.5035 55.7908 67.1828 58.9948 64.0402C61.4172 61.6641 63.4924 59.0557 65.0875 56.0778C68.397 49.8992 69.603 43.3458 68.4557 36.4276C67.2407 29.1021 63.7248 23.0769 57.6952 18.625C52.956 15.1257 47.5955 13.4114 41.6447 13.7512C37.8784 13.9663 34.3661 15.0928 31.2381 17.1469C27.1598 19.8251 24.4012 23.513 23.2673 28.303C23.1492 28.8018 23.0164 29.3131 22.7809 29.7622C22.6494 30.013 22.2942 30.2903 22.0361 30.294C21.7805 30.2976 21.3527 30.0151 21.2924 29.7833C21.0819 28.9761 20.89 28.1371 20.8866 27.3093C20.8775 25.0509 21.6311 22.9657 22.6642 20.9932C25.3158 15.9305 29.5044 12.631 34.8649 10.7155C42.5634 7.96454 49.9574 8.95519 57.0771 12.6214C61.0663 14.6757 64.3595 17.5806 67.0873 21.1355C70.5447 25.641 72.6654 30.6902 73.5123 36.2713C73.7521 37.8509 73.8929 39.4454 74.093 41.1524C74.2757 39.0619 74.031 37.1111 73.7076 35.1769C72.7809 29.6329 70.6268 24.5869 67.1781 20.1264C64.3108 16.4179 60.7946 13.4483 56.586 11.2793C51.8535 8.84029 46.8296 7.60817 41.5233 7.82449C35.3877 8.07457 29.724 9.94406 25.0367 13.9405C18.0052 19.9356 14.8604 27.5031 16.7698 36.7015C17.8988 42.1402 21.0335 46.2724 26.0147 48.9036C27.1475 49.502 28.4318 49.8199 29.6492 50.2593C30.0842 50.4164 30.5649 50.489 30.9535 50.7186C31.2141 50.8725 31.5027 51.2374 31.498 51.5032C31.4934 51.7727 31.1887 52.206 30.937 52.2714C30.1226 52.4831 29.2647 52.7042 28.4371 52.6616C24.883 52.4786 21.8179 51.0883 19.1112 48.8166C15.0503 45.4085 12.7705 41.027 11.7912 35.9149C10.6394 29.9025 11.7605 24.2177 14.5694 18.8691C17.0509 14.1439 20.6714 10.4154 25.2516 7.5776C30.9655 4.03729 37.1917 2.45442 43.8831 2.59448C46.408 2.64734 48.9075 3.01255 51.3656 3.6125L51.3573 3.61558Z" fill="url(#paint0_linear_1157_103)"/>
<path d="M31.8767 4.99054L32.2389 21.7108C32.2905 24.0937 34.2099 26.013 36.5928 26.0646L53.313 26.4268L36.5928 26.789C34.2099 26.8407 32.2905 28.76 32.2389 31.1429L31.8767 47.8631L31.5145 31.1429C31.4629 28.76 29.5435 26.8407 27.1607 26.789L10.4404 26.4268L27.1607 26.0646C29.5435 26.013 31.4629 24.0937 31.5145 21.7108L31.8767 4.99054Z" fill="#2B2B2B"/>
<defs>
<linearGradient id="paint0_linear_1157_103" x1="27.8984" y1="138.496" x2="117.074" y2="111.156" gradientUnits="userSpaceOnUse">
<stop stop-color="#F26F56"/>
<stop offset="1" stop-color="#F49756"/>
</linearGradient>
</defs>
</svg>
