<svg width="453" height="153" viewBox="0 0 453 153" fill="none" xmlns="http://www.w3.org/2000/svg">
<path d="M28.032 113.24H42.624C46.5493 113.24 49.536 112.173 51.584 110.04C53.7173 107.821 54.784 104.664 54.784 100.568V55.128C54.784 51.032 53.7173 47.9173 51.584 45.784C49.536 43.5653 46.5493 42.456 42.624 42.456H28.032C24.1067 42.456 21.12 43.5653 19.072 45.784C17.024 48.0027 16 51.1173 16 55.128V100.568C16 104.579 17.024 107.693 19.072 109.912C21.12 112.131 24.1067 113.24 28.032 113.24ZM43.264 119H27.52C21.9733 119 17.5787 117.379 14.336 114.136C11.1787 110.893 9.6 106.456 9.6 100.824V54.872C9.6 49.24 11.1787 44.8027 14.336 41.56C17.5787 38.3173 21.9733 36.696 27.52 36.696H43.264C48.8107 36.696 53.1627 38.3173 56.32 41.56C59.5627 44.8027 61.184 49.24 61.184 54.872V100.824C61.184 106.456 59.5627 110.893 56.32 114.136C53.1627 117.379 48.8107 119 43.264 119ZM142.558 119H126.43C120.883 119 116.489 117.379 113.246 114.136C110.089 110.893 108.51 106.456 108.51 100.824V54.872C108.51 49.24 110.089 44.8027 113.246 41.56C116.489 38.3173 120.883 36.696 126.43 36.696H142.558C148.105 36.696 152.457 38.3173 155.614 41.56C158.857 44.8027 160.478 49.24 160.478 54.872V61.144C160.478 62.168 160.009 62.68 159.07 62.68H155.486C154.547 62.68 154.078 62.168 154.078 61.144V55.128C154.078 51.032 153.011 47.9173 150.878 45.784C148.83 43.5653 145.843 42.456 141.918 42.456H126.942C123.017 42.456 120.03 43.5653 117.982 45.784C115.934 48.0027 114.91 51.1173 114.91 55.128V100.568C114.91 104.579 115.934 107.693 117.982 109.912C120.03 112.131 123.017 113.24 126.942 113.24H141.918C145.843 113.24 148.83 112.173 150.878 110.04C153.011 107.821 154.078 104.664 154.078 100.568V94.552C154.078 93.528 154.547 93.016 155.486 93.016H159.07C160.009 93.016 160.478 93.528 160.478 94.552V100.824C160.478 106.456 158.857 110.893 155.614 114.136C152.457 117.379 148.105 119 142.558 119ZM251.869 36.696H255.453C256.392 36.696 256.861 37.1653 256.861 38.104V100.824C256.861 106.456 255.24 110.893 251.997 114.136C248.84 117.379 244.488 119 238.941 119H224.605C219.058 119 214.664 117.379 211.421 114.136C208.264 110.893 206.685 106.456 206.685 100.824V38.232C206.685 37.208 207.112 36.696 207.965 36.696H211.677C212.616 36.696 213.085 37.208 213.085 38.232V100.568C213.085 104.579 214.109 107.693 216.157 109.912C218.205 112.131 221.192 113.24 225.117 113.24H238.301C242.226 113.24 245.213 112.173 247.261 110.04C249.394 107.821 250.461 104.664 250.461 100.568V38.232C250.461 37.208 250.93 36.696 251.869 36.696ZM348.094 119H307.39C306.537 119 306.11 118.488 306.11 117.464V38.232C306.11 37.208 306.537 36.696 307.39 36.696H311.102C312.041 36.696 312.51 37.208 312.51 38.232V111.832C312.51 112.6 312.937 112.984 313.79 112.984H348.094C349.118 112.984 349.63 113.453 349.63 114.392V117.592C349.63 118.531 349.118 119 348.094 119ZM409.172 113.24H423.764C427.689 113.24 430.676 112.173 432.724 110.04C434.857 107.821 435.924 104.664 435.924 100.568V55.128C435.924 51.032 434.857 47.9173 432.724 45.784C430.676 43.5653 427.689 42.456 423.764 42.456H409.172C405.247 42.456 402.26 43.5653 400.212 45.784C398.164 48.0027 397.14 51.1173 397.14 55.128V100.568C397.14 104.579 398.164 107.693 400.212 109.912C402.26 112.131 405.247 113.24 409.172 113.24ZM424.404 119H408.66C403.113 119 398.719 117.379 395.476 114.136C392.319 110.893 390.74 106.456 390.74 100.824V54.872C390.74 49.24 392.319 44.8027 395.476 41.56C398.719 38.3173 403.113 36.696 408.66 36.696H424.404C429.951 36.696 434.303 38.3173 437.46 41.56C440.703 44.8027 442.324 49.24 442.324 54.872V100.824C442.324 106.456 440.703 110.893 437.46 114.136C434.303 117.379 429.951 119 424.404 119Z" fill="url(#paint0_linear_24_71)"/>
<circle cx="35" cy="77" r="4" fill="url(#paint1_linear_24_71)"/>
<circle cx="417" cy="77" r="4" fill="url(#paint2_linear_24_71)"/>
<defs>
<linearGradient id="paint0_linear_24_71" x1="226.5" y1="-16" x2="226.5" y2="119.5" gradientUnits="userSpaceOnUse">
<stop stop-color="#EFEEEA" stop-opacity="0"/>
<stop offset="1" stop-color="#EFEEEA"/>
</linearGradient>
<linearGradient id="paint1_linear_24_71" x1="35" y1="72.1634" x2="35" y2="79.2484" gradientUnits="userSpaceOnUse">
<stop stop-color="#EFEEEA" stop-opacity="0"/>
<stop offset="1" stop-color="#EFEEEA"/>
</linearGradient>
<linearGradient id="paint2_linear_24_71" x1="417" y1="72.1634" x2="417" y2="79.2484" gradientUnits="userSpaceOnUse">
<stop stop-color="#EFEEEA" stop-opacity="0"/>
<stop offset="1" stop-color="#EFEEEA"/>
</linearGradient>
</defs>
</svg>
