<?xml version="1.0" standalone="yes"?>
<svg xmlns="http://www.w3.org/2000/svg" width="990" height="990">
<path style="fill:#010101; stroke:none;" d="M0 0L0 464L1 464C1 420.928 12.4657 376.603 26 336C74.592 190.224 193.609 73.4637 339 25C378.548 11.8173 422.084 1 464 1C453.258 -3.50751 434.682 0 423 0L329 0L0 0z"/>
<path style="fill:#aa5aa3; stroke:none;" d="M464 0.424377C435.751 4.13348 407.901 6.26984 380 12.8843C308.986 29.7197 242.072 62.569 185 108.004C134.871 147.912 90.5942 199.089 60.7446 256C35.8715 303.423 16.9602 353.13 7.42438 406C-19.212 553.682 23.3029 708.953 122.285 822C156.192 860.726 196.136 893.369 240 920.189C286.456 948.594 338.81 968.479 392 979.789C454.348 993.047 519.246 993.515 582 982.919C594.458 980.815 606.774 977.884 619 974.732C622.881 973.731 629.448 972.99 631.972 969.451C634.836 965.434 633 955.756 633 951L633 902L633 714L633 203L633 69L633 34C633 30.292 634.238 23.7268 631.972 20.5494C629.623 17.2548 623.628 16.439 620 15.5262C610.696 13.1853 601.411 10.882 592 9C551.564 0.91394 505.183 -4.98303 464 0.424377z"/>
<path style="fill:#010101; stroke:none;" d="M526 0L526 1C569.072 1 613.397 12.4658 654 26C799.763 74.5878 916.539 193.616 965 339C978.183 378.548 989 422.084 989 464L990 464L990 0L526 0z"/>
<path style="fill:#764d9f; stroke:none;" d="M611 13L612 14L611 13M619 15L620 16L619 15M628 18L628 19L631 19L628 18M632 19C634.833 30.9006 633 44.7994 633 57L633 128L633 357L633 775L633 906C633 926.442 636.735 951.111 632 971C682.358 960.578 733.029 932.818 775 904.025C822.903 871.162 864.781 830.285 898.573 783C1011.13 625.503 1020.59 408.4 921.396 242C888.05 186.063 844.078 137.185 792 98.1265C746.065 63.6752 688.899 30.7758 632 19z"/>
<path style="fill:#f407f6; stroke:none;" d="M322 30L323 31L322 30M667 30L668 31L667 30z"/>
<path style="fill:#aa5aa3; stroke:none;" d="M738 63L739 64L738 63z"/>
<path style="fill:#f407f6; stroke:none;" d="M217 84L218 85L217 84z"/>
<path style="fill:#aa5aa3; stroke:none;" d="M646.667 162.333L647.333 162.667L646.667 162.333M643 163L643 165L645 165L643 163M642 166L642 168L644 168L642 166M649 166L650 167L649 166z"/>
<path style="fill:#fcfefe; stroke:none;" d="M642 168L738 368L739 368L799.309 238L818.248 197L830 169L642 168z"/>
<path style="fill:#aa5aa3; stroke:none;" d="M667 168L667 169L756 169L729 168L667 168z"/>
<path style="fill:#fcfefe; stroke:none;" d="M156 170L167.694 199L189.14 248L261.576 414L427.862 795L507 976L509 976C525.114 920.319 547.408 865.674 566.691 811C572.336 794.996 578.091 779.029 583.656 763C585.745 756.983 590.527 748.367 590.282 742C589.778 728.944 577.662 710.916 572.306 699C559.65 670.848 547.709 642.321 535.424 614C491.036 511.668 446.476 409.418 402.281 307C387.882 273.633 373.184 240.397 358.85 207L347.579 181C346.142 177.633 344.848 172.118 341.606 170.028C338.193 167.827 331.886 169 328 169C315.969 169 304.057 170 292 170L156 170z"/>
<path style="fill:#aa5aa3; stroke:none;" d="M642.333 169.667L642.667 170.333L642.333 169.667M830 169L830 172L831 172L830 169M643.333 171.667L643.667 172.333L643.333 171.667M829 172L830 173L829 172M644.333 173.667L644.667 174.333L644.333 173.667M645.333 175.667L645.667 176.333L645.333 175.667M828 175L829 176L828 175M643 177L644 178L643 177M827 177L828 178L827 177M645 178L647 180L647 178L645 178M826 179L827 180L826 179M644.333 180.667L644.667 181.333L644.333 180.667M647 180L648 181L647 180M825 181L826 182L825 181M648 182L649 183L648 182M643 183L643 186L644 186L643 183M646 183L647 184L646 183M824 183L825 184L824 183M649 184L650 185L649 184M648 185L649 186L648 185M823 185L824 186L823 185M650.333 186.667L650.667 187.333L650.333 186.667M822.333 187.667L822.667 188.333L822.333 187.667M651.333 188.667L651.667 189.333L651.333 188.667M652.333 190.667L652.667 191.333L652.333 190.667M821 190L822 191L821 190M653.333 192.667L653.667 193.333L653.333 192.667M820 192L821 193L820 192M651 193L652 194L651 193M652 194L653 195L652 194M654.333 194.667L654.667 195.333L654.333 194.667M819.333 194.667L819.667 195.333L819.333 194.667M655 196L654 199L655 196M818 196L819 197L818 196M652 197L651 200L652 197M656.333 198.667L656.667 199.333L656.333 198.667M817 198L818 199L817 198M655 200L656 201L655 200M657.333 200.667L657.667 201.333L657.333 200.667M816.333 200.667L816.667 201.333L816.333 200.667M652 201L653 202L652 201M658.333 202.667L658.667 203.333L658.333 202.667M815.333 202.667L815.667 203.333L815.333 202.667M659 205L660 206L659 205M814 205L815 206L814 205M660 207L661 208L660 207M813 207L814 208L813 207M661 209L662 213L663 212L661 209M812 209L813 210L812 209z"/>
<path style="fill:#764d9f; stroke:none;" d="M661 210L662 211L661 210z"/>
<path style="fill:#aa5aa3; stroke:none;" d="M811 211L812 212L811 211M663 213L664 214L663 213M810.333 213.667L810.667 214.333L810.333 213.667M662 214L663 215L662 214M659 215L661 218L659 215M664.333 215.667L664.667 216.333L664.333 215.667M809 216L810 217L809 216z"/>
<path style="fill:#f407f6; stroke:none;" d="M84 217L85 218L84 217z"/>
<path style="fill:#aa5aa3; stroke:none;" d="M665 217L666 218L665 217M808 218L809 219L808 218M666.333 219.667L666.667 220.333L666.333 219.667M807 220L808 221L807 220M667.333 221.667L667.667 222.333L667.333 221.667M806 222L807 223L806 222M668.333 223.667L668.667 224.333L668.333 223.667M805 224L806 225L805 224M669.333 225.667L669.667 226.333L669.333 225.667M804.333 226.667L804.667 227.333L804.333 226.667M670.333 227.667L670.667 228.333L670.333 227.667M803.333 228.667L803.667 229.333L803.333 228.667M667 229L668 230L667 229M671.333 229.667L671.667 230.333L671.333 229.667M802 231L803 232L802 231M672 232L674 236L672 232z"/>
<path style="fill:#764d9f; stroke:none;" d="M672 233L673 234L672 233z"/>
<path style="fill:#aa5aa3; stroke:none;" d="M801 233L802 234L801 233M800 235L801 236L800 235M674 236L675 237L674 236M799 237L800 238L799 237M675 238L676 239L675 238M674 239L675 240L674 239M798.333 239.667L798.667 240.333L798.333 239.667M676 240L677 241L676 240M675 242L676 243L675 242M677.333 242.667L677.667 243.333L677.333 242.667M797 242L798 243L797 242M678 244L679 245L678 244M796 244L797 245L796 244M677 245L678 246L677 245M679.333 246.667L679.667 247.333L679.333 246.667M795 246L796 247L795 246M676 247L677 248L676 247M678 248L679 249L678 248M680 248L681 249L680 248M794 248L795 249L794 248M675 249L676 250L675 249M680 250L682 252L682 250L680 250M793.333 250.667L793.667 251.333L793.333 250.667M682.333 252.667L682.667 253.333L682.333 252.667M792.333 252.667L792.667 253.333L792.333 252.667M679 253L680 254L679 253M683.333 254.667L683.667 255.333L683.333 254.667M791.333 254.667L791.667 255.333L791.333 254.667M684.333 256.667L684.667 257.333L684.333 256.667M790 257L791 258L790 257M685.333 258.667L685.667 259.333L685.333 258.667M789 259L790 260L789 259M686 261L687 262L686 261M788 261L789 262L788 261M687 263L688 264L687 263M787 263L788 264L787 263M688.333 265.667L688.667 266.333L688.333 265.667M786 265L787 266L786 265M686 267L687 268L686 267M689 267L690 268L689 267M785.333 267.667L785.667 268.333L785.333 267.667M690 269L691 270L690 269M784.333 269.667L784.667 270.333L784.333 269.667M691.333 271.667L691.667 272.333L691.333 271.667M783 272L784 273L783 272M692 273L693 274L692 273M782 274L783 275L782 274M692.667 275.333L693.333 275.667L692.667 275.333M781 276L782 277L781 276M694.333 277.667L694.667 278.333L694.333 277.667M780 278L781 279L780 278M695.333 279.667L695.667 280.333L695.333 279.667M779 280L780 281L779 280M691 281L692 282L691 281M696 281L697 285L698 285L696 281M694 282L695 283L694 282M778.333 282.667L778.667 283.333L778.333 282.667M777 285L778 286L777 285M698 286L699 287L698 286M776 287L777 288L776 287M699 288L700 289L699 288M775 289L776 290L775 289M700.333 290.667L700.667 291.333L700.333 290.667M774 291L775 292L774 291M701 292L702 293L701 292M773.333 293.667L773.667 294.333L773.333 293.667M702 294L703 295L702 294M772.333 295.667L772.667 296.333L772.333 295.667M703 296L704 297L703 296M704.333 298.667L704.667 299.333L704.333 298.667M771 298L772 299L771 298M705.333 300.667L705.667 301.333L705.333 300.667M770 300L771 301L770 300M706 302L707 303L706 302M769 302L770 303L769 302M707.333 304.667L707.667 305.333L707.333 304.667M768 304L769 305L768 304M708.333 306.667L708.667 307.333L708.333 306.667M767.333 306.667L767.667 307.333L767.333 306.667M709.333 308.667L709.667 309.333L709.333 308.667M766.333 308.667L766.667 309.333L766.333 308.667M710.333 310.667L710.667 311.333L710.333 310.667M765 311L766 312L765 311M711 313L712 317L713 317L711 313M764 313L765 314L764 313M763 315L764 316L763 315M713 317L714 318L713 317M762 317L763 318L762 317M714 319L715 320L714 319M761.333 319.667L761.667 320.333L761.333 319.667M715 321L716 322L715 321z"/>
<path style="fill:#f407f6; stroke:none;" d="M30 322L31 323L30 322z"/>
<path style="fill:#aa5aa3; stroke:none;" d="M760 322L761 323L760 322M716 323L717 324L716 323M759 324L760 325L759 324M717 325L718 326L717 325M758 326L759 327L758 326M718.333 327.667L718.667 328.333L718.333 327.667M757 328L758 329L757 328M719 329L720 330L719 329M756.333 330.667L756.667 331.333L756.333 330.667M720 331L721 332L720 331M755.333 332.667L755.667 333.333L755.333 332.667M721.333 333.667L721.667 334.333L721.333 333.667M754.333 334.667L754.667 335.333L754.333 334.667M722.333 335.667L722.667 336.333L722.333 335.667M753.333 336.667L753.667 337.333L753.333 336.667M723 338L724 339L723 338M752 339L753 340L752 339M724 340L725 341L724 340M751 341L752 342L751 341M725 342L726 343L725 342M750 343L751 344L750 343M726 344L727 345L726 344M749 345L750 346L749 345M727 346L728 347L727 346M748.333 347.667L748.667 348.333L748.333 347.667M728 348L729 349L728 348M747.333 349.667L747.667 350.333L747.333 349.667M729 350L730 351L729 350M730 352L731 353L730 352M746 352L747 353L746 352M731.333 354.667L731.667 355.333L731.333 354.667M745 354L746 355L745 354M732.333 356.667L732.667 357.333L732.333 356.667M744 356L745 357L744 356M733 358L734 359L733 358M743.333 358.667L743.667 359.333L743.333 358.667M734.333 360.667L734.667 361.333L734.333 360.667M742.333 360.667L742.667 361.333L742.333 360.667M735.333 362.667L735.667 363.333L735.333 362.667M741.333 362.667L741.667 363.333L741.333 362.667M736.333 364.667L736.667 365.333L736.333 364.667M740 365L741 366L740 365M737 367L738 368L737 367M739 367L740 368L739 367M738 368L739 369L738 368z"/>
<path style="fill:#010101; stroke:none;" d="M0 526L0 990L464 990L464 989C422.471 989 379.195 978.398 340 965.333C207.373 921.124 100.376 822.835 42.3086 696C25.9434 660.254 14.3968 621.658 7.42438 583C5.21602 570.756 3.40636 558.375 2.16898 546C1.55224 539.832 2.37366 531.657 0 526M989 526C989 567.916 978.183 611.452 965 651C916.539 796.384 799.763 915.412 654 964C613.397 977.534 569.072 989 526 989L526 990L990 990L990 661L990 567C990 555.318 993.508 536.742 989 526z"/>
<path style="fill:#764d9f; stroke:none;" d="M527 590L528 591L527 590M539 620L540 621L539 620M543 630L544 631L543 630M553 642L554 643L553 642M549 644L550 645L549 644M550 646L551 647L550 646M560 660L561 661L560 660z"/>
<path style="fill:#f407f6; stroke:none;" d="M30 667L31 668L30 667z"/>
<path style="fill:#764d9f; stroke:none;" d="M563 676L564 677L563 676M564 678L565 679L564 678M565 681L566 682L565 681M568 681L569 682L568 681M569 690L570 691L569 690M571 690L572 691L571 690M570 692L571 693L570 692M572 695L573 696L572 695M576 703L577 704L576 703M576 706L577 707L576 706M580.333 712.667L580.667 713.333L580.333 712.667M581 718L582 719L581 718M583 719L583 722L584 722L583 719M588 730L589 731L588 730M587 731L588 732L587 731M588 734L589 735L588 734M590 738L591 739L590 738M592 739L593 740L592 739M592.333 744.667L592.667 745.333L592.333 744.667M588 755L587 757L588 755M584.333 762.667L584.667 763.333L584.333 762.667M583.333 765.667L583.667 766.333L583.333 765.667z"/>
<path style="fill:#f407f6; stroke:none;" d="M84 772L85 773L84 772z"/>
<path style="fill:#764d9f; stroke:none;" d="M581 775L582 776L581 775M568 812L569 813L568 812M559 834L560 835L559 834z"/>
<path style="fill:#f407f6; stroke:none;" d="M217 905L218 906L217 905z"/>
<path style="fill:#aa5aa3; stroke:none;" d="M738 926L739 927L738 926z"/>
<path style="fill:#f407f6; stroke:none;" d="M322 959L323 960L322 959M667 959L668 960L667 959z"/>
<path style="fill:#764d9f; stroke:none;" d="M628 971L628 972L631 972L628 971M619 974L620 975L619 974M611 976L612 977L611 976z"/>
</svg>
