<svg width="423" height="71" viewBox="0 0 423 71" fill="none" xmlns="http://www.w3.org/2000/svg">
<path d="M86.3955 68.9036V2.45815C86.3955 1.9563 86.797 1.54227 87.3114 1.54227H129.467C129.969 1.54227 130.383 1.94375 130.383 2.45815V12.9218C130.383 13.4237 129.982 13.8377 129.467 13.8377H100.761C100.259 13.8377 99.8452 14.2392 99.8452 14.7536V27.6638C99.8452 28.1656 100.247 28.5796 100.761 28.5796H126.632C127.134 28.5796 127.548 28.9811 127.548 29.4955V39.8588C127.548 40.3607 127.146 40.7747 126.632 40.7747H100.761C100.259 40.7747 99.8452 41.1762 99.8452 41.6906V56.6458C99.8452 57.1477 100.247 57.5617 100.761 57.5617H129.467C129.969 57.5617 130.383 57.9632 130.383 58.4776V68.9412C130.383 69.4431 129.982 69.8571 129.467 69.8571H87.3114C86.8095 69.8571 86.3955 69.4557 86.3955 68.9412V68.9036Z" fill="white"/>
<path d="M238.744 68.3273V14.4658C238.744 13.9639 238.342 13.5499 237.828 13.5499H219.272C218.77 13.5499 218.356 13.1484 218.356 12.634V1.88181C218.356 1.37996 218.757 0.965927 219.272 0.965927H272.154C272.656 0.965927 273.07 1.36741 273.07 1.88181V12.6466C273.07 13.1484 272.669 13.5625 272.154 13.5625H253.686C253.184 13.5625 252.77 13.9639 252.77 14.4783V68.3398C252.77 68.8417 252.369 69.2557 251.854 69.2557H239.634C239.132 69.2557 238.718 68.8542 238.718 68.3398L238.744 68.3273Z" fill="white"/>
<path d="M281.84 35.1047C281.84 15.2062 297.536 0 317.723 0C337.91 0 353.806 15.2062 353.806 35.1047C353.806 55.0032 338.01 70.2094 317.723 70.2094C297.435 70.2094 281.84 55.0032 281.84 35.1047ZM339.277 35.1047C339.277 22.9096 330.206 13.3619 317.723 13.3619C305.239 13.3619 296.268 22.9222 296.268 35.1047C296.268 47.2872 305.339 56.8475 317.723 56.8475C330.106 56.8475 339.277 47.2872 339.277 35.1047Z" fill="white"/>
<path d="M421.732 69.2306H406.877C406.614 69.2306 406.363 69.1177 406.187 68.9169L385.298 44.853H385.097V68.3273C385.097 68.8291 384.695 69.2431 384.181 69.2431H372.35C371.848 69.2431 371.434 68.8417 371.434 68.3273V1.88181C371.434 1.37996 371.835 0.965927 372.35 0.965927H397.568C410.729 0.965927 420.678 10.3255 420.678 22.6084C420.678 33.0218 413.84 42.2936 402.549 44.3888C401.846 44.5143 401.57 45.38 402.059 45.8944L422.372 67.6874C422.912 68.2645 422.497 69.218 421.707 69.218L421.732 69.2306ZM385.122 14.0769V31.5665C385.122 32.0683 385.523 32.4823 386.038 32.4823H395.46C401.608 32.4823 406.187 28.869 406.187 22.6335C406.187 16.3979 401.608 13.1735 395.46 13.1735H386.038C385.536 13.1735 385.122 13.575 385.122 14.0894V14.0769Z" fill="white"/>
<path d="M36.3082 0.965927V0.99102L36.2831 0.965927H26.1708C25.2298 0.965927 24.6527 1.99473 25.1545 2.79769L35.2794 21.4918C35.7437 22.2445 36.8477 22.2445 37.3245 21.4918L47.349 2.79769C47.8383 1.99473 47.2612 0.965927 46.3328 0.965927H36.3208H36.3082Z" fill="#F67327"/>
<path d="M0.939951 0.727676H13.8878C14.2265 0.727676 14.5402 0.915872 14.6908 1.21698L35.4424 40.4118C35.7812 41.0516 36.7096 41.0516 37.0483 40.4118L57.7875 1.21698C57.9506 0.915872 58.2517 0.727676 58.5904 0.727676H71.5383C72.2283 0.727676 72.6674 1.45536 72.3412 2.07014L37.0358 67.9761C36.697 68.616 35.7812 68.616 35.4299 67.9761L0.136985 2.07014C-0.189221 1.46791 0.249902 0.727676 0.939951 0.727676Z" fill="white"/>
<path d="M143.266 35.1047C143.266 15.2062 158.874 0 178.96 0C192.523 0 202.861 6.18535 208.984 15.8586C209.26 16.2977 209.109 16.8874 208.657 17.1383L198.257 23.0602C197.83 23.2986 197.303 23.1606 197.04 22.7465C193.263 16.7745 186.827 13.3619 178.973 13.3619C167.179 13.3619 157.719 22.7214 157.719 35.1047C157.719 47.4879 167.179 56.8475 178.973 56.8475C186.839 56.8475 193.263 53.3345 197.052 47.3625C197.316 46.9484 197.842 46.7979 198.269 47.0363L208.758 52.9581C209.209 53.2091 209.373 53.7987 209.084 54.2379C202.848 63.9236 191.883 70.1968 178.973 70.1968C158.886 70.1968 143.278 54.9906 143.278 35.0921L143.266 35.1047Z" fill="white"/>
</svg>
