<svg id="Layer_1" data-name="Layer 1" xmlns="http://www.w3.org/2000/svg" xmlns:xlink="http://www.w3.org/1999/xlink" viewBox="0 0 864 161.5916">
  <defs>
    <linearGradient id="M-Grad-rgb" x1="0" y1="80.7958" x2="864" y2="80.7958" gradientUnits="userSpaceOnUse">
      <stop offset=".1" stop-color="#f8b994"/>
      <stop offset=".9" stop-color="#ff97d6"/>
    </linearGradient>
  </defs>
  <path id="fullLogo" d="M424.7998,127.6634h-1.0486L349.8339,16.9959h-25.8317V161.3756h23.0713V51.9882h1.064l72.8222,109.3874,26.9113,.2159V16.9959h-23.0713V127.6634ZM226.0424,16.9959l-58.5106,144.3798h24.567l15.3758-38.1538h63.0138l15.1597,38.1538h24.9836L252.3059,16.9959h-26.2635Zm-12.8155,87.6889l25.2148-63.8774h1.0642l24.7675,63.8774h-51.0465ZM661.9886,16.9959h-61.7339V161.3756h22.8399v-58.5878h41.4386c11.5201,0,19.4316,4.4106,19.4316,17.7043v40.8989h23.0711v-42.9962c0-18.3367-10.4714-25.7236-23.4875-26.356v-1.0333c11.3042-3.3773,26.0631-12.0137,26.0631-33.5272l.0309-.0154c0-22.9787-16.4552-40.4671-47.6537-40.4671Zm-2.7451,66.823h-36.118l.2157-48.2704h35.2546c19.4315,0,27.5589,10.5485,27.5589,23.5954,0,13.0625-8.5438,24.675-26.9113,24.675ZM805.7051,16.9959h-26.2942l-58.5262,144.3798h24.5826l15.3756-38.1538h63.0138l15.1599,38.1538h24.9834l-58.2948-144.3798Zm-39.1099,87.6889l25.2148-63.8774h1.0642l24.7675,63.8774h-51.0464ZM463.0153,35.7489l-.0309,.0155h49.7819v125.6267h22.4389l.2157-125.6267h49.7665V16.9959h-122.1722v18.7531ZM94.3994,17.1878L77.2116,0l-17.1878,17.1878,17.1878,17.1881,17.1878-17.1881Zm-2.8893,42.8981c-7.8865,7.8809-20.7104,7.8809-28.5969,0L17.1581,14.3281,0,31.4863V161.3909H23.1582V54.6458l22.5968,22.5982c8.674,8.674,20.0625,13.011,31.4566,13.011s22.7826-4.337,31.4566-13.011l22.5969-22.5982v106.7451h23.1582V31.4863l-17.1581-17.1582-45.755,45.7579Z" style="fill: url(#M-Grad-rgb);"/>
</svg>