<svg width="33" height="32" viewBox="0 0 33 32" fill="none" xmlns="http://www.w3.org/2000/svg">
    <g clip-path="url(#clip0_13630_20378)">
        <g clip-path="url(#clip1_13630_20378)">
            <path
                d="M18.1504 31.9999C25.7083 31.2217 31.7216 25.2085 32.4998 17.6506H30.5071C29.7997 24.2063 24.8358 29.4296 18.1504 30.1724V31.9999Z"
                fill="white" />
            <path
                d="M0.5 17.6506C1.27819 25.2085 7.29145 31.2217 14.8493 31.9999V30.1724C8.16396 29.4296 3.21186 24.1945 2.49263 17.6506H0.5Z"
                fill="white" />
            <path
                d="M32.4998 14.3493C31.7216 6.79145 25.7083 0.778187 18.1504 0V1.82756C24.8358 2.57038 29.7879 7.80545 30.5071 14.3493H32.4998Z"
                fill="white" />
            <path
                d="M14.8493 0C7.29145 0.778188 1.27819 6.79145 0.5 14.3493H2.49263C3.20007 7.79367 8.16397 2.57038 14.8493 1.82756V0Z"
                fill="white" />
        </g>
    </g>
    <path
        d="M11.4227 10.9225L11.4225 10.9227C10.3862 11.9633 9.78589 13.3602 9.74413 14.8283C9.70237 16.2964 10.2223 17.7251 11.1978 18.823C12.1734 19.921 13.531 20.6053 14.9938 20.7365C16.4272 20.8651 17.8557 20.4531 18.9996 19.5835L22.5007 23.0846L22.5714 23.1553L22.6421 23.0846L23.5848 22.1419L23.6555 22.0712L23.5848 22.0005L20.0838 18.4995C20.9567 17.3559 21.3713 15.9262 21.2439 14.491C21.114 13.0263 20.4294 11.6666 19.3302 10.6898C18.2309 9.71313 16.8001 9.19324 15.3302 9.23648C13.8604 9.27973 12.4626 9.88284 11.4227 10.9225ZM17.1188 11.0719C17.634 11.2894 18.1009 11.6069 18.4927 12.0059C19.2746 12.8023 19.7103 13.8752 19.7052 14.9912C19.7001 16.1072 19.2545 17.176 18.4653 17.9651C17.6762 18.7543 16.6074 19.1999 15.4914 19.205C14.3754 19.2101 13.3025 18.7744 12.5061 17.9925C12.1071 17.6008 11.7896 17.1338 11.5721 16.6187C11.3545 16.1035 11.2412 15.5504 11.2386 14.9912C11.236 14.432 11.3443 13.8778 11.5571 13.3607C11.7699 12.8436 12.0831 12.3737 12.4785 11.9783C12.8739 11.5829 13.3437 11.2697 13.8609 11.0569C14.378 10.8441 14.9322 10.7359 15.4914 10.7384C16.0505 10.741 16.6037 10.8543 17.1188 11.0719Z"
        fill="white" stroke="white" stroke-width="0.2" />
    <defs>
        <clipPath id="clip0_13630_20378">
            <rect x="0.5" width="32" height="32" rx="16" fill="white" />
        </clipPath>
        <clipPath id="clip1_13630_20378">
            <rect width="32" height="32" fill="white" transform="translate(0.5)" />
        </clipPath>
    </defs>
</svg>
    