<svg width="1440" height="1024" viewBox="0 0 1440 1024" fill="none" xmlns="http://www.w3.org/2000/svg">
<g clip-path="url(#clip0_15_2209)">
<rect width="1440" height="1024" fill="#212121"/>
<g opacity="0.2">
<g opacity="0.28">
<g clip-path="url(#clip1_15_2209)">
<path d="M1256.86 812.183V493.154H1258.86V812.183H1256.86Z" fill="#F2FF45"/>
<path d="M1349.46 759.876L981.066 547.193L982.067 545.461L1350.46 758.136L1349.46 759.876Z" fill="#F2FF45"/>
<path d="M336.355 1024L796.866 758.136L797.859 759.876L340.354 1024H336.355Z" fill="#F2FF45"/>
<path d="M796.365 1024V759.01H798.369V1024H796.365Z" fill="#F2FF45"/>
<path d="M981.058 972.559L796.867 866.213L797.869 864.481L982.068 970.827L981.058 972.559Z" fill="#F2FF45"/>
<path d="M704.27 812.175V705.837H706.265L706.273 812.175H704.27Z" fill="#F2FF45"/>
<path d="M1165.77 545.172L1256.86 492.585V387.394L1165.77 334.807L1074.67 387.394V492.585L1165.77 545.172ZM1258.35 494.02L1165.76 547.482C1134.72 529.559 1103.68 511.662 1072.66 493.732V386.24C1103.72 368.368 1134.77 350.463 1165.77 332.49C1196.8 350.403 1227.8 368.368 1258.87 386.24V493.732L1258.36 494.02H1258.35Z" fill="#9CD3B8"/>
<path d="M1074.16 385.951L1166.76 439.404V546.327H1164.76L1164.76 440.567L1073.16 387.683L1074.16 385.951Z" fill="#9CD3B8"/>
<path d="M1258.36 387.683L1166.27 440.856L1165.26 439.115L1257.35 385.951L1258.36 387.683Z" fill="#9CD3B8"/>
<path d="M1074.16 387.683L889.955 494.02L888.962 492.288L1073.16 385.951L1074.16 387.683Z" fill="#9CD3B8"/>
<path d="M981.066 545.461L1073.16 492.288L1074.16 494.02L982.067 547.193L981.066 545.461Z" fill="#9CD3B8"/>
<path d="M889.472 704.683L980.565 652.095V546.904L889.472 494.317L798.37 546.904V652.095L889.472 704.683ZM982.059 653.539L889.455 707C858.422 689.078 827.381 671.181 796.357 653.25V545.75C827.407 527.87 858.456 509.964 889.455 492C920.496 509.913 951.502 527.878 982.56 545.75V653.242L982.051 653.539H982.059Z" fill="#9CD3B8"/>
<path d="M797.869 545.461L890.465 598.914V705.837H888.462V600.077L796.867 547.193L797.869 545.461Z" fill="#9CD3B8"/>
<path d="M888.461 493.154V279.903C919.527 262.04 950.551 244.092 981.567 226.152L1166.26 332.787L1165.26 334.519L981.567 228.47L890.465 281.066V493.171H888.461V493.154Z" fill="#9CD3B8"/>
<path d="M889.955 279.605L1074.15 385.951L1073.15 387.683L888.953 281.346L889.955 279.605Z" fill="#9CD3B8"/>
<path d="M889.955 704.971L983.562 759.01C952.207 777.128 920.844 795.254 889.463 813.338C858.083 795.254 826.719 777.136 795.355 759.01C826.736 740.918 858.125 722.851 889.455 704.691L889.955 704.98V704.971ZM979.563 759.01L889.463 706.992L799.363 759.01L889.463 811.028L979.563 759.01Z" fill="#9CD3B8"/>
<path d="M796.866 759.876L703.268 705.837L796.866 651.798L797.868 653.539L707.267 705.837L797.859 758.136L796.866 759.876Z" fill="#9CD3B8"/>
<path d="M981.065 758.136L1071.66 705.837L981.057 653.539L982.067 651.798L1075.66 705.837L982.058 759.876L981.065 758.136Z" fill="#9CD3B8"/>
<path d="M1164.76 654.405L1075.67 705.837L1164.76 757.27V654.396V654.405ZM1073.16 704.971L1166.76 650.932C1166.76 687.533 1166.78 724.142 1166.76 760.742L1071.66 705.837L1073.16 704.971Z" fill="#9CD3B8"/>
<path d="M1166.77 546.327V650.932L1347.96 546.319L1257.36 494.02L1258.36 492.288L1351.97 546.327C1289.57 582.376 1227.17 618.382 1164.76 654.405V546.327H1166.78H1166.77Z" fill="#9CD3B8"/>
<path d="M1166.26 758.136L1351.96 865.347C1289.57 901.388 1227.18 937.419 1164.76 973.417C1164.76 901.371 1164.8 829.316 1164.76 757.27L1166.27 758.136H1166.26ZM1347.95 865.347L1166.76 760.742V969.953L1347.95 865.347Z" fill="#9CD3B8"/>
<path d="M1166.26 970.819L1258.37 1024H1254.36L1165.76 972.848L1077.15 1024H1073.14C1104.02 1006.19 1134.91 988.401 1165.75 970.53L1166.25 970.819H1166.26Z" fill="#9CD3B8"/>
<path d="M1165.26 866.222L981.057 759.876L982.067 758.136L1166.26 864.481L1165.26 866.222Z" fill="#9CD3B8"/>
<path d="M889.972 811.309L1073.66 917.366L1165.26 864.481L1166.26 866.213L1073.66 919.675L888.962 813.041L889.972 811.309Z" fill="#9CD3B8"/>
<path d="M888.962 1024L1073.16 917.654L1074.16 919.386L892.969 1024H888.962Z" fill="#9CD3B8"/>
<path d="M613.67 651.798L707.276 705.837C675.921 723.955 644.558 742.081 613.177 760.165C581.797 742.081 550.433 723.955 519.078 705.837C550.45 687.745 581.839 669.67 613.177 651.51L613.678 651.798H613.67ZM703.269 705.837L613.177 653.828L523.077 705.837L613.169 757.847L703.269 705.837Z" fill="#9CD3B8"/>
<path d="M613.677 759.876L520.07 813.915V705.837H522.074V810.443L612.667 758.136L613.677 759.876Z" fill="#9CD3B8"/>
<path d="M-32 1023.99L520.572 704.971L521.574 706.703L-28.0095 1024H-32V1023.99Z" fill="#9CD3B8"/>
<path d="M152.191 1023.99L520.573 811.309L521.575 813.041L156.19 1024H152.2L152.191 1023.99Z" fill="#9CD3B8"/>
<path d="M520.07 1024V812.175H522.074V1024H520.07Z" fill="#9CD3B8"/>
<path d="M704.771 917.646L888.962 811.309L889.964 813.041L705.765 919.378L704.771 917.646Z" fill="#9CD3B8"/>
<path d="M704.771 919.378L520.58 813.041L521.573 811.309L705.773 917.646L704.771 919.378Z" fill="#9CD3B8"/>
<path d="M704.27 1024V918.512H706.273V1024H704.27Z" fill="#9CD3B8"/>
<path d="M1440.06 495.464L1350.46 547.193L1349.46 545.461L1440.06 493.154V495.464Z" fill="#9CD3B8"/>
<path d="M1349.46 864.481L1440.06 812.166V814.484L1350.46 866.213L1349.46 864.481Z" fill="#9CD3B8"/>
<path d="M1257.35 811.308L1440.06 705.829V708.146L1258.35 813.049L1257.35 811.308Z" fill="#9CD3B8"/>
<path d="M1348.95 759.01V546.327H1350.96V759.01H1348.95Z" fill="#9CD3B8"/>
<path d="M1348.95 1024V865.347H1350.96V1024H1348.95Z" fill="#9CD3B8"/>
<path d="M1258.35 279.605L1351.96 333.644C1320.27 351.949 1288.56 370.253 1256.86 388.549C1256.86 351.949 1256.88 315.34 1256.86 278.739L1258.36 279.605H1258.35ZM1347.95 333.644L1258.85 282.212V385.085L1347.95 333.653V333.644Z" fill="#9CD3B8"/>
<path d="M1440.06 386.817L1349.46 334.51L1350.46 332.778L1440.06 384.499V386.817Z" fill="#9CD3B8"/>
<path d="M1257.01 280L1257 176H1259V280H1257.01Z" fill="#9CD3B8"/>
<path d="M1348.95 333.644V175H1350.96V333.644H1348.95Z" fill="#9CD3B8"/>
<path d="M1440.06 389.126L1350.97 440.559V545.75L1440.06 597.191V599.491L1348.95 546.904V439.412L1349.46 439.115L1440.06 386.817V389.126Z" fill="#9CD3B8"/>
<path fill-rule="evenodd" clip-rule="evenodd" d="M797.368 752.634C800.891 752.634 803.736 755.487 803.736 759.002C803.736 762.517 800.883 765.369 797.368 765.369C793.853 765.369 791 762.517 791 759.002C791 755.487 793.853 752.634 797.368 752.634Z" fill="#9CD3B8"/>
<path fill-rule="evenodd" clip-rule="evenodd" d="M797.366 870.866C794.318 870.866 791.848 868.395 791.848 865.347C791.848 862.299 794.318 859.829 797.366 859.829C800.414 859.829 802.885 862.299 802.885 865.347C802.885 868.395 800.414 870.866 797.366 870.866Z" fill="#9CD3B8"/>
<path fill-rule="evenodd" clip-rule="evenodd" d="M705.271 710.507C702.69 710.507 700.602 708.418 700.602 705.837C700.602 703.256 702.69 701.168 705.271 701.168C707.852 701.168 709.941 703.256 709.941 705.837C709.941 708.418 707.852 710.507 705.271 710.507Z" fill="#9CD3B8"/>
<path fill-rule="evenodd" clip-rule="evenodd" d="M981.567 967.873C983.672 967.873 985.387 969.588 985.387 971.693C985.387 973.799 983.672 975.514 981.567 975.514C979.461 975.514 977.746 973.807 977.746 971.693C977.746 969.579 979.453 967.873 981.567 967.873Z" fill="#9CD3B8"/>
<path fill-rule="evenodd" clip-rule="evenodd" d="M981.566 551.846C978.518 551.846 976.048 549.375 976.048 546.327C976.048 543.279 978.518 540.809 981.566 540.809C984.615 540.809 987.085 543.279 987.085 546.327C987.085 549.375 984.615 551.846 981.566 551.846Z" fill="#9CD3B8"/>
<path fill-rule="evenodd" clip-rule="evenodd" d="M1165.76 657.342C1163.18 657.342 1161.09 655.245 1161.09 652.673C1161.09 650.1 1163.19 648.003 1165.76 648.003C1168.33 648.003 1170.43 650.1 1170.43 652.673C1170.43 655.245 1168.34 657.342 1165.76 657.342Z" fill="#9CD3B8"/>
<path fill-rule="evenodd" clip-rule="evenodd" d="M1349.96 755.181C1352.07 755.181 1353.78 756.888 1353.78 759.002C1353.78 761.116 1352.06 762.822 1349.96 762.822C1347.85 762.822 1346.14 761.116 1346.14 759.002C1346.14 756.888 1347.84 755.181 1349.96 755.181Z" fill="#9CD3B8"/>
<path fill-rule="evenodd" clip-rule="evenodd" d="M1257.85 816.853C1255.27 816.853 1253.18 814.756 1253.18 812.183C1253.18 809.611 1255.28 807.514 1257.85 807.514C1260.43 807.514 1262.52 809.602 1262.52 812.183C1262.52 814.764 1260.43 816.853 1257.85 816.853Z" fill="#9CD3B8"/>
<path fill-rule="evenodd" clip-rule="evenodd" d="M1257.86 486.787C1261.38 486.787 1264.23 489.64 1264.23 493.154C1264.23 496.669 1261.38 499.522 1257.86 499.522C1254.35 499.522 1251.48 496.669 1251.48 493.154C1251.48 489.64 1254.34 486.787 1257.86 486.787Z" fill="#9CD3B8"/>
</g>
</g>
<path d="M1257.01 176L1257 60H1259V176H1257.01Z" fill="#43534B"/>
<path d="M1349.01 175L1349 59H1351V175H1349.01Z" fill="#43534B"/>
</g>
</g>
<defs>
<clipPath id="clip0_15_2209">
<rect width="1440" height="1024" fill="white"/>
</clipPath>
<clipPath id="clip1_15_2209">
<rect width="1472.06" height="849" fill="white" transform="translate(-32 175)"/>
</clipPath>
</defs>
</svg>
