<svg width="24" height="24" viewBox="0 0 24 24" fill="none" xmlns="http://www.w3.org/2000/svg">
<path d="M12.5295 5.33285C12.0089 4.81223 11.1648 4.81223 10.6442 5.33285L4.92031 11.0567C4.39961 11.5774 4.39961 12.4216 4.92031 12.9423L10.6442 18.6662C11.1648 19.1868 12.0089 19.1868 12.5295 18.6662C13.0501 18.1456 13.0501 17.3015 12.5295 16.7808L8.69098 12.9423C8.17028 12.4216 8.17028 11.5774 8.69098 11.0567L12.5295 7.21818C13.0501 6.69756 13.0501 5.85347 12.5295 5.33285Z" fill="rgb(var(--v-theme-on-surface))" fill-opacity="0.6"/>
<path d="M17.3109 5.33285L11.587 11.0567C11.0663 11.5774 11.0663 12.4216 11.587 12.9423L17.3109 18.6662C17.8315 19.1868 18.6756 19.1868 19.1962 18.6662C19.7168 18.1456 19.7168 17.3015 19.1962 16.7808L15.3577 12.9423C14.837 12.4216 14.837 11.5774 15.3577 11.0567L19.1962 7.21818C19.7168 6.69756 19.7168 5.85347 19.1962 5.33285C18.6756 4.81223 17.8315 4.81223 17.3109 5.33285Z" fill="rgb(var(--v-theme-on-surface))" fill-opacity="0.38"/>
</svg>
